solid RightFrontLeg
facet normal -0.866025403784438 -6.93889390390725e-018 0.500000000000002
outer loop
vertex 27.6469615022771 3.99999999999999 3.75
vertex 27.3767998438607 -1.12798659301916e-014 3.39791847198289
vertex 27.6469615022771 -1.12798659301916e-014 3.75
endloop
endfacet
facet normal -0.707106781186548 -9.81307786677359e-018 0.707106781186547
outer loop
vertex 27.3767998438607 -1.12798659301916e-014 3.39791847198289
vertex 27.6469615022771 3.99999999999999 3.75
vertex 27.3767998438607 3.99999999999999 3.39791847198289
endloop
endfacet
facet normal -0.707106781186548 -9.81307786677359e-018 0.707106781186547
outer loop
vertex 27.3767998438607 -1.12798659301916e-014 3.39791847198289
vertex 27.0247183158436 3.99999999999999 3.12775681356646
vertex 27.0247183158436 -1.12798659301916e-014 3.12775681356646
endloop
endfacet
facet normal -0.500000000000002 -1.20185167898973e-017 0.866025403784437
outer loop
vertex 27.0247183158436 3.99999999999999 3.12775681356646
vertex 27.3767998438607 -1.12798659301916e-014 3.39791847198289
vertex 27.3767998438607 3.99999999999999 3.39791847198289
endloop
endfacet
facet normal -0.500000000000002 -1.20185167898973e-017 0.866025403784437
outer loop
vertex 27.0247183158436 -1.12798659301916e-014 3.12775681356646
vertex 26.6147106925179 3.99999999999999 2.95792609530859
vertex 26.6147106925179 -1.12798659301916e-014 2.95792609530859
endloop
endfacet
facet normal -0.258819045102522 -1.34049136553275e-017 0.965925826289068
outer loop
vertex 26.6147106925179 3.99999999999999 2.95792609530859
vertex 27.0247183158436 -1.12798659301916e-014 3.12775681356646
vertex 27.0247183158436 3.99999999999999 3.12775681356646
endloop
endfacet
facet normal -0.258819045102522 -1.34049136553275e-017 0.965925826289068
outer loop
vertex 26.6147106925179 -1.12798659301916e-014 2.95792609530859
vertex 26.1747183158436 3.99999999999999 2.9
vertex 26.1747183158436 -1.12798659301916e-014 2.9
endloop
endfacet
facet normal -4.45555494782345e-017 -1.38777878078145e-017 1.0
outer loop
vertex 26.1747183158436 3.99999999999999 2.9
vertex 26.6147106925179 -1.12798659301916e-014 2.95792609530859
vertex 26.6147106925179 3.99999999999999 2.95792609530859
endloop
endfacet
facet normal -4.45555494782345e-017 -1.38777878078145e-017 1.0
outer loop
vertex 26.1747183158436 -1.12798659301916e-014 2.9
vertex 25.7347259391693 3.99999999999999 2.9579260953086
vertex 25.7347259391693 -1.12798659301916e-014 2.9579260953086
endloop
endfacet
facet normal 0.258819045102522 -1.34049136553275e-017 0.965925826289068
outer loop
vertex 25.7347259391693 3.99999999999999 2.9579260953086
vertex 26.1747183158436 -1.12798659301916e-014 2.9
vertex 26.1747183158436 3.99999999999999 2.9
endloop
endfacet
facet normal 0.258819045102522 -1.34049136553275e-017 0.965925826289068
outer loop
vertex 25.7347259391693 -1.12798659301916e-014 2.9579260953086
vertex 25.3247183158436 3.99999999999999 3.12775681356645
vertex 25.3247183158436 -1.12798659301916e-014 3.12775681356645
endloop
endfacet
facet normal 0.500000000000002 -1.20185167898973e-017 0.866025403784438
outer loop
vertex 25.3247183158436 3.99999999999999 3.12775681356645
vertex 25.7347259391693 -1.12798659301916e-014 2.9579260953086
vertex 25.7347259391693 3.99999999999999 2.9579260953086
endloop
endfacet
facet normal 0.500000000000002 -1.20185167898973e-017 0.866025403784438
outer loop
vertex 25.3247183158436 -1.12798659301916e-014 3.12775681356645
vertex 24.9726367878265 3.99999999999999 3.39791847198286
vertex 24.9726367878265 -1.12798659301916e-014 3.39791847198286
endloop
endfacet
facet normal 0.707106781186547 -9.81307786677359e-018 0.707106781186548
outer loop
vertex 24.9726367878265 3.99999999999999 3.39791847198286
vertex 25.3247183158436 -1.12798659301916e-014 3.12775681356645
vertex 25.3247183158436 3.99999999999999 3.12775681356645
endloop
endfacet
facet normal 0.707106781186547 -9.81307786677359e-018 0.707106781186548
outer loop
vertex 24.9726367878265 3.99999999999999 3.39791847198286
vertex 24.7024751294101 -1.12798659301916e-014 3.75
vertex 24.9726367878265 -1.12798659301916e-014 3.39791847198286
endloop
endfacet
facet normal 0.866025403784437 -6.93889390390725e-018 0.500000000000002
outer loop
vertex 24.7024751294101 -1.12798659301916e-014 3.75
vertex 24.9726367878265 3.99999999999999 3.39791847198286
vertex 24.7024751294101 3.99999999999999 3.75
endloop
endfacet
facet normal 0.866025403784437 -6.93889390390725e-018 0.500000000000002
outer loop
vertex 24.7024751294101 3.99999999999999 3.75
vertex 24.5326444111522 -1.12798659301916e-014 4.16000762332572
vertex 24.7024751294101 -1.12798659301916e-014 3.75
endloop
endfacet
facet normal 0.965925826289068 -3.59183578855396e-018 0.258819045102522
outer loop
vertex 24.5326444111522 -1.12798659301916e-014 4.16000762332572
vertex 24.7024751294101 3.99999999999999 3.75
vertex 24.5326444111522 3.99999999999999 4.16000762332572
endloop
endfacet
facet normal 0.965925826289068 -3.59183578855396e-018 0.258819045102522
outer loop
vertex 24.5326444111522 3.99999999999999 4.16000762332572
vertex 24.4747183158436 -1.12798659301916e-014 4.60000000000001
vertex 24.5326444111522 -1.12798659301916e-014 4.16000762332572
endloop
endfacet
facet normal 1.0 0.0 0.0
outer loop
vertex 24.4747183158436 -1.12798659301916e-014 4.60000000000001
vertex 24.5326444111522 3.99999999999999 4.16000762332572
vertex 24.4747183158436 3.99999999999999 4.60000000000001
endloop
endfacet
facet normal 1.0 0.0 0.0
outer loop
vertex 24.4747183158436 3.99999999999999 4.60000000000001
vertex 24.5326444111522 -1.12798659301916e-014 5.03999237667428
vertex 24.4747183158436 -1.12798659301916e-014 4.60000000000001
endloop
endfacet
facet normal 0.965925826289068 3.59183578855397e-018 -0.258819045102522
outer loop
vertex 24.5326444111522 -1.12798659301916e-014 5.03999237667428
vertex 24.4747183158436 3.99999999999999 4.60000000000001
vertex 24.5326444111522 3.99999999999999 5.03999237667428
endloop
endfacet
facet normal 0.965925826289068 3.59183578855397e-018 -0.258819045102522
outer loop
vertex 24.5326444111522 3.99999999999999 5.03999237667428
vertex 24.7024751294101 -1.12798659301916e-014 5.45000000000001
vertex 24.5326444111522 -1.12798659301916e-014 5.03999237667428
endloop
endfacet
facet normal 0.866025403784438 6.93889390390725e-018 -0.500000000000002
outer loop
vertex 24.7024751294101 -1.12798659301916e-014 5.45000000000001
vertex 24.5326444111522 3.99999999999999 5.03999237667428
vertex 24.7024751294101 3.99999999999999 5.45000000000001
endloop
endfacet
facet normal 0.866025403784438 6.93889390390725e-018 -0.500000000000002
outer loop
vertex 24.7024751294101 3.99999999999999 5.45000000000001
vertex 24.9726367878264 -1.12798659301916e-014 5.80208152801713
vertex 24.7024751294101 -1.12798659301916e-014 5.45000000000001
endloop
endfacet
facet normal 0.707106781186548 9.81307786677359e-018 -0.707106781186547
outer loop
vertex 24.9726367878264 -1.12798659301916e-014 5.80208152801713
vertex 24.7024751294101 3.99999999999999 5.45000000000001
vertex 24.9726367878264 3.99999999999999 5.80208152801713
endloop
endfacet
facet normal 0.500000000000002 1.20185167898973e-017 -0.866025403784437
outer loop
vertex 25.3247183158436 3.99999999999999 6.07224318643354
vertex 24.9726367878264 -1.12798659301916e-014 5.80208152801713
vertex 24.9726367878264 3.99999999999999 5.80208152801713
endloop
endfacet
facet normal 0.707106781186548 9.81307786677359e-018 -0.707106781186547
outer loop
vertex 24.9726367878264 -1.12798659301916e-014 5.80208152801713
vertex 25.3247183158436 3.99999999999999 6.07224318643354
vertex 25.3247183158436 -1.12798659301916e-014 6.07224318643354
endloop
endfacet
facet normal 0.258819045102522 1.34049136553275e-017 -0.965925826289068
outer loop
vertex 25.7347259391693 3.99999999999999 6.2420739046914
vertex 25.3247183158436 -1.12798659301916e-014 6.07224318643354
vertex 25.3247183158436 3.99999999999999 6.07224318643354
endloop
endfacet
facet normal 0.500000000000002 1.20185167898973e-017 -0.866025403784437
outer loop
vertex 25.3247183158436 -1.12798659301916e-014 6.07224318643354
vertex 25.7347259391693 3.99999999999999 6.2420739046914
vertex 25.7347259391693 -1.12798659301916e-014 6.2420739046914
endloop
endfacet
facet normal 4.45555494782345e-017 1.38777878078145e-017 -1.0
outer loop
vertex 26.1747183158436 3.99999999999999 6.29999999999998
vertex 25.7347259391693 -1.12798659301916e-014 6.2420739046914
vertex 25.7347259391693 3.99999999999999 6.2420739046914
endloop
endfacet
facet normal 0.258819045102522 1.34049136553275e-017 -0.965925826289068
outer loop
vertex 25.7347259391693 -1.12798659301916e-014 6.2420739046914
vertex 26.1747183158436 3.99999999999999 6.29999999999998
vertex 26.1747183158436 -1.12798659301916e-014 6.29999999999998
endloop
endfacet
facet normal -0.258819045102522 1.34049136553275e-017 -0.965925826289068
outer loop
vertex 26.6147106925179 3.99999999999999 6.2420739046914
vertex 26.1747183158436 -1.12798659301916e-014 6.29999999999998
vertex 26.1747183158436 3.99999999999999 6.29999999999998
endloop
endfacet
facet normal 4.45555494782345e-017 1.38777878078145e-017 -1.0
outer loop
vertex 26.1747183158436 -1.12798659301916e-014 6.29999999999998
vertex 26.6147106925179 3.99999999999999 6.2420739046914
vertex 26.6147106925179 -1.12798659301916e-014 6.2420739046914
endloop
endfacet
facet normal -0.500000000000002 1.20185167898973e-017 -0.866025403784438
outer loop
vertex 27.0247183158436 3.99999999999999 6.07224318643354
vertex 26.6147106925179 -1.12798659301916e-014 6.2420739046914
vertex 26.6147106925179 3.99999999999999 6.2420739046914
endloop
endfacet
facet normal -0.258819045102522 1.34049136553275e-017 -0.965925826289068
outer loop
vertex 26.6147106925179 -1.12798659301916e-014 6.2420739046914
vertex 27.0247183158436 3.99999999999999 6.07224318643354
vertex 27.0247183158436 -1.12798659301916e-014 6.07224318643354
endloop
endfacet
facet normal -0.707106781186547 9.81307786677359e-018 -0.707106781186548
outer loop
vertex 27.3767998438607 3.99999999999999 5.80208152801713
vertex 27.0247183158436 -1.12798659301916e-014 6.07224318643354
vertex 27.0247183158436 3.99999999999999 6.07224318643354
endloop
endfacet
facet normal -0.500000000000002 1.20185167898973e-017 -0.866025403784438
outer loop
vertex 27.0247183158436 -1.12798659301916e-014 6.07224318643354
vertex 27.3767998438607 3.99999999999999 5.80208152801713
vertex 27.3767998438607 -1.12798659301916e-014 5.80208152801713
endloop
endfacet
facet normal -0.707106781186547 9.81307786677359e-018 -0.707106781186548
outer loop
vertex 27.3767998438607 3.99999999999999 5.80208152801713
vertex 27.6469615022771 -1.12798659301916e-014 5.45
vertex 27.3767998438607 -1.12798659301916e-014 5.80208152801713
endloop
endfacet
facet normal -0.866025403784437 6.93889390390725e-018 -0.500000000000002
outer loop
vertex 27.6469615022771 -1.12798659301916e-014 5.45
vertex 27.3767998438607 3.99999999999999 5.80208152801713
vertex 27.6469615022771 3.99999999999999 5.45
endloop
endfacet
facet normal -0.866025403784437 6.93889390390725e-018 -0.500000000000002
outer loop
vertex 27.6469615022771 3.99999999999999 5.45
vertex 27.816792220535 -1.12798659301916e-014 5.03999237667429
vertex 27.6469615022771 -1.12798659301916e-014 5.45
endloop
endfacet
facet normal -0.965925826289068 3.59183578855396e-018 -0.258819045102522
outer loop
vertex 27.816792220535 -1.12798659301916e-014 5.03999237667429
vertex 27.6469615022771 3.99999999999999 5.45
vertex 27.816792220535 3.99999999999999 5.03999237667429
endloop
endfacet
facet normal -0.965925826289068 3.59183578855396e-018 -0.258819045102522
outer loop
vertex 27.816792220535 3.99999999999999 5.03999237667429
vertex 27.8747183158436 -1.12798659301916e-014 4.60000000000001
vertex 27.816792220535 -1.12798659301916e-014 5.03999237667429
endloop
endfacet
facet normal -1.0 0.0 0.0
outer loop
vertex 27.8747183158436 -1.12798659301916e-014 4.60000000000001
vertex 27.816792220535 3.99999999999999 5.03999237667429
vertex 27.8747183158436 3.99999999999999 4.60000000000001
endloop
endfacet
facet normal -1.0 0.0 0.0
outer loop
vertex 27.8747183158436 3.99999999999999 4.60000000000001
vertex 27.816792220535 -1.12798659301916e-014 4.16000762332571
vertex 27.8747183158436 -1.12798659301916e-014 4.60000000000001
endloop
endfacet
facet normal -0.965925826289068 -3.59183578855397e-018 0.258819045102522
outer loop
vertex 27.816792220535 -1.12798659301916e-014 4.16000762332571
vertex 27.8747183158436 3.99999999999999 4.60000000000001
vertex 27.816792220535 3.99999999999999 4.16000762332571
endloop
endfacet
facet normal -0.965925826289068 -3.59183578855397e-018 0.258819045102522
outer loop
vertex 27.816792220535 3.99999999999999 4.16000762332571
vertex 27.6469615022771 -1.12798659301916e-014 3.75
vertex 27.816792220535 -1.12798659301916e-014 4.16000762332571
endloop
endfacet
facet normal -0.866025403784438 -6.93889390390725e-018 0.500000000000002
outer loop
vertex 27.6469615022771 -1.12798659301916e-014 3.75
vertex 27.816792220535 3.99999999999999 4.16000762332571
vertex 27.6469615022771 3.99999999999999 3.75
endloop
endfacet
facet normal 0.258819045102522 1.34049136553275e-017 -0.965925826289068
outer loop
vertex 48.5347259391693 4.00000000000002 6.2420739046914
vertex 48.1247183158436 1.12798659301916e-014 6.07224318643352
vertex 48.1247183158436 4.00000000000002 6.07224318643352
endloop
endfacet
facet normal 0.500000000000002 1.20185167898973e-017 -0.866025403784437
outer loop
vertex 48.1247183158436 1.12798659301916e-014 6.07224318643352
vertex 48.5347259391693 4.00000000000002 6.2420739046914
vertex 48.5347259391693 1.12798659301916e-014 6.2420739046914
endloop
endfacet
facet normal 4.45555494782345e-017 1.38777878078145e-017 -1.0
outer loop
vertex 48.9747183158436 4.00000000000002 6.29999999999999
vertex 48.5347259391693 1.12798659301916e-014 6.2420739046914
vertex 48.5347259391693 4.00000000000002 6.2420739046914
endloop
endfacet
facet normal 0.258819045102522 1.34049136553275e-017 -0.965925826289068
outer loop
vertex 48.5347259391693 1.12798659301916e-014 6.2420739046914
vertex 48.9747183158436 4.00000000000002 6.29999999999999
vertex 48.9747183158436 1.12798659301916e-014 6.29999999999999
endloop
endfacet
facet normal -0.258819045102522 1.34049136553275e-017 -0.965925826289068
outer loop
vertex 49.414710692518 4.00000000000002 6.2420739046914
vertex 48.9747183158436 1.12798659301916e-014 6.29999999999999
vertex 48.9747183158436 4.00000000000002 6.29999999999999
endloop
endfacet
facet normal 4.45555494782345e-017 1.38777878078145e-017 -1.0
outer loop
vertex 48.9747183158436 1.12798659301916e-014 6.29999999999999
vertex 49.414710692518 4.00000000000002 6.2420739046914
vertex 49.414710692518 1.12798659301916e-014 6.2420739046914
endloop
endfacet
facet normal -0.500000000000002 1.20185167898973e-017 -0.866025403784438
outer loop
vertex 49.8247183158436 4.00000000000002 6.07224318643352
vertex 49.414710692518 1.12798659301916e-014 6.2420739046914
vertex 49.414710692518 4.00000000000002 6.2420739046914
endloop
endfacet
facet normal -0.258819045102522 1.34049136553275e-017 -0.965925826289068
outer loop
vertex 49.414710692518 1.12798659301916e-014 6.2420739046914
vertex 49.8247183158436 4.00000000000002 6.07224318643352
vertex 49.8247183158436 1.12798659301916e-014 6.07224318643352
endloop
endfacet
facet normal -0.707106781186547 9.81307786677359e-018 -0.707106781186548
outer loop
vertex 50.1767998438607 4.00000000000002 5.80208152801711
vertex 49.8247183158436 1.12798659301916e-014 6.07224318643352
vertex 49.8247183158436 4.00000000000002 6.07224318643352
endloop
endfacet
facet normal -0.500000000000002 1.20185167898973e-017 -0.866025403784438
outer loop
vertex 49.8247183158436 1.12798659301916e-014 6.07224318643352
vertex 50.1767998438607 4.00000000000002 5.80208152801711
vertex 50.1767998438607 1.12798659301916e-014 5.80208152801711
endloop
endfacet
facet normal -0.707106781186547 9.81307786677359e-018 -0.707106781186548
outer loop
vertex 50.1767998438607 4.00000000000002 5.80208152801711
vertex 50.4469615022771 1.12798659301916e-014 5.44999999999997
vertex 50.1767998438607 1.12798659301916e-014 5.80208152801711
endloop
endfacet
facet normal -0.866025403784437 6.93889390390725e-018 -0.500000000000002
outer loop
vertex 50.4469615022771 1.12798659301916e-014 5.44999999999997
vertex 50.1767998438607 4.00000000000002 5.80208152801711
vertex 50.4469615022771 4.00000000000002 5.44999999999997
endloop
endfacet
facet normal -0.866025403784437 6.93889390390725e-018 -0.500000000000002
outer loop
vertex 50.4469615022771 4.00000000000002 5.44999999999997
vertex 50.6167922205351 1.12798659301916e-014 5.03999237667426
vertex 50.4469615022771 1.12798659301916e-014 5.44999999999997
endloop
endfacet
facet normal -0.965925826289068 3.59183578855396e-018 -0.258819045102522
outer loop
vertex 50.6167922205351 1.12798659301916e-014 5.03999237667426
vertex 50.4469615022771 4.00000000000002 5.44999999999997
vertex 50.6167922205351 4.00000000000002 5.03999237667426
endloop
endfacet
facet normal -0.965925826289068 3.59183578855396e-018 -0.258819045102522
outer loop
vertex 50.6167922205351 4.00000000000002 5.03999237667426
vertex 50.6747183158437 1.12798659301916e-014 4.59999999999997
vertex 50.6167922205351 1.12798659301916e-014 5.03999237667426
endloop
endfacet
facet normal -1.0 0.0 0.0
outer loop
vertex 50.6747183158437 1.12798659301916e-014 4.59999999999997
vertex 50.6167922205351 4.00000000000002 5.03999237667426
vertex 50.6747183158437 4.00000000000002 4.59999999999997
endloop
endfacet
facet normal -1.0 0.0 0.0
outer loop
vertex 50.6747183158437 4.00000000000002 4.59999999999997
vertex 50.6167922205351 1.12798659301916e-014 4.1600076233257
vertex 50.6747183158437 1.12798659301916e-014 4.59999999999997
endloop
endfacet
facet normal -0.965925826289068 -3.59183578855397e-018 0.258819045102522
outer loop
vertex 50.6167922205351 1.12798659301916e-014 4.1600076233257
vertex 50.6747183158437 4.00000000000002 4.59999999999997
vertex 50.6167922205351 4.00000000000002 4.1600076233257
endloop
endfacet
facet normal -0.965925826289068 -3.59183578855397e-018 0.258819045102522
outer loop
vertex 50.6167922205351 4.00000000000002 4.1600076233257
vertex 50.4469615022772 1.12798659301916e-014 3.74999999999998
vertex 50.6167922205351 1.12798659301916e-014 4.1600076233257
endloop
endfacet
facet normal -0.866025403784438 -6.93889390390725e-018 0.500000000000002
outer loop
vertex 50.4469615022772 1.12798659301916e-014 3.74999999999998
vertex 50.6167922205351 4.00000000000002 4.1600076233257
vertex 50.4469615022772 4.00000000000002 3.74999999999998
endloop
endfacet
facet normal -0.866025403784438 -6.93889390390725e-018 0.500000000000002
outer loop
vertex 50.4469615022772 4.00000000000002 3.74999999999998
vertex 50.1767998438608 1.12798659301916e-014 3.39791847198284
vertex 50.4469615022772 1.12798659301916e-014 3.74999999999998
endloop
endfacet
facet normal -0.707106781186548 -9.81307786677359e-018 0.707106781186547
outer loop
vertex 50.1767998438608 1.12798659301916e-014 3.39791847198284
vertex 50.4469615022772 4.00000000000002 3.74999999999998
vertex 50.1767998438608 4.00000000000002 3.39791847198284
endloop
endfacet
facet normal -0.707106781186548 -9.81307786677359e-018 0.707106781186547
outer loop
vertex 50.1767998438608 1.12798659301916e-014 3.39791847198284
vertex 49.8247183158436 4.00000000000002 3.12775681356644
vertex 49.8247183158436 1.12798659301916e-014 3.12775681356644
endloop
endfacet
facet normal -0.500000000000002 -1.20185167898973e-017 0.866025403784437
outer loop
vertex 49.8247183158436 4.00000000000002 3.12775681356644
vertex 50.1767998438608 1.12798659301916e-014 3.39791847198284
vertex 50.1767998438608 4.00000000000002 3.39791847198284
endloop
endfacet
facet normal -0.500000000000002 -1.20185167898973e-017 0.866025403784437
outer loop
vertex 49.8247183158436 1.12798659301916e-014 3.12775681356644
vertex 49.4147106925179 4.00000000000002 2.95792609530857
vertex 49.4147106925179 1.12798659301916e-014 2.95792609530857
endloop
endfacet
facet normal -0.258819045102522 -1.34049136553275e-017 0.965925826289068
outer loop
vertex 49.4147106925179 4.00000000000002 2.95792609530857
vertex 49.8247183158436 1.12798659301916e-014 3.12775681356644
vertex 49.8247183158436 4.00000000000002 3.12775681356644
endloop
endfacet
facet normal -0.258819045102522 -1.34049136553275e-017 0.965925826289068
outer loop
vertex 49.4147106925179 1.12798659301916e-014 2.95792609530857
vertex 48.9747183158436 4.00000000000002 2.89999999999998
vertex 48.9747183158436 1.12798659301916e-014 2.89999999999998
endloop
endfacet
facet normal -4.45555494782345e-017 -1.38777878078145e-017 1.0
outer loop
vertex 48.9747183158436 4.00000000000002 2.89999999999998
vertex 49.4147106925179 1.12798659301916e-014 2.95792609530857
vertex 49.4147106925179 4.00000000000002 2.95792609530857
endloop
endfacet
facet normal -4.45555494782345e-017 -1.38777878078145e-017 1.0
outer loop
vertex 48.9747183158436 1.12798659301916e-014 2.89999999999998
vertex 48.5347259391694 4.00000000000002 2.95792609530857
vertex 48.5347259391694 1.12798659301916e-014 2.95792609530857
endloop
endfacet
facet normal 0.258819045102522 -1.34049136553275e-017 0.965925826289068
outer loop
vertex 48.5347259391694 4.00000000000002 2.95792609530857
vertex 48.9747183158436 1.12798659301916e-014 2.89999999999998
vertex 48.9747183158436 4.00000000000002 2.89999999999998
endloop
endfacet
facet normal 0.258819045102522 -1.34049136553275e-017 0.965925826289068
outer loop
vertex 48.5347259391694 1.12798659301916e-014 2.95792609530857
vertex 48.1247183158436 4.00000000000002 3.12775681356644
vertex 48.1247183158436 1.12798659301916e-014 3.12775681356644
endloop
endfacet
facet normal 0.500000000000002 -1.20185167898973e-017 0.866025403784438
outer loop
vertex 48.1247183158436 4.00000000000002 3.12775681356644
vertex 48.5347259391694 1.12798659301916e-014 2.95792609530857
vertex 48.5347259391694 4.00000000000002 2.95792609530857
endloop
endfacet
facet normal 0.500000000000002 -1.20185167898973e-017 0.866025403784438
outer loop
vertex 48.1247183158436 1.12798659301916e-014 3.12775681356644
vertex 47.7726367878265 4.00000000000002 3.39791847198286
vertex 47.7726367878265 1.12798659301916e-014 3.39791847198286
endloop
endfacet
facet normal 0.707106781186547 -9.81307786677359e-018 0.707106781186548
outer loop
vertex 47.7726367878265 4.00000000000002 3.39791847198286
vertex 48.1247183158436 1.12798659301916e-014 3.12775681356644
vertex 48.1247183158436 4.00000000000002 3.12775681356644
endloop
endfacet
facet normal 0.707106781186547 -9.81307786677359e-018 0.707106781186548
outer loop
vertex 47.7726367878265 4.00000000000002 3.39791847198286
vertex 47.5024751294101 1.12798659301916e-014 3.74999999999998
vertex 47.7726367878265 1.12798659301916e-014 3.39791847198286
endloop
endfacet
facet normal 0.866025403784437 -6.93889390390725e-018 0.500000000000002
outer loop
vertex 47.5024751294101 1.12798659301916e-014 3.74999999999998
vertex 47.7726367878265 4.00000000000002 3.39791847198286
vertex 47.5024751294101 4.00000000000002 3.74999999999998
endloop
endfacet
facet normal 0.866025403784437 -6.93889390390725e-018 0.500000000000002
outer loop
vertex 47.5024751294101 4.00000000000002 3.74999999999998
vertex 47.3326444111522 1.12798659301916e-014 4.16000762332569
vertex 47.5024751294101 1.12798659301916e-014 3.74999999999998
endloop
endfacet
facet normal 0.965925826289068 -3.59183578855396e-018 0.258819045102522
outer loop
vertex 47.3326444111522 1.12798659301916e-014 4.16000762332569
vertex 47.5024751294101 4.00000000000002 3.74999999999998
vertex 47.3326444111522 4.00000000000002 4.16000762332569
endloop
endfacet
facet normal 0.965925826289068 -3.59183578855396e-018 0.258819045102522
outer loop
vertex 47.3326444111522 4.00000000000002 4.16000762332569
vertex 47.2747183158437 1.12798659301916e-014 4.59999999999998
vertex 47.3326444111522 1.12798659301916e-014 4.16000762332569
endloop
endfacet
facet normal 1.0 0.0 0.0
outer loop
vertex 47.2747183158437 1.12798659301916e-014 4.59999999999998
vertex 47.3326444111522 4.00000000000002 4.16000762332569
vertex 47.2747183158437 4.00000000000002 4.59999999999998
endloop
endfacet
facet normal 1.0 0.0 0.0
outer loop
vertex 47.2747183158437 4.00000000000002 4.59999999999998
vertex 47.3326444111522 1.12798659301916e-014 5.03999237667427
vertex 47.2747183158437 1.12798659301916e-014 4.59999999999998
endloop
endfacet
facet normal 0.965925826289068 3.59183578855397e-018 -0.258819045102522
outer loop
vertex 47.3326444111522 1.12798659301916e-014 5.03999237667427
vertex 47.2747183158437 4.00000000000002 4.59999999999998
vertex 47.3326444111522 4.00000000000002 5.03999237667427
endloop
endfacet
facet normal 0.965925826289068 3.59183578855397e-018 -0.258819045102522
outer loop
vertex 47.3326444111522 4.00000000000002 5.03999237667427
vertex 47.5024751294101 1.12798659301916e-014 5.44999999999998
vertex 47.3326444111522 1.12798659301916e-014 5.03999237667427
endloop
endfacet
facet normal 0.866025403784438 6.93889390390725e-018 -0.500000000000002
outer loop
vertex 47.5024751294101 1.12798659301916e-014 5.44999999999998
vertex 47.3326444111522 4.00000000000002 5.03999237667427
vertex 47.5024751294101 4.00000000000002 5.44999999999998
endloop
endfacet
facet normal 0.866025403784438 6.93889390390725e-018 -0.500000000000002
outer loop
vertex 47.5024751294101 4.00000000000002 5.44999999999998
vertex 47.7726367878265 1.12798659301916e-014 5.8020815280171
vertex 47.5024751294101 1.12798659301916e-014 5.44999999999998
endloop
endfacet
facet normal 0.707106781186548 9.81307786677359e-018 -0.707106781186547
outer loop
vertex 47.7726367878265 1.12798659301916e-014 5.8020815280171
vertex 47.5024751294101 4.00000000000002 5.44999999999998
vertex 47.7726367878265 4.00000000000002 5.8020815280171
endloop
endfacet
facet normal 0.500000000000002 1.20185167898973e-017 -0.866025403784437
outer loop
vertex 48.1247183158436 4.00000000000002 6.07224318643352
vertex 47.7726367878265 1.12798659301916e-014 5.8020815280171
vertex 47.7726367878265 4.00000000000002 5.8020815280171
endloop
endfacet
facet normal 0.707106781186548 9.81307786677359e-018 -0.707106781186547
outer loop
vertex 47.7726367878265 1.12798659301916e-014 5.8020815280171
vertex 48.1247183158436 4.00000000000002 6.07224318643352
vertex 48.1247183158436 1.12798659301916e-014 6.07224318643352
endloop
endfacet
facet normal 0.258819045102521 -1.34049136553275e-017 0.965925826289068
outer loop
vertex 50.1652859233152 1.12798659301916e-014 9.0432588009297
vertex 48.9747183158436 4.00000000000002 9.19999999999996
vertex 48.9747183158436 1.12798659301916e-014 9.19999999999996
endloop
endfacet
facet normal 0.130526192220052 -1.37590614092938e-017 0.991444861373811
outer loop
vertex 48.9747183158436 4.00000000000002 9.19999999999996
vertex 50.1652859233152 1.12798659301916e-014 9.0432588009297
vertex 50.1652859233152 4.00000000000002 9.0432588009297
endloop
endfacet
facet normal 0.5 -1.20185167898973e-017 0.866025403784439
outer loop
vertex 51.2747183158436 1.12798659301916e-014 8.5837168574084
vertex 50.1652859233152 4.00000000000002 9.0432588009297
vertex 50.1652859233152 1.12798659301916e-014 9.0432588009297
endloop
endfacet
facet normal 0.258819045102521 -1.34049136553275e-017 0.965925826289068
outer loop
vertex 50.1652859233152 4.00000000000002 9.0432588009297
vertex 51.2747183158436 1.12798659301916e-014 8.5837168574084
vertex 51.2747183158436 4.00000000000002 8.5837168574084
endloop
endfacet
facet normal 0.499999999999998 1.20185167898973e-017 -0.86602540378444
outer loop
vertex 51.2747183158436 4.00000000000002 0.616283142591579
vertex 50.1652859233152 1.12798659301916e-014 0.15674119907028
vertex 50.1652859233152 4.00000000000002 0.15674119907028
endloop
endfacet
facet normal 0.258819045102522 1.34049136553275e-017 -0.965925826289068
outer loop
vertex 50.1652859233152 1.12798659301916e-014 0.15674119907028
vertex 51.2747183158436 4.00000000000002 0.616283142591579
vertex 51.2747183158436 1.12798659301916e-014 0.616283142591578
endloop
endfacet
facet normal 0.965925826289068 3.59183578855396e-018 -0.258819045102522
outer loop
vertex 53.4179771167734 4.00000000000002 3.40943239252839
vertex 53.5747183158436 1.12798659301916e-014 4.6
vertex 53.4179771167734 1.12798659301916e-014 3.40943239252839
endloop
endfacet
facet normal 1.0 -9.27498691979275e-033 6.77244352069165e-016
outer loop
vertex 53.5747183158436 1.12798659301916e-014 4.6
vertex 53.4179771167734 4.00000000000002 3.40943239252839
vertex 53.5747183158436 4.00000000000002 4.6
endloop
endfacet
facet normal 0.258819045102522 1.34049136553275e-017 -0.965925826289068
outer loop
vertex 50.1652859233152 4.00000000000002 0.15674119907028
vertex 48.9747183158436 1.12798659301916e-014 9.16489106828067e-015
vertex 48.9747183158436 4.00000000000002 9.51738687859915e-015
endloop
endfacet
facet normal 0.130526192220051 1.37590614092938e-017 -0.99144486137381
outer loop
vertex 48.9747183158436 1.12798659301916e-014 9.16489106828067e-015
vertex 50.1652859233152 4.00000000000002 0.15674119907028
vertex 50.1652859233152 1.12798659301916e-014 0.15674119907028
endloop
endfacet
facet normal 0.866025403784439 6.93889390390721e-018 -0.499999999999999
outer loop
vertex 52.958435173252 4.00000000000002 2.30000000000001
vertex 53.4179771167734 1.12798659301916e-014 3.40943239252839
vertex 52.958435173252 1.12798659301916e-014 2.30000000000001
endloop
endfacet
facet normal 0.965925826289068 3.59183578855396e-018 -0.258819045102522
outer loop
vertex 53.4179771167734 1.12798659301916e-014 3.40943239252839
vertex 52.958435173252 4.00000000000002 2.30000000000001
vertex 53.4179771167734 4.00000000000002 3.40943239252839
endloop
endfacet
facet normal 0.707106781186548 9.81307786677359e-018 -0.707106781186547
outer loop
vertex 52.2274095093017 4.00000000000002 1.34730880654189
vertex 52.958435173252 1.12798659301916e-014 2.30000000000001
vertex 52.2274095093017 1.12798659301916e-014 1.34730880654189
endloop
endfacet
facet normal 0.866025403784439 6.93889390390721e-018 -0.499999999999999
outer loop
vertex 52.958435173252 1.12798659301916e-014 2.30000000000001
vertex 52.2274095093017 4.00000000000002 1.34730880654189
vertex 52.958435173252 4.00000000000002 2.30000000000001
endloop
endfacet
facet normal 0.707106781186548 9.81307786677359e-018 -0.707106781186547
outer loop
vertex 52.2274095093017 4.00000000000002 1.34730880654189
vertex 51.2747183158436 1.12798659301916e-014 0.616283142591578
vertex 51.2747183158436 4.00000000000002 0.616283142591579
endloop
endfacet
facet normal 0.499999999999998 1.20185167898973e-017 -0.86602540378444
outer loop
vertex 51.2747183158436 1.12798659301916e-014 0.616283142591578
vertex 52.2274095093017 4.00000000000002 1.34730880654189
vertex 52.2274095093017 1.12798659301916e-014 1.34730880654189
endloop
endfacet
facet normal 1.0 -9.27498691979275e-033 6.77244352069165e-016
outer loop
vertex 53.5747183158436 4.00000000000002 4.6
vertex 53.4179771167733 1.12798659301916e-014 5.79056760747159
vertex 53.5747183158436 1.12798659301916e-014 4.6
endloop
endfacet
facet normal 0.965925826289068 -3.59183578855395e-018 0.258819045102522
outer loop
vertex 53.4179771167733 1.12798659301916e-014 5.79056760747159
vertex 53.5747183158436 4.00000000000002 4.6
vertex 53.4179771167733 4.00000000000002 5.79056760747159
endloop
endfacet
facet normal 0.965925826289068 -3.59183578855395e-018 0.258819045102522
outer loop
vertex 53.4179771167733 4.00000000000002 5.79056760747159
vertex 52.958435173252 1.12798659301916e-014 6.9
vertex 53.4179771167733 1.12798659301916e-014 5.79056760747159
endloop
endfacet
facet normal 0.866025403784439 -6.93889390390723e-018 0.5
outer loop
vertex 52.958435173252 1.12798659301916e-014 6.9
vertex 53.4179771167733 4.00000000000002 5.79056760747159
vertex 52.958435173252 4.00000000000002 6.9
endloop
endfacet
facet normal 0.866025403784439 -6.93889390390723e-018 0.5
outer loop
vertex 52.958435173252 4.00000000000002 6.9
vertex 52.2274095093017 1.12798659301916e-014 7.8526911934581
vertex 52.958435173252 1.12798659301916e-014 6.9
endloop
endfacet
facet normal 0.707106781186548 -9.81307786677359e-018 0.707106781186547
outer loop
vertex 52.2274095093017 1.12798659301916e-014 7.8526911934581
vertex 52.958435173252 4.00000000000002 6.9
vertex 52.2274095093017 4.00000000000002 7.8526911934581
endloop
endfacet
facet normal 0.707106781186548 -9.81307786677359e-018 0.707106781186547
outer loop
vertex 52.2274095093017 1.12798659301916e-014 7.8526911934581
vertex 51.2747183158436 4.00000000000002 8.5837168574084
vertex 51.2747183158436 1.12798659301916e-014 8.5837168574084
endloop
endfacet
facet normal 0.5 -1.20185167898973e-017 0.866025403784439
outer loop
vertex 51.2747183158436 4.00000000000002 8.5837168574084
vertex 52.2274095093017 1.12798659301916e-014 7.8526911934581
vertex 52.2274095093017 4.00000000000002 7.8526911934581
endloop
endfacet
facet normal -9.71445146547012e-017 -1.38777878078145e-017 1.0
outer loop
vertex 48.9747183158436 1.12798659301916e-014 9.19999999999996
vertex 24.4747183158436 4.00000000000002 9.19999999999999
vertex 24.4747183158436 1.12798659301916e-014 9.19999999999999
endloop
endfacet
facet normal -9.71445146547012e-017 -1.38777878078145e-017 1.0
outer loop
vertex 24.4747183158436 4.00000000000002 9.19999999999999
vertex 48.9747183158436 1.12798659301916e-014 9.19999999999996
vertex 48.9747183158436 4.00000000000002 9.19999999999996
endloop
endfacet
facet normal -0.965925826289073 -0.258819045102506 1.70668618364003e-015
outer loop
vertex 11.7466825529899 12.1415460053928 4.99999999999968
vertex 15.0 1.12798659301916e-014 -3.52495810318487e-016
vertex 15.0 1.12798659301916e-014 5.00000000000003
endloop
endfacet
facet normal -0.965925826289073 -0.258819045102506 1.70668618364003e-015
outer loop
vertex 15.0 1.12798659301916e-014 -3.52495810318487e-016
vertex 11.7466825529899 12.1415460053928 4.99999999999968
vertex 11.7466825529899 12.1415460053928 -1.03281272423317e-013
endloop
endfacet
facet normal -0.975038301919578 -0.222036730722161 -3.75356757400514e-016
outer loop
vertex 0.247866307132238 62.6367331304267 3.03788746965189
vertex 11.7466825529899 12.1415460053928 -1.03281272423317e-013
vertex 11.7466825529899 12.1415460053928 4.99999999999968
endloop
endfacet
facet normal -0.975038301919578 -0.222036730722161 -3.75356757400514e-016
outer loop
vertex 11.7466825529899 12.1415460053928 -1.03281272423317e-013
vertex 0.247866307132238 62.6367331304267 3.03788746965189
vertex 0.247866307132227 62.6367331304267 2.27712293465743e-013
endloop
endfacet
facet normal -0.00980599871665407 0.0365964854294874 0.999282012068354
outer loop
vertex 11.7466825529899 12.1415460053928 4.99999999999968
vertex 3.18242610037981 63.4223027413647 3.03791469194315
vertex 0.247866307132238 62.6367331304267 3.03788746965189
endloop
endfacet
facet normal -0.00980599871665407 0.0365964854294874 0.999282012068354
outer loop
vertex 3.18242610037981 63.4223027413647 3.03791469194315
vertex 11.7466825529899 12.1415460053928 4.99999999999968
vertex 16.5763116844352 13.4356412309054 4.9999999999997
endloop
endfacet
facet normal 0.0 -1.0 -1.38777878078145e-017
outer loop
vertex 48.5347259391694 1.12798659301916e-014 2.95792609530857
vertex 26.1747183158436 -1.12798659301916e-014 2.9
vertex 48.9747183158436 1.12798659301916e-014 2.89999999999998
endloop
endfacet
facet normal 0.0 -1.0 -1.38777878078145e-017
outer loop
vertex 26.1747183158436 -1.12798659301916e-014 2.9
vertex 48.5347259391694 1.12798659301916e-014 2.95792609530857
vertex 26.6147106925179 -1.12798659301916e-014 2.95792609530859
endloop
endfacet
facet normal 0.0 -1.0 -1.38777878078145e-017
outer loop
vertex 26.6147106925179 -1.12798659301916e-014 2.95792609530859
vertex 48.5347259391694 1.12798659301916e-014 2.95792609530857
vertex 48.1247183158436 1.12798659301916e-014 3.12775681356644
endloop
endfacet
facet normal 0.0 -1.0 -1.38777878078145e-017
outer loop
vertex 26.6147106925179 -1.12798659301916e-014 2.95792609530859
vertex 48.1247183158436 1.12798659301916e-014 3.12775681356644
vertex 27.0247183158436 -1.12798659301916e-014 3.12775681356646
endloop
endfacet
facet normal 0.0 -1.0 -1.38777878078145e-017
outer loop
vertex 27.0247183158436 -1.12798659301916e-014 3.12775681356646
vertex 48.1247183158436 1.12798659301916e-014 3.12775681356644
vertex 47.7726367878265 1.12798659301916e-014 3.39791847198286
endloop
endfacet
facet normal 0.0 -1.0 -1.38777878078145e-017
outer loop
vertex 27.0247183158436 -1.12798659301916e-014 3.12775681356646
vertex 47.7726367878265 1.12798659301916e-014 3.39791847198286
vertex 27.3767998438607 -1.12798659301916e-014 3.39791847198289
endloop
endfacet
facet normal 0.0 -1.0 -1.38777878078145e-017
outer loop
vertex 27.3767998438607 -1.12798659301916e-014 3.39791847198289
vertex 47.7726367878265 1.12798659301916e-014 3.39791847198286
vertex 47.5024751294101 1.12798659301916e-014 3.74999999999998
endloop
endfacet
facet normal 0.0 -1.0 -1.38777878078145e-017
outer loop
vertex 27.3767998438607 -1.12798659301916e-014 3.39791847198289
vertex 47.5024751294101 1.12798659301916e-014 3.74999999999998
vertex 27.6469615022771 -1.12798659301916e-014 3.75
endloop
endfacet
facet normal 0.0 -1.0 -1.38777878078145e-017
outer loop
vertex 27.6469615022771 -1.12798659301916e-014 3.75
vertex 47.5024751294101 1.12798659301916e-014 3.74999999999998
vertex 47.3326444111522 1.12798659301916e-014 4.16000762332569
endloop
endfacet
facet normal 0.0 -1.0 -1.38777878078145e-017
outer loop
vertex 27.6469615022771 -1.12798659301916e-014 3.75
vertex 47.3326444111522 1.12798659301916e-014 4.16000762332569
vertex 27.816792220535 -1.12798659301916e-014 4.16000762332571
endloop
endfacet
facet normal 0.0 -1.0 -1.38777878078145e-017
outer loop
vertex 27.816792220535 -1.12798659301916e-014 4.16000762332571
vertex 47.3326444111522 1.12798659301916e-014 4.16000762332569
vertex 47.2747183158437 1.12798659301916e-014 4.59999999999998
endloop
endfacet
facet normal 0.0 -1.0 -1.38777878078145e-017
outer loop
vertex 27.816792220535 -1.12798659301916e-014 4.16000762332571
vertex 47.2747183158437 1.12798659301916e-014 4.59999999999998
vertex 27.8747183158436 -1.12798659301916e-014 4.60000000000001
endloop
endfacet
facet normal 0.0 -1.0 -1.38777878078145e-017
outer loop
vertex 27.8747183158436 -1.12798659301916e-014 4.60000000000001
vertex 47.2747183158437 1.12798659301916e-014 4.59999999999998
vertex 47.3326444111522 1.12798659301916e-014 5.03999237667427
endloop
endfacet
facet normal 0.0 -1.0 -1.38777878078145e-017
outer loop
vertex 27.8747183158436 -1.12798659301916e-014 4.60000000000001
vertex 47.3326444111522 1.12798659301916e-014 5.03999237667427
vertex 27.816792220535 -1.12798659301916e-014 5.03999237667429
endloop
endfacet
facet normal 0.0 -1.0 -1.38777878078145e-017
outer loop
vertex 27.816792220535 -1.12798659301916e-014 5.03999237667429
vertex 47.3326444111522 1.12798659301916e-014 5.03999237667427
vertex 47.5024751294101 1.12798659301916e-014 5.44999999999998
endloop
endfacet
facet normal 0.0 -1.0 -1.38777878078145e-017
outer loop
vertex 27.816792220535 -1.12798659301916e-014 5.03999237667429
vertex 47.5024751294101 1.12798659301916e-014 5.44999999999998
vertex 27.6469615022771 -1.12798659301916e-014 5.45
endloop
endfacet
facet normal 0.0 -1.0 -1.38777878078145e-017
outer loop
vertex 27.6469615022771 -1.12798659301916e-014 5.45
vertex 47.5024751294101 1.12798659301916e-014 5.44999999999998
vertex 47.7726367878265 1.12798659301916e-014 5.8020815280171
endloop
endfacet
facet normal 0.0 -1.0 -1.38777878078145e-017
outer loop
vertex 27.6469615022771 -1.12798659301916e-014 5.45
vertex 47.7726367878265 1.12798659301916e-014 5.8020815280171
vertex 27.3767998438607 -1.12798659301916e-014 5.80208152801713
endloop
endfacet
facet normal 0.0 -1.0 -1.38777878078145e-017
outer loop
vertex 27.3767998438607 -1.12798659301916e-014 5.80208152801713
vertex 47.7726367878265 1.12798659301916e-014 5.8020815280171
vertex 48.1247183158436 1.12798659301916e-014 6.07224318643352
endloop
endfacet
facet normal 0.0 -1.0 -1.38777878078145e-017
outer loop
vertex 27.3767998438607 -1.12798659301916e-014 5.80208152801713
vertex 48.1247183158436 1.12798659301916e-014 6.07224318643352
vertex 27.0247183158436 -1.12798659301916e-014 6.07224318643354
endloop
endfacet
facet normal 0.0 -1.0 -1.38777878078145e-017
outer loop
vertex 27.0247183158436 -1.12798659301916e-014 6.07224318643354
vertex 48.1247183158436 1.12798659301916e-014 6.07224318643352
vertex 48.5347259391693 1.12798659301916e-014 6.2420739046914
endloop
endfacet
facet normal 0.0 -1.0 -1.38777878078145e-017
outer loop
vertex 27.0247183158436 -1.12798659301916e-014 6.07224318643354
vertex 48.5347259391693 1.12798659301916e-014 6.2420739046914
vertex 26.6147106925179 -1.12798659301916e-014 6.2420739046914
endloop
endfacet
facet normal 0.0 -1.0 -1.38777878078145e-017
outer loop
vertex 26.6147106925179 -1.12798659301916e-014 6.2420739046914
vertex 48.5347259391693 1.12798659301916e-014 6.2420739046914
vertex 48.9747183158436 1.12798659301916e-014 6.29999999999999
endloop
endfacet
facet normal 0.0 -1.0 -1.38777878078145e-017
outer loop
vertex 26.6147106925179 -1.12798659301916e-014 6.2420739046914
vertex 48.9747183158436 1.12798659301916e-014 6.29999999999999
vertex 26.1747183158436 -1.12798659301916e-014 6.29999999999998
endloop
endfacet
facet normal 0.0 -1.0 -1.38777878078145e-017
outer loop
vertex 53.4179771167734 1.12798659301916e-014 3.40943239252839
vertex 48.9747183158436 1.12798659301916e-014 2.89999999999998
vertex 52.958435173252 1.12798659301916e-014 2.30000000000001
endloop
endfacet
facet normal 0.0 -1.0 -1.38777878078145e-017
outer loop
vertex 48.9747183158436 1.12798659301916e-014 2.89999999999998
vertex 53.4179771167734 1.12798659301916e-014 3.40943239252839
vertex 49.4147106925179 1.12798659301916e-014 2.95792609530857
endloop
endfacet
facet normal 0.0 -1.0 -1.38777878078145e-017
outer loop
vertex 49.4147106925179 1.12798659301916e-014 2.95792609530857
vertex 53.4179771167734 1.12798659301916e-014 3.40943239252839
vertex 49.8247183158436 1.12798659301916e-014 3.12775681356644
endloop
endfacet
facet normal 0.0 -1.0 -1.38777878078145e-017
outer loop
vertex 49.8247183158436 1.12798659301916e-014 3.12775681356644
vertex 53.4179771167734 1.12798659301916e-014 3.40943239252839
vertex 50.1767998438608 1.12798659301916e-014 3.39791847198284
endloop
endfacet
facet normal 0.0 -1.0 -1.38777878078145e-017
outer loop
vertex 50.1767998438608 1.12798659301916e-014 3.39791847198284
vertex 53.4179771167734 1.12798659301916e-014 3.40943239252839
vertex 50.4469615022772 1.12798659301916e-014 3.74999999999998
endloop
endfacet
facet normal 0.0 -1.0 -1.38777878078145e-017
outer loop
vertex 50.4469615022772 1.12798659301916e-014 3.74999999999998
vertex 53.4179771167734 1.12798659301916e-014 3.40943239252839
vertex 53.5747183158436 1.12798659301916e-014 4.6
endloop
endfacet
facet normal 0.0 -1.0 -1.38777878078145e-017
outer loop
vertex 50.4469615022772 1.12798659301916e-014 3.74999999999998
vertex 53.5747183158436 1.12798659301916e-014 4.6
vertex 50.6167922205351 1.12798659301916e-014 4.1600076233257
endloop
endfacet
facet normal 0.0 -1.0 -1.38777878078145e-017
outer loop
vertex 50.6167922205351 1.12798659301916e-014 4.1600076233257
vertex 53.5747183158436 1.12798659301916e-014 4.6
vertex 50.6747183158437 1.12798659301916e-014 4.59999999999997
endloop
endfacet
facet normal 0.0 -1.0 -1.38777878078145e-017
outer loop
vertex 50.6747183158437 1.12798659301916e-014 4.59999999999997
vertex 53.5747183158436 1.12798659301916e-014 4.6
vertex 50.6167922205351 1.12798659301916e-014 5.03999237667426
endloop
endfacet
facet normal 0.0 -1.0 -1.38777878078145e-017
outer loop
vertex 50.6167922205351 1.12798659301916e-014 5.03999237667426
vertex 53.5747183158436 1.12798659301916e-014 4.6
vertex 53.4179771167733 1.12798659301916e-014 5.79056760747159
endloop
endfacet
facet normal 0.0 -1.0 -1.38777878078145e-017
outer loop
vertex 50.6167922205351 1.12798659301916e-014 5.03999237667426
vertex 53.4179771167733 1.12798659301916e-014 5.79056760747159
vertex 50.4469615022771 1.12798659301916e-014 5.44999999999997
endloop
endfacet
facet normal 0.0 -1.0 -1.38777878078145e-017
outer loop
vertex 50.4469615022771 1.12798659301916e-014 5.44999999999997
vertex 53.4179771167733 1.12798659301916e-014 5.79056760747159
vertex 50.1767998438607 1.12798659301916e-014 5.80208152801711
endloop
endfacet
facet normal 0.0 -1.0 -1.38777878078145e-017
outer loop
vertex 50.1767998438607 1.12798659301916e-014 5.80208152801711
vertex 53.4179771167733 1.12798659301916e-014 5.79056760747159
vertex 52.958435173252 1.12798659301916e-014 6.9
endloop
endfacet
facet normal 0.0 -1.0 -1.38777878078145e-017
outer loop
vertex 50.1767998438607 1.12798659301916e-014 5.80208152801711
vertex 52.958435173252 1.12798659301916e-014 6.9
vertex 49.8247183158436 1.12798659301916e-014 6.07224318643352
endloop
endfacet
facet normal 0.0 -1.0 -1.38777878078145e-017
outer loop
vertex 49.8247183158436 1.12798659301916e-014 6.07224318643352
vertex 52.958435173252 1.12798659301916e-014 6.9
vertex 49.414710692518 1.12798659301916e-014 6.2420739046914
endloop
endfacet
facet normal 0.0 -1.0 -1.38777878078145e-017
outer loop
vertex 49.414710692518 1.12798659301916e-014 6.2420739046914
vertex 52.958435173252 1.12798659301916e-014 6.9
vertex 48.9747183158436 1.12798659301916e-014 6.29999999999999
endloop
endfacet
facet normal 0.0 -1.0 -1.38777878078145e-017
outer loop
vertex 24.5326444111522 -1.12798659301916e-014 5.03999237667428
vertex 20.2747183158436 1.12798659301916e-014 4.99999999999998
vertex 24.4747183158436 -1.12798659301916e-014 4.60000000000001
endloop
endfacet
facet normal 0.0 -1.0 -1.38777878078145e-017
outer loop
vertex 20.2747183158436 1.12798659301916e-014 4.99999999999998
vertex 24.5326444111522 -1.12798659301916e-014 5.03999237667428
vertex 24.4747183158436 1.12798659301916e-014 9.19999999999999
endloop
endfacet
facet normal 0.0 -1.0 -1.38777878078145e-017
outer loop
vertex 24.4747183158436 1.12798659301916e-014 9.19999999999999
vertex 24.5326444111522 -1.12798659301916e-014 5.03999237667428
vertex 24.7024751294101 -1.12798659301916e-014 5.45000000000001
endloop
endfacet
facet normal 0.0 -1.0 -1.38777878078145e-017
outer loop
vertex 24.4747183158436 1.12798659301916e-014 9.19999999999999
vertex 24.7024751294101 -1.12798659301916e-014 5.45000000000001
vertex 24.9726367878264 -1.12798659301916e-014 5.80208152801713
endloop
endfacet
facet normal 0.0 -1.0 -1.38777878078145e-017
outer loop
vertex 24.4747183158436 1.12798659301916e-014 9.19999999999999
vertex 24.9726367878264 -1.12798659301916e-014 5.80208152801713
vertex 25.3247183158436 -1.12798659301916e-014 6.07224318643354
endloop
endfacet
facet normal 0.0 -1.0 -1.38777878078145e-017
outer loop
vertex 24.4747183158436 1.12798659301916e-014 9.19999999999999
vertex 25.3247183158436 -1.12798659301916e-014 6.07224318643354
vertex 25.7347259391693 -1.12798659301916e-014 6.2420739046914
endloop
endfacet
facet normal 0.0 -1.0 -1.38777878078145e-017
outer loop
vertex 24.4747183158436 1.12798659301916e-014 9.19999999999999
vertex 25.7347259391693 -1.12798659301916e-014 6.2420739046914
vertex 26.1747183158436 -1.12798659301916e-014 6.29999999999998
endloop
endfacet
facet normal 0.0 -1.0 -1.38777878078145e-017
outer loop
vertex 24.4747183158436 1.12798659301916e-014 9.19999999999999
vertex 26.1747183158436 -1.12798659301916e-014 6.29999999999998
vertex 48.9747183158436 1.12798659301916e-014 6.29999999999999
endloop
endfacet
facet normal 0.0 -1.0 -1.38777878078145e-017
outer loop
vertex 24.4747183158436 1.12798659301916e-014 9.19999999999999
vertex 48.9747183158436 1.12798659301916e-014 6.29999999999999
vertex 52.958435173252 1.12798659301916e-014 6.9
endloop
endfacet
facet normal 0.0 -1.0 -1.38777878078145e-017
outer loop
vertex 24.4747183158436 1.12798659301916e-014 9.19999999999999
vertex 52.958435173252 1.12798659301916e-014 6.9
vertex 52.2274095093017 1.12798659301916e-014 7.8526911934581
endloop
endfacet
facet normal 0.0 -1.0 -1.38777878078145e-017
outer loop
vertex 24.4747183158436 1.12798659301916e-014 9.19999999999999
vertex 52.2274095093017 1.12798659301916e-014 7.8526911934581
vertex 51.2747183158436 1.12798659301916e-014 8.5837168574084
endloop
endfacet
facet normal 0.0 -1.0 -1.38777878078145e-017
outer loop
vertex 24.4747183158436 1.12798659301916e-014 9.19999999999999
vertex 51.2747183158436 1.12798659301916e-014 8.5837168574084
vertex 50.1652859233152 1.12798659301916e-014 9.0432588009297
endloop
endfacet
facet normal 0.0 -1.0 -1.38777878078145e-017
outer loop
vertex 24.4747183158436 1.12798659301916e-014 9.19999999999999
vertex 50.1652859233152 1.12798659301916e-014 9.0432588009297
vertex 48.9747183158436 1.12798659301916e-014 9.19999999999996
endloop
endfacet
facet normal 0.0 -1.0 -1.38777878078145e-017
outer loop
vertex 15.0 1.12798659301916e-014 -3.52495810318487e-016
vertex 25.7347259391693 -1.12798659301916e-014 2.9579260953086
vertex 15.0 1.12798659301916e-014 5.00000000000003
endloop
endfacet
facet normal 0.0 -1.0 -1.38777878078145e-017
outer loop
vertex 25.7347259391693 -1.12798659301916e-014 2.9579260953086
vertex 15.0 1.12798659301916e-014 -3.52495810318487e-016
vertex 26.1747183158436 -1.12798659301916e-014 2.9
endloop
endfacet
facet normal 0.0 -1.0 -1.38777878078145e-017
outer loop
vertex 26.1747183158436 -1.12798659301916e-014 2.9
vertex 15.0 1.12798659301916e-014 -3.52495810318487e-016
vertex 48.9747183158436 1.12798659301916e-014 9.16489106828067e-015
endloop
endfacet
facet normal 0.0 -1.0 -1.38777878078145e-017
outer loop
vertex 26.1747183158436 -1.12798659301916e-014 2.9
vertex 48.9747183158436 1.12798659301916e-014 9.16489106828067e-015
vertex 50.1652859233152 1.12798659301916e-014 0.15674119907028
endloop
endfacet
facet normal 0.0 -1.0 -1.38777878078145e-017
outer loop
vertex 26.1747183158436 -1.12798659301916e-014 2.9
vertex 50.1652859233152 1.12798659301916e-014 0.15674119907028
vertex 51.2747183158436 1.12798659301916e-014 0.616283142591578
endloop
endfacet
facet normal 0.0 -1.0 -1.38777878078145e-017
outer loop
vertex 26.1747183158436 -1.12798659301916e-014 2.9
vertex 51.2747183158436 1.12798659301916e-014 0.616283142591578
vertex 52.2274095093017 1.12798659301916e-014 1.34730880654189
endloop
endfacet
facet normal 0.0 -1.0 -1.38777878078145e-017
outer loop
vertex 26.1747183158436 -1.12798659301916e-014 2.9
vertex 52.2274095093017 1.12798659301916e-014 1.34730880654189
vertex 52.958435173252 1.12798659301916e-014 2.30000000000001
endloop
endfacet
facet normal 0.0 -1.0 -1.38777878078145e-017
outer loop
vertex 26.1747183158436 -1.12798659301916e-014 2.9
vertex 52.958435173252 1.12798659301916e-014 2.30000000000001
vertex 48.9747183158436 1.12798659301916e-014 2.89999999999998
endloop
endfacet
facet normal 0.0 -1.0 -1.38777878078145e-017
outer loop
vertex 15.0 1.12798659301916e-014 5.00000000000003
vertex 25.7347259391693 -1.12798659301916e-014 2.9579260953086
vertex 25.3247183158436 -1.12798659301916e-014 3.12775681356645
endloop
endfacet
facet normal 0.0 -1.0 -1.38777878078145e-017
outer loop
vertex 15.0 1.12798659301916e-014 5.00000000000003
vertex 25.3247183158436 -1.12798659301916e-014 3.12775681356645
vertex 24.9726367878265 -1.12798659301916e-014 3.39791847198286
endloop
endfacet
facet normal 0.0 -1.0 -1.38777878078145e-017
outer loop
vertex 15.0 1.12798659301916e-014 5.00000000000003
vertex 24.9726367878265 -1.12798659301916e-014 3.39791847198286
vertex 24.7024751294101 -1.12798659301916e-014 3.75
endloop
endfacet
facet normal 0.0 -1.0 -1.38777878078145e-017
outer loop
vertex 15.0 1.12798659301916e-014 5.00000000000003
vertex 24.7024751294101 -1.12798659301916e-014 3.75
vertex 24.5326444111522 -1.12798659301916e-014 4.16000762332572
endloop
endfacet
facet normal 0.0 -1.0 -1.38777878078145e-017
outer loop
vertex 15.0 1.12798659301916e-014 5.00000000000003
vertex 24.5326444111522 -1.12798659301916e-014 4.16000762332572
vertex 24.4747183158436 -1.12798659301916e-014 4.60000000000001
endloop
endfacet
facet normal 0.0 -1.0 -1.38777878078145e-017
outer loop
vertex 15.0 1.12798659301916e-014 5.00000000000003
vertex 24.4747183158436 -1.12798659301916e-014 4.60000000000001
vertex 20.2747183158436 1.12798659301916e-014 4.99999999999998
endloop
endfacet
facet normal -6.48092690624935e-015 2.26173543590197e-014 1.0
outer loop
vertex 15.0 1.12798659301916e-014 5.00000000000003
vertex 16.5763116844352 13.4356412309054 4.9999999999997
vertex 11.7466825529899 12.1415460053928 4.99999999999968
endloop
endfacet
facet normal -6.48092690624935e-015 2.26173543590197e-014 1.0
outer loop
vertex 16.5763116844352 13.4356412309054 4.9999999999997
vertex 15.0 1.12798659301916e-014 5.00000000000003
vertex 19.1045841323261 4.00000000000002 4.99999999999994
endloop
endfacet
facet normal -6.48092690624935e-015 2.26173543590197e-014 1.0
outer loop
vertex 19.1045841323261 4.00000000000002 4.99999999999994
vertex 15.0 1.12798659301916e-014 5.00000000000003
vertex 20.2747183158436 1.12798659301916e-014 4.99999999999998
endloop
endfacet
facet normal -6.48092690624935e-015 2.26173543590197e-014 1.0
outer loop
vertex 19.1045841323261 4.00000000000002 4.99999999999994
vertex 20.2747183158436 1.12798659301916e-014 4.99999999999998
vertex 20.2747183158436 4.00000000000002 4.99999999999998
endloop
endfacet
facet normal 0.0 1.0 1.38777878078145e-017
outer loop
vertex 19.1045841323262 4.00000000000002 -9.16489106828067e-014
vertex 26.1747183158436 3.99999999999999 2.9
vertex 48.9747183158436 4.00000000000002 9.51738687859915e-015
endloop
endfacet
facet normal 0.0 1.0 1.38777878078145e-017
outer loop
vertex 26.1747183158436 3.99999999999999 2.9
vertex 19.1045841323262 4.00000000000002 -9.16489106828067e-014
vertex 25.7347259391693 3.99999999999999 2.9579260953086
endloop
endfacet
facet normal 0.0 1.0 1.38777878078145e-017
outer loop
vertex 25.7347259391693 3.99999999999999 2.9579260953086
vertex 19.1045841323262 4.00000000000002 -9.16489106828067e-014
vertex 19.1045841323261 4.00000000000002 4.99999999999994
endloop
endfacet
facet normal 0.0 1.0 1.38777878078145e-017
outer loop
vertex 48.9747183158436 4.00000000000002 9.51738687859915e-015
vertex 26.1747183158436 3.99999999999999 2.9
vertex 50.1652859233152 4.00000000000002 0.15674119907028
endloop
endfacet
facet normal 0.0 1.0 1.38777878078145e-017
outer loop
vertex 50.1652859233152 4.00000000000002 0.15674119907028
vertex 26.1747183158436 3.99999999999999 2.9
vertex 51.2747183158436 4.00000000000002 0.616283142591579
endloop
endfacet
facet normal 0.0 1.0 1.38777878078145e-017
outer loop
vertex 51.2747183158436 4.00000000000002 0.616283142591579
vertex 26.1747183158436 3.99999999999999 2.9
vertex 52.2274095093017 4.00000000000002 1.34730880654189
endloop
endfacet
facet normal 0.0 1.0 1.38777878078145e-017
outer loop
vertex 52.2274095093017 4.00000000000002 1.34730880654189
vertex 26.1747183158436 3.99999999999999 2.9
vertex 52.958435173252 4.00000000000002 2.30000000000001
endloop
endfacet
facet normal 0.0 1.0 1.38777878078145e-017
outer loop
vertex 52.958435173252 4.00000000000002 2.30000000000001
vertex 26.1747183158436 3.99999999999999 2.9
vertex 48.9747183158436 4.00000000000002 2.89999999999998
endloop
endfacet
facet normal 0.0 1.0 1.38777878078145e-017
outer loop
vertex 25.7347259391693 3.99999999999999 2.9579260953086
vertex 19.1045841323261 4.00000000000002 4.99999999999994
vertex 25.3247183158436 3.99999999999999 3.12775681356645
endloop
endfacet
facet normal 0.0 1.0 1.38777878078145e-017
outer loop
vertex 25.3247183158436 3.99999999999999 3.12775681356645
vertex 19.1045841323261 4.00000000000002 4.99999999999994
vertex 24.9726367878265 3.99999999999999 3.39791847198286
endloop
endfacet
facet normal 0.0 1.0 1.38777878078145e-017
outer loop
vertex 24.9726367878265 3.99999999999999 3.39791847198286
vertex 19.1045841323261 4.00000000000002 4.99999999999994
vertex 24.7024751294101 3.99999999999999 3.75
endloop
endfacet
facet normal 0.0 1.0 1.38777878078145e-017
outer loop
vertex 24.7024751294101 3.99999999999999 3.75
vertex 19.1045841323261 4.00000000000002 4.99999999999994
vertex 24.5326444111522 3.99999999999999 4.16000762332572
endloop
endfacet
facet normal 0.0 1.0 1.38777878078145e-017
outer loop
vertex 24.5326444111522 3.99999999999999 4.16000762332572
vertex 19.1045841323261 4.00000000000002 4.99999999999994
vertex 24.4747183158436 3.99999999999999 4.60000000000001
endloop
endfacet
facet normal 0.0 1.0 1.38777878078145e-017
outer loop
vertex 24.4747183158436 3.99999999999999 4.60000000000001
vertex 19.1045841323261 4.00000000000002 4.99999999999994
vertex 20.2747183158436 4.00000000000002 4.99999999999998
endloop
endfacet
facet normal 0.0 1.0 1.38777878078145e-017
outer loop
vertex 24.4747183158436 3.99999999999999 4.60000000000001
vertex 20.2747183158436 4.00000000000002 4.99999999999998
vertex 24.5326444111522 3.99999999999999 5.03999237667428
endloop
endfacet
facet normal 0.0 1.0 1.38777878078145e-017
outer loop
vertex 24.5326444111522 3.99999999999999 5.03999237667428
vertex 20.2747183158436 4.00000000000002 4.99999999999998
vertex 24.4747183158436 4.00000000000002 9.19999999999999
endloop
endfacet
facet normal 0.0 1.0 1.38777878078145e-017
outer loop
vertex 24.5326444111522 3.99999999999999 5.03999237667428
vertex 24.4747183158436 4.00000000000002 9.19999999999999
vertex 24.7024751294101 3.99999999999999 5.45000000000001
endloop
endfacet
facet normal 0.0 1.0 1.38777878078145e-017
outer loop
vertex 24.7024751294101 3.99999999999999 5.45000000000001
vertex 24.4747183158436 4.00000000000002 9.19999999999999
vertex 24.9726367878264 3.99999999999999 5.80208152801713
endloop
endfacet
facet normal 0.0 1.0 1.38777878078145e-017
outer loop
vertex 24.9726367878264 3.99999999999999 5.80208152801713
vertex 24.4747183158436 4.00000000000002 9.19999999999999
vertex 25.3247183158436 3.99999999999999 6.07224318643354
endloop
endfacet
facet normal 0.0 1.0 1.38777878078145e-017
outer loop
vertex 25.3247183158436 3.99999999999999 6.07224318643354
vertex 24.4747183158436 4.00000000000002 9.19999999999999
vertex 25.7347259391693 3.99999999999999 6.2420739046914
endloop
endfacet
facet normal 0.0 1.0 1.38777878078145e-017
outer loop
vertex 25.7347259391693 3.99999999999999 6.2420739046914
vertex 24.4747183158436 4.00000000000002 9.19999999999999
vertex 26.1747183158436 3.99999999999999 6.29999999999998
endloop
endfacet
facet normal 0.0 1.0 1.38777878078145e-017
outer loop
vertex 26.1747183158436 3.99999999999999 6.29999999999998
vertex 24.4747183158436 4.00000000000002 9.19999999999999
vertex 48.9747183158436 4.00000000000002 6.29999999999999
endloop
endfacet
facet normal 0.0 1.0 1.38777878078145e-017
outer loop
vertex 48.9747183158436 4.00000000000002 6.29999999999999
vertex 24.4747183158436 4.00000000000002 9.19999999999999
vertex 52.958435173252 4.00000000000002 6.9
endloop
endfacet
facet normal 0.0 1.0 1.38777878078145e-017
outer loop
vertex 52.958435173252 4.00000000000002 6.9
vertex 24.4747183158436 4.00000000000002 9.19999999999999
vertex 52.2274095093017 4.00000000000002 7.8526911934581
endloop
endfacet
facet normal 0.0 1.0 1.38777878078145e-017
outer loop
vertex 52.2274095093017 4.00000000000002 7.8526911934581
vertex 24.4747183158436 4.00000000000002 9.19999999999999
vertex 51.2747183158436 4.00000000000002 8.5837168574084
endloop
endfacet
facet normal 0.0 1.0 1.38777878078145e-017
outer loop
vertex 51.2747183158436 4.00000000000002 8.5837168574084
vertex 24.4747183158436 4.00000000000002 9.19999999999999
vertex 50.1652859233152 4.00000000000002 9.0432588009297
endloop
endfacet
facet normal 0.0 1.0 1.38777878078145e-017
outer loop
vertex 50.1652859233152 4.00000000000002 9.0432588009297
vertex 24.4747183158436 4.00000000000002 9.19999999999999
vertex 48.9747183158436 4.00000000000002 9.19999999999996
endloop
endfacet
facet normal 0.0 1.0 1.38777878078145e-017
outer loop
vertex 48.9747183158436 4.00000000000002 2.89999999999998
vertex 53.4179771167734 4.00000000000002 3.40943239252839
vertex 52.958435173252 4.00000000000002 2.30000000000001
endloop
endfacet
facet normal 0.0 1.0 1.38777878078145e-017
outer loop
vertex 53.4179771167734 4.00000000000002 3.40943239252839
vertex 48.9747183158436 4.00000000000002 2.89999999999998
vertex 49.4147106925179 4.00000000000002 2.95792609530857
endloop
endfacet
facet normal 0.0 1.0 1.38777878078145e-017
outer loop
vertex 53.4179771167734 4.00000000000002 3.40943239252839
vertex 49.4147106925179 4.00000000000002 2.95792609530857
vertex 49.8247183158436 4.00000000000002 3.12775681356644
endloop
endfacet
facet normal 0.0 1.0 1.38777878078145e-017
outer loop
vertex 53.4179771167734 4.00000000000002 3.40943239252839
vertex 49.8247183158436 4.00000000000002 3.12775681356644
vertex 50.1767998438608 4.00000000000002 3.39791847198284
endloop
endfacet
facet normal 0.0 1.0 1.38777878078145e-017
outer loop
vertex 53.4179771167734 4.00000000000002 3.40943239252839
vertex 50.1767998438608 4.00000000000002 3.39791847198284
vertex 50.4469615022772 4.00000000000002 3.74999999999998
endloop
endfacet
facet normal 0.0 1.0 1.38777878078145e-017
outer loop
vertex 53.4179771167734 4.00000000000002 3.40943239252839
vertex 50.4469615022772 4.00000000000002 3.74999999999998
vertex 53.5747183158436 4.00000000000002 4.6
endloop
endfacet
facet normal 0.0 1.0 1.38777878078145e-017
outer loop
vertex 53.5747183158436 4.00000000000002 4.6
vertex 50.4469615022772 4.00000000000002 3.74999999999998
vertex 50.6167922205351 4.00000000000002 4.1600076233257
endloop
endfacet
facet normal 0.0 1.0 1.38777878078145e-017
outer loop
vertex 53.5747183158436 4.00000000000002 4.6
vertex 50.6167922205351 4.00000000000002 4.1600076233257
vertex 50.6747183158437 4.00000000000002 4.59999999999997
endloop
endfacet
facet normal 0.0 1.0 1.38777878078145e-017
outer loop
vertex 53.5747183158436 4.00000000000002 4.6
vertex 50.6747183158437 4.00000000000002 4.59999999999997
vertex 50.6167922205351 4.00000000000002 5.03999237667426
endloop
endfacet
facet normal 0.0 1.0 1.38777878078145e-017
outer loop
vertex 53.5747183158436 4.00000000000002 4.6
vertex 50.6167922205351 4.00000000000002 5.03999237667426
vertex 53.4179771167733 4.00000000000002 5.79056760747159
endloop
endfacet
facet normal 0.0 1.0 1.38777878078145e-017
outer loop
vertex 53.4179771167733 4.00000000000002 5.79056760747159
vertex 50.6167922205351 4.00000000000002 5.03999237667426
vertex 50.4469615022771 4.00000000000002 5.44999999999997
endloop
endfacet
facet normal 0.0 1.0 1.38777878078145e-017
outer loop
vertex 53.4179771167733 4.00000000000002 5.79056760747159
vertex 50.4469615022771 4.00000000000002 5.44999999999997
vertex 50.1767998438607 4.00000000000002 5.80208152801711
endloop
endfacet
facet normal 0.0 1.0 1.38777878078145e-017
outer loop
vertex 53.4179771167733 4.00000000000002 5.79056760747159
vertex 50.1767998438607 4.00000000000002 5.80208152801711
vertex 52.958435173252 4.00000000000002 6.9
endloop
endfacet
facet normal 0.0 1.0 1.38777878078145e-017
outer loop
vertex 52.958435173252 4.00000000000002 6.9
vertex 50.1767998438607 4.00000000000002 5.80208152801711
vertex 49.8247183158436 4.00000000000002 6.07224318643352
endloop
endfacet
facet normal 0.0 1.0 1.38777878078145e-017
outer loop
vertex 52.958435173252 4.00000000000002 6.9
vertex 49.8247183158436 4.00000000000002 6.07224318643352
vertex 49.414710692518 4.00000000000002 6.2420739046914
endloop
endfacet
facet normal 0.0 1.0 1.38777878078145e-017
outer loop
vertex 52.958435173252 4.00000000000002 6.9
vertex 49.414710692518 4.00000000000002 6.2420739046914
vertex 48.9747183158436 4.00000000000002 6.29999999999999
endloop
endfacet
facet normal 0.0 1.0 1.38777878078145e-017
outer loop
vertex 26.1747183158436 3.99999999999999 2.9
vertex 48.5347259391694 4.00000000000002 2.95792609530857
vertex 48.9747183158436 4.00000000000002 2.89999999999998
endloop
endfacet
facet normal 0.0 1.0 1.38777878078145e-017
outer loop
vertex 48.5347259391694 4.00000000000002 2.95792609530857
vertex 26.1747183158436 3.99999999999999 2.9
vertex 26.6147106925179 3.99999999999999 2.95792609530859
endloop
endfacet
facet normal 0.0 1.0 1.38777878078145e-017
outer loop
vertex 48.5347259391694 4.00000000000002 2.95792609530857
vertex 26.6147106925179 3.99999999999999 2.95792609530859
vertex 48.1247183158436 4.00000000000002 3.12775681356644
endloop
endfacet
facet normal 0.0 1.0 1.38777878078145e-017
outer loop
vertex 48.1247183158436 4.00000000000002 3.12775681356644
vertex 26.6147106925179 3.99999999999999 2.95792609530859
vertex 27.0247183158436 3.99999999999999 3.12775681356646
endloop
endfacet
facet normal 0.0 1.0 1.38777878078145e-017
outer loop
vertex 48.1247183158436 4.00000000000002 3.12775681356644
vertex 27.0247183158436 3.99999999999999 3.12775681356646
vertex 47.7726367878265 4.00000000000002 3.39791847198286
endloop
endfacet
facet normal 0.0 1.0 1.38777878078145e-017
outer loop
vertex 47.7726367878265 4.00000000000002 3.39791847198286
vertex 27.0247183158436 3.99999999999999 3.12775681356646
vertex 27.3767998438607 3.99999999999999 3.39791847198289
endloop
endfacet
facet normal 0.0 1.0 1.38777878078145e-017
outer loop
vertex 47.7726367878265 4.00000000000002 3.39791847198286
vertex 27.3767998438607 3.99999999999999 3.39791847198289
vertex 47.5024751294101 4.00000000000002 3.74999999999998
endloop
endfacet
facet normal 0.0 1.0 1.38777878078145e-017
outer loop
vertex 47.5024751294101 4.00000000000002 3.74999999999998
vertex 27.3767998438607 3.99999999999999 3.39791847198289
vertex 27.6469615022771 3.99999999999999 3.75
endloop
endfacet
facet normal 0.0 1.0 1.38777878078145e-017
outer loop
vertex 47.5024751294101 4.00000000000002 3.74999999999998
vertex 27.6469615022771 3.99999999999999 3.75
vertex 47.3326444111522 4.00000000000002 4.16000762332569
endloop
endfacet
facet normal 0.0 1.0 1.38777878078145e-017
outer loop
vertex 47.3326444111522 4.00000000000002 4.16000762332569
vertex 27.6469615022771 3.99999999999999 3.75
vertex 27.816792220535 3.99999999999999 4.16000762332571
endloop
endfacet
facet normal 0.0 1.0 1.38777878078145e-017
outer loop
vertex 47.3326444111522 4.00000000000002 4.16000762332569
vertex 27.816792220535 3.99999999999999 4.16000762332571
vertex 47.2747183158437 4.00000000000002 4.59999999999998
endloop
endfacet
facet normal 0.0 1.0 1.38777878078145e-017
outer loop
vertex 47.2747183158437 4.00000000000002 4.59999999999998
vertex 27.816792220535 3.99999999999999 4.16000762332571
vertex 27.8747183158436 3.99999999999999 4.60000000000001
endloop
endfacet
facet normal 0.0 1.0 1.38777878078145e-017
outer loop
vertex 47.2747183158437 4.00000000000002 4.59999999999998
vertex 27.8747183158436 3.99999999999999 4.60000000000001
vertex 47.3326444111522 4.00000000000002 5.03999237667427
endloop
endfacet
facet normal 0.0 1.0 1.38777878078145e-017
outer loop
vertex 47.3326444111522 4.00000000000002 5.03999237667427
vertex 27.8747183158436 3.99999999999999 4.60000000000001
vertex 27.816792220535 3.99999999999999 5.03999237667429
endloop
endfacet
facet normal 0.0 1.0 1.38777878078145e-017
outer loop
vertex 47.3326444111522 4.00000000000002 5.03999237667427
vertex 27.816792220535 3.99999999999999 5.03999237667429
vertex 47.5024751294101 4.00000000000002 5.44999999999998
endloop
endfacet
facet normal 0.0 1.0 1.38777878078145e-017
outer loop
vertex 47.5024751294101 4.00000000000002 5.44999999999998
vertex 27.816792220535 3.99999999999999 5.03999237667429
vertex 27.6469615022771 3.99999999999999 5.45
endloop
endfacet
facet normal 0.0 1.0 1.38777878078145e-017
outer loop
vertex 47.5024751294101 4.00000000000002 5.44999999999998
vertex 27.6469615022771 3.99999999999999 5.45
vertex 47.7726367878265 4.00000000000002 5.8020815280171
endloop
endfacet
facet normal 0.0 1.0 1.38777878078145e-017
outer loop
vertex 47.7726367878265 4.00000000000002 5.8020815280171
vertex 27.6469615022771 3.99999999999999 5.45
vertex 27.3767998438607 3.99999999999999 5.80208152801713
endloop
endfacet
facet normal 0.0 1.0 1.38777878078145e-017
outer loop
vertex 47.7726367878265 4.00000000000002 5.8020815280171
vertex 27.3767998438607 3.99999999999999 5.80208152801713
vertex 48.1247183158436 4.00000000000002 6.07224318643352
endloop
endfacet
facet normal 0.0 1.0 1.38777878078145e-017
outer loop
vertex 48.1247183158436 4.00000000000002 6.07224318643352
vertex 27.3767998438607 3.99999999999999 5.80208152801713
vertex 27.0247183158436 3.99999999999999 6.07224318643354
endloop
endfacet
facet normal 0.0 1.0 1.38777878078145e-017
outer loop
vertex 48.1247183158436 4.00000000000002 6.07224318643352
vertex 27.0247183158436 3.99999999999999 6.07224318643354
vertex 48.5347259391693 4.00000000000002 6.2420739046914
endloop
endfacet
facet normal 0.0 1.0 1.38777878078145e-017
outer loop
vertex 48.5347259391693 4.00000000000002 6.2420739046914
vertex 27.0247183158436 3.99999999999999 6.07224318643354
vertex 26.6147106925179 3.99999999999999 6.2420739046914
endloop
endfacet
facet normal 0.0 1.0 1.38777878078145e-017
outer loop
vertex 48.5347259391693 4.00000000000002 6.2420739046914
vertex 26.6147106925179 3.99999999999999 6.2420739046914
vertex 48.9747183158436 4.00000000000002 6.29999999999999
endloop
endfacet
facet normal 0.0 1.0 1.38777878078145e-017
outer loop
vertex 48.9747183158436 4.00000000000002 6.29999999999999
vertex 26.6147106925179 3.99999999999999 6.2420739046914
vertex 26.1747183158436 3.99999999999999 6.29999999999998
endloop
endfacet
facet normal -0.707106781186549 -9.81307786677358e-018 0.707106781186546
outer loop
vertex 24.4747183158436 4.00000000000002 9.19999999999999
vertex 20.2747183158436 1.12798659301916e-014 4.99999999999998
vertex 24.4747183158436 1.12798659301916e-014 9.19999999999999
endloop
endfacet
facet normal -0.707106781186549 -9.81307786677358e-018 0.707106781186546
outer loop
vertex 20.2747183158436 1.12798659301916e-014 4.99999999999998
vertex 24.4747183158436 4.00000000000002 9.19999999999999
vertex 20.2747183158436 4.00000000000002 4.99999999999998
endloop
endfacet
facet normal -0.258819045102519 0.965925826289069 4.49854310067515e-015
outer loop
vertex 0.991755402699142 63.8705904774488 1.00000000000003
vertex 1.95768122898825 64.1294095225513 2.0
vertex 1.95768122898824 64.1294095225513 1.00000000000002
endloop
endfacet
facet normal -0.258819045102519 0.965925826289069 4.49854310067515e-015
outer loop
vertex 1.95768122898825 64.1294095225513 2.0
vertex 0.991755402699142 63.8705904774488 1.00000000000003
vertex 0.991755402699153 63.8705904774488 2.00000000000002
endloop
endfacet
facet normal 2.09554595897998e-015 3.72137665413237e-015 -1.0
outer loop
vertex 3.18224027142896 63.4229962644509 4.58244553414033e-014
vertex 11.7466825529899 12.1415460053928 -1.03281272423317e-013
vertex 0.247866307132227 62.6367331304267 2.27712293465743e-013
endloop
endfacet
facet normal 2.09554595897998e-015 3.72137665413237e-015 -1.0
outer loop
vertex 11.7466825529899 12.1415460053928 -1.03281272423317e-013
vertex 3.18224027142896 63.4229962644509 4.58244553414033e-014
vertex 19.1045841323262 4.00000000000002 -9.16489106828067e-014
endloop
endfacet
facet normal 2.09554595897998e-015 3.72137665413237e-015 -1.0
outer loop
vertex 11.7466825529899 12.1415460053928 -1.03281272423317e-013
vertex 19.1045841323262 4.00000000000002 -9.16489106828067e-014
vertex 15.0 1.12798659301916e-014 -3.52495810318487e-016
endloop
endfacet
facet normal 2.09554595897998e-015 3.72137665413237e-015 -1.0
outer loop
vertex 15.0 1.12798659301916e-014 -3.52495810318487e-016
vertex 19.1045841323262 4.00000000000002 -9.16489106828067e-014
vertex 48.9747183158436 1.12798659301916e-014 9.16489106828067e-015
endloop
endfacet
facet normal 2.09554595897998e-015 3.72137665413237e-015 -1.0
outer loop
vertex 48.9747183158436 1.12798659301916e-014 9.16489106828067e-015
vertex 19.1045841323262 4.00000000000002 -9.16489106828067e-014
vertex 48.9747183158436 4.00000000000002 9.51738687859915e-015
endloop
endfacet
facet normal -0.183078414136685 0.683257943327113 -0.706852797375522
outer loop
vertex 0.991755402699142 63.8705904774488 1.00000000000003
vertex 3.18224027142896 63.4229962644509 4.58244553414033e-014
vertex 0.247866307132227 62.6367331304267 2.27712293465743e-013
endloop
endfacet
facet normal -0.183078414136685 0.683257943327113 -0.706852797375522
outer loop
vertex 3.18224027142896 63.4229962644509 4.58244553414033e-014
vertex 0.991755402699142 63.8705904774488 1.00000000000003
vertex 1.95768122898824 64.1294095225513 1.00000000000002
endloop
endfacet
facet normal -0.186273084493123 0.695752361454764 0.693708144339922
outer loop
vertex 0.991755402699153 63.8705904774488 2.00000000000002
vertex 3.18242610037981 63.4223027413647 3.03791469194315
vertex 1.95768122898825 64.1294095225513 2.0
endloop
endfacet
facet normal -0.186273084493123 0.695752361454764 0.693708144339922
outer loop
vertex 3.18242610037981 63.4223027413647 3.03791469194315
vertex 0.991755402699153 63.8705904774488 2.00000000000002
vertex 0.247866307132238 62.6367331304267 3.03788746965189
endloop
endfacet
facet normal 0.965925826289069 0.25881904510252 1.0783322843393e-014
outer loop
vertex 3.18224027142896 63.4229962644509 4.58244553414033e-014
vertex 19.1045841323261 4.00000000000002 4.99999999999994
vertex 19.1045841323262 4.00000000000002 -9.16489106828067e-014
endloop
endfacet
facet normal 0.965925826289069 0.25881904510252 1.0783322843393e-014
outer loop
vertex 19.1045841323261 4.00000000000002 4.99999999999994
vertex 3.18224027142896 63.4229962644509 4.58244553414033e-014
vertex 16.5763116844352 13.4356412309054 4.9999999999997
endloop
endfacet
facet normal 0.965925826289069 0.25881904510252 1.0783322843393e-014
outer loop
vertex 16.5763116844352 13.4356412309054 4.9999999999997
vertex 3.18224027142896 63.4229962644509 4.58244553414033e-014
vertex 3.18242610037981 63.4223027413647 3.03791469194315
endloop
endfacet
facet normal 0.499842760484419 0.866116153900874 0.000150808730424215
outer loop
vertex 1.95768122898824 64.1294095225513 1.00000000000002
vertex 3.18242610037981 63.4223027413647 3.03791469194315
vertex 3.18224027142896 63.4229962644509 4.58244553414033e-014
endloop
endfacet
facet normal 0.499842760484419 0.866116153900874 0.000150808730424215
outer loop
vertex 3.18242610037981 63.4223027413647 3.03791469194315
vertex 1.95768122898824 64.1294095225513 1.00000000000002
vertex 1.95768122898825 64.1294095225513 2.0
endloop
endfacet
facet normal -0.856396372841025 0.516318944630871 4.6701745850356e-015
outer loop
vertex 0.991755402699153 63.8705904774488 2.00000000000002
vertex 0.247866307132227 62.6367331304267 2.27712293465743e-013
vertex 0.247866307132238 62.6367331304267 3.03788746965189
endloop
endfacet
facet normal -0.856396372841025 0.516318944630871 4.6701745850356e-015
outer loop
vertex 0.247866307132227 62.6367331304267 2.27712293465743e-013
vertex 0.991755402699153 63.8705904774488 2.00000000000002
vertex 0.991755402699142 63.8705904774488 1.00000000000003
endloop
endfacet
endsolid RightFrontLeg
