solid LeftFrontLeg
facet normal 0.856396372841018 0.516318944630882 8.71680041596503e-015
outer loop
vertex 53.3268520087113 62.6367331304268 2.76814959843108e-012
vertex 52.5829629131444 63.8705904774489 2.00000000000259
vertex 53.3268520087114 62.6367331304267 3.03788746965447
endloop
endfacet
facet normal 0.856396372841018 0.516318944630882 8.71680041596503e-015
outer loop
vertex 52.5829629131444 63.8705904774489 2.00000000000259
vertex 53.3268520087113 62.6367331304268 2.76814959843108e-012
vertex 52.5829629131444 63.8705904774489 1.00000000000269
endloop
endfacet
facet normal -0.499842760484418 0.866116153900875 0.000150808730420565
outer loop
vertex 50.3922922154637 63.4223027413648 3.03791469194564
vertex 51.6170370868554 64.1294095225514 1.00000000000266
vertex 50.3924780444147 63.422996264451 2.51188514432954e-012
endloop
endfacet
facet normal -0.499842760484418 0.866116153900875 0.000150808730420565
outer loop
vertex 51.6170370868554 64.1294095225514 1.00000000000266
vertex 50.3922922154637 63.4223027413648 3.03791469194564
vertex 51.6170370868554 64.1294095225514 2.00000000000255
endloop
endfacet
facet normal 0.183078414136719 0.683257943327166 -0.706852797375462
outer loop
vertex 51.6170370868554 64.1294095225514 1.00000000000266
vertex 53.3268520087113 62.6367331304268 2.76814959843108e-012
vertex 50.3924780444147 63.422996264451 2.51188514432954e-012
endloop
endfacet
facet normal 0.183078414136719 0.683257943327166 -0.706852797375462
outer loop
vertex 53.3268520087113 62.6367331304268 2.76814959843108e-012
vertex 51.6170370868554 64.1294095225514 1.00000000000266
vertex 52.5829629131444 63.8705904774489 1.00000000000269
endloop
endfacet
facet normal 0.186273084493096 0.695752361454754 0.693708144339939
outer loop
vertex 50.3922922154637 63.4223027413648 3.03791469194564
vertex 52.5829629131444 63.8705904774489 2.00000000000259
vertex 51.6170370868554 64.1294095225514 2.00000000000255
endloop
endfacet
facet normal 0.186273084493096 0.695752361454754 0.693708144339939
outer loop
vertex 52.5829629131444 63.8705904774489 2.00000000000259
vertex 50.3922922154637 63.4223027413648 3.03791469194564
vertex 53.3268520087114 62.6367331304267 3.03788746965447
endloop
endfacet
facet normal 0.0098059987166235 0.0365964854294715 0.999282012068355
outer loop
vertex 41.8280357628537 12.1415460053928 5.0000000000011
vertex 50.3922922154637 63.4223027413648 3.03791469194564
vertex 36.9984066314085 13.4356412309054 5.000000000001
endloop
endfacet
facet normal 0.0098059987166235 0.0365964854294715 0.999282012068355
outer loop
vertex 50.3922922154637 63.4223027413648 3.03791469194564
vertex 41.8280357628537 12.1415460053928 5.0000000000011
vertex 53.3268520087114 62.6367331304267 3.03788746965447
endloop
endfacet
facet normal 2.71043349699706e-014 1.94285540740589e-014 -1.0
outer loop
vertex 34.4701341835176 4.00000000000013 9.97563143201319e-013
vertex 4.60000000000014 7.89590615113411e-014 1.39235845075802e-013
vertex 4.60000000000014 4.00000000000008 2.06210049036315e-013
endloop
endfacet
facet normal 2.71043349699706e-014 1.94285540740589e-014 -1.0
outer loop
vertex 4.60000000000014 7.89590615113411e-014 1.39235845075802e-013
vertex 34.4701341835176 4.00000000000013 9.97563143201319e-013
vertex 38.5747183158438 1.35358391162299e-013 1.10366438210718e-012
endloop
endfacet
facet normal 2.71043349699706e-014 1.94285540740589e-014 -1.0
outer loop
vertex 38.5747183158438 1.35358391162299e-013 1.10366438210718e-012
vertex 34.4701341835176 4.00000000000013 9.97563143201319e-013
vertex 50.3924780444147 63.422996264451 2.51188514432954e-012
endloop
endfacet
facet normal 2.71043349699706e-014 1.94285540740589e-014 -1.0
outer loop
vertex 38.5747183158438 1.35358391162299e-013 1.10366438210718e-012
vertex 50.3924780444147 63.422996264451 2.51188514432954e-012
vertex 41.8280357628539 12.1415460053929 1.30916943952286e-012
endloop
endfacet
facet normal 2.71043349699706e-014 1.94285540740589e-014 -1.0
outer loop
vertex 41.8280357628539 12.1415460053929 1.30916943952286e-012
vertex 50.3924780444147 63.422996264451 2.51188514432954e-012
vertex 53.3268520087113 62.6367331304268 2.76814959843108e-012
endloop
endfacet
facet normal 0.258819045102515 0.96592582628907 2.40957407268964e-014
outer loop
vertex 51.6170370868554 64.1294095225514 2.00000000000255
vertex 52.5829629131444 63.8705904774489 1.00000000000269
vertex 51.6170370868554 64.1294095225514 1.00000000000266
endloop
endfacet
facet normal 0.258819045102515 0.96592582628907 2.40957407268964e-014
outer loop
vertex 52.5829629131444 63.8705904774489 1.00000000000269
vertex 51.6170370868554 64.1294095225514 2.00000000000255
vertex 52.5829629131444 63.8705904774489 2.00000000000259
endloop
endfacet
facet normal 0.707106781186528 -1.0804916714327e-014 0.707106781186567
outer loop
vertex 29.0999999999999 -3.38395977905748e-014 9.20000000000082
vertex 33.3 4.00000000000005 5.00000000000101
vertex 29.0999999999999 3.99999999999997 9.20000000000089
endloop
endfacet
facet normal 0.707106781186528 -1.0804916714327e-014 0.707106781186567
outer loop
vertex 33.3 4.00000000000005 5.00000000000101
vertex 29.0999999999999 -3.38395977905748e-014 9.20000000000082
vertex 33.3 4.51194637207664e-014 5.00000000000094
endloop
endfacet
facet normal -1.45716771982052e-015 1.0 1.67376274775329e-014
outer loop
vertex 0.156741199070312 4.00000000000003 3.40943239252848
vertex 4.60000000000007 4.00000000000004 2.9000000000002
vertex 0.616283142591665 4.00000000000005 2.30000000000011
endloop
endfacet
facet normal -1.45716771982052e-015 1.0 1.67376274775329e-014
outer loop
vertex 4.60000000000007 4.00000000000004 2.9000000000002
vertex 0.156741199070312 4.00000000000003 3.40943239252848
vertex 4.16000762332575 4.00000000000004 2.95792609530878
endloop
endfacet
facet normal -1.45716771982052e-015 1.0 1.67376274775329e-014
outer loop
vertex 4.16000762332575 4.00000000000004 2.95792609530878
vertex 0.156741199070312 4.00000000000003 3.40943239252848
vertex 3.75000000000002 4.00000000000004 3.12775681356666
endloop
endfacet
facet normal -1.45716771982052e-015 1.0 1.67376274775329e-014
outer loop
vertex 3.75000000000002 4.00000000000004 3.12775681356666
vertex 0.156741199070312 4.00000000000003 3.40943239252848
vertex 3.39791847198293 4.00000000000003 3.39791847198305
endloop
endfacet
facet normal -1.45716771982052e-015 1.0 1.67376274775329e-014
outer loop
vertex 3.39791847198293 4.00000000000003 3.39791847198305
vertex 0.156741199070312 4.00000000000003 3.40943239252848
vertex 3.12775681356649 4.00000000000003 3.75000000000017
endloop
endfacet
facet normal -1.45716771982052e-015 1.0 1.67376274775329e-014
outer loop
vertex 3.12775681356649 4.00000000000003 3.75000000000017
vertex 0.156741199070312 4.00000000000003 3.40943239252848
vertex -6.84438910767987e-015 4.0 4.60000000000007
endloop
endfacet
facet normal -1.45716771982052e-015 1.0 1.67376274775329e-014
outer loop
vertex 3.12775681356649 4.00000000000003 3.75000000000017
vertex -6.84438910767987e-015 4.0 4.60000000000007
vertex 2.95792609530857 4.00000000000002 4.16000762332587
endloop
endfacet
facet normal -1.45716771982052e-015 1.0 1.67376274775329e-014
outer loop
vertex 2.95792609530857 4.00000000000002 4.16000762332587
vertex -6.84438910767987e-015 4.0 4.60000000000007
vertex 2.89999999999999 4.0 4.60000000000015
endloop
endfacet
facet normal -1.45716771982052e-015 1.0 1.67376274775329e-014
outer loop
vertex 2.89999999999999 4.0 4.60000000000015
vertex -6.84438910767987e-015 4.0 4.60000000000007
vertex 0.156741199070244 3.99999999999998 5.79056760747166
endloop
endfacet
facet normal -1.45716771982052e-015 1.0 1.67376274775329e-014
outer loop
vertex 2.89999999999999 4.0 4.60000000000015
vertex 0.156741199070244 3.99999999999998 5.79056760747166
vertex 2.95792609530855 4.0 5.03999237667446
endloop
endfacet
facet normal -1.45716771982052e-015 1.0 1.67376274775329e-014
outer loop
vertex 2.95792609530855 4.0 5.03999237667446
vertex 0.156741199070244 3.99999999999998 5.79056760747166
vertex 3.12775681356642 3.99999999999999 5.45000000000017
endloop
endfacet
facet normal -1.45716771982052e-015 1.0 1.67376274775329e-014
outer loop
vertex 3.12775681356642 3.99999999999999 5.45000000000017
vertex 0.156741199070244 3.99999999999998 5.79056760747166
vertex 3.39791847198283 3.99999999999999 5.8020815280173
endloop
endfacet
facet normal -1.45716771982052e-015 1.0 1.67376274775329e-014
outer loop
vertex 3.39791847198283 3.99999999999999 5.8020815280173
vertex 0.156741199070244 3.99999999999998 5.79056760747166
vertex 0.616283142591545 3.99999999999997 6.9000000000001
endloop
endfacet
facet normal -1.45716771982052e-015 1.0 1.67376274775329e-014
outer loop
vertex 3.39791847198283 3.99999999999999 5.8020815280173
vertex 0.616283142591545 3.99999999999997 6.9000000000001
vertex 3.74999999999999 3.99999999999998 6.07224318643372
endloop
endfacet
facet normal -1.45716771982052e-015 1.0 1.67376274775329e-014
outer loop
vertex 3.74999999999999 3.99999999999998 6.07224318643372
vertex 0.616283142591545 3.99999999999997 6.9000000000001
vertex 4.16000762332565 3.99999999999998 6.24207390469159
endloop
endfacet
facet normal -1.45716771982052e-015 1.0 1.67376274775329e-014
outer loop
vertex 4.16000762332565 3.99999999999998 6.24207390469159
vertex 0.616283142591545 3.99999999999997 6.9000000000001
vertex 4.59999999999997 3.99999999999998 6.3000000000002
endloop
endfacet
facet normal -1.45716771982052e-015 1.0 1.67376274775329e-014
outer loop
vertex 4.59999999999997 3.99999999999998 6.3000000000002
vertex 0.616283142591545 3.99999999999997 6.9000000000001
vertex 27.4 3.99999999999999 6.30000000000087
endloop
endfacet
facet normal -1.45716771982052e-015 1.0 1.67376274775329e-014
outer loop
vertex 3.4094323925285 4.00000000000008 0.15674119907048
vertex 34.4701341835176 4.00000000000013 9.97563143201319e-013
vertex 4.60000000000014 4.00000000000008 2.06210049036315e-013
endloop
endfacet
facet normal -1.45716771982052e-015 1.0 1.67376274775329e-014
outer loop
vertex 34.4701341835176 4.00000000000013 9.97563143201319e-013
vertex 3.4094323925285 4.00000000000008 0.15674119907048
vertex 27.4000000000001 4.00000000000005 2.90000000000087
endloop
endfacet
facet normal -1.45716771982052e-015 1.0 1.67376274775329e-014
outer loop
vertex 34.4701341835176 4.00000000000013 9.97563143201319e-013
vertex 27.4000000000001 4.00000000000005 2.90000000000087
vertex 27.8399923766743 4.00000000000005 2.95792609530946
endloop
endfacet
facet normal -1.45716771982052e-015 1.0 1.67376274775329e-014
outer loop
vertex 34.4701341835176 4.00000000000013 9.97563143201319e-013
vertex 27.8399923766743 4.00000000000005 2.95792609530946
vertex 34.4701341835174 4.00000000000005 5.000000000001
endloop
endfacet
facet normal -1.45716771982052e-015 1.0 1.67376274775329e-014
outer loop
vertex 27.4000000000001 4.00000000000005 2.90000000000087
vertex 3.4094323925285 4.00000000000008 0.15674119907048
vertex 2.30000000000014 4.00000000000007 0.616283142591747
endloop
endfacet
facet normal -1.45716771982052e-015 1.0 1.67376274775329e-014
outer loop
vertex 27.4000000000001 4.00000000000005 2.90000000000087
vertex 2.30000000000014 4.00000000000007 0.616283142591747
vertex 1.34730880654202 4.00000000000006 1.34730880654199
endloop
endfacet
facet normal -1.45716771982052e-015 1.0 1.67376274775329e-014
outer loop
vertex 27.4000000000001 4.00000000000005 2.90000000000087
vertex 1.34730880654202 4.00000000000006 1.34730880654199
vertex 0.616283142591665 4.00000000000005 2.30000000000011
endloop
endfacet
facet normal -1.45716771982052e-015 1.0 1.67376274775329e-014
outer loop
vertex 27.4000000000001 4.00000000000005 2.90000000000087
vertex 0.616283142591665 4.00000000000005 2.30000000000011
vertex 4.60000000000007 4.00000000000004 2.9000000000002
endloop
endfacet
facet normal -1.45716771982052e-015 1.0 1.67376274775329e-014
outer loop
vertex 34.4701341835174 4.00000000000005 5.000000000001
vertex 27.8399923766743 4.00000000000005 2.95792609530946
vertex 28.2500000000001 4.00000000000005 3.12775681356735
endloop
endfacet
facet normal -1.45716771982052e-015 1.0 1.67376274775329e-014
outer loop
vertex 34.4701341835174 4.00000000000005 5.000000000001
vertex 28.2500000000001 4.00000000000005 3.12775681356735
vertex 28.6020815280172 4.00000000000005 3.39791847198379
endloop
endfacet
facet normal -1.45716771982052e-015 1.0 1.67376274775329e-014
outer loop
vertex 34.4701341835174 4.00000000000005 5.000000000001
vertex 28.6020815280172 4.00000000000005 3.39791847198379
vertex 28.8722431864336 4.00000000000004 3.75000000000092
endloop
endfacet
facet normal -1.45716771982052e-015 1.0 1.67376274775329e-014
outer loop
vertex 34.4701341835174 4.00000000000005 5.000000000001
vertex 28.8722431864336 4.00000000000004 3.75000000000092
vertex 29.0420739046915 4.00000000000003 4.16000762332663
endloop
endfacet
facet normal -1.45716771982052e-015 1.0 1.67376274775329e-014
outer loop
vertex 34.4701341835174 4.00000000000005 5.000000000001
vertex 29.0420739046915 4.00000000000003 4.16000762332663
vertex 29.1 4.00000000000003 4.60000000000092
endloop
endfacet
facet normal -1.45716771982052e-015 1.0 1.67376274775329e-014
outer loop
vertex 34.4701341835174 4.00000000000005 5.000000000001
vertex 29.1 4.00000000000003 4.60000000000092
vertex 33.3 4.00000000000005 5.00000000000101
endloop
endfacet
facet normal -1.45716771982052e-015 1.0 1.67376274775329e-014
outer loop
vertex 33.3 4.00000000000005 5.00000000000101
vertex 29.1 4.00000000000003 4.60000000000092
vertex 29.0420739046914 4.00000000000002 5.0399923766752
endloop
endfacet
facet normal -1.45716771982052e-015 1.0 1.67376274775329e-014
outer loop
vertex 33.3 4.00000000000005 5.00000000000101
vertex 29.0420739046914 4.00000000000002 5.0399923766752
vertex 29.0999999999999 3.99999999999997 9.20000000000089
endloop
endfacet
facet normal -1.45716771982052e-015 1.0 1.67376274775329e-014
outer loop
vertex 29.0999999999999 3.99999999999997 9.20000000000089
vertex 29.0420739046914 4.00000000000002 5.0399923766752
vertex 28.8722431864336 4.00000000000002 5.45000000000092
endloop
endfacet
facet normal -1.45716771982052e-015 1.0 1.67376274775329e-014
outer loop
vertex 29.0999999999999 3.99999999999997 9.20000000000089
vertex 28.8722431864336 4.00000000000002 5.45000000000092
vertex 28.6020815280172 4.0 5.80208152801804
endloop
endfacet
facet normal -1.45716771982052e-015 1.0 1.67376274775329e-014
outer loop
vertex 29.0999999999999 3.99999999999997 9.20000000000089
vertex 28.6020815280172 4.0 5.80208152801804
vertex 28.25 4.0 6.07224318643446
endloop
endfacet
facet normal -1.45716771982052e-015 1.0 1.67376274775329e-014
outer loop
vertex 29.0999999999999 3.99999999999997 9.20000000000089
vertex 28.25 4.0 6.07224318643446
vertex 27.8399923766743 3.99999999999999 6.2420739046923
endloop
endfacet
facet normal -1.45716771982052e-015 1.0 1.67376274775329e-014
outer loop
vertex 29.0999999999999 3.99999999999997 9.20000000000089
vertex 27.8399923766743 3.99999999999999 6.2420739046923
vertex 27.4 3.99999999999999 6.30000000000087
endloop
endfacet
facet normal -1.45716771982052e-015 1.0 1.67376274775329e-014
outer loop
vertex 29.0999999999999 3.99999999999997 9.20000000000089
vertex 27.4 3.99999999999999 6.30000000000087
vertex 0.616283142591545 3.99999999999997 6.9000000000001
endloop
endfacet
facet normal -1.45716771982052e-015 1.0 1.67376274775329e-014
outer loop
vertex 29.0999999999999 3.99999999999997 9.20000000000089
vertex 0.616283142591545 3.99999999999997 6.9000000000001
vertex 1.34730880654175 3.99999999999995 7.85269119345822
endloop
endfacet
facet normal -1.45716771982052e-015 1.0 1.67376274775329e-014
outer loop
vertex 29.0999999999999 3.99999999999997 9.20000000000089
vertex 1.34730880654175 3.99999999999995 7.85269119345822
vertex 2.29999999999993 3.99999999999994 8.58371685740856
endloop
endfacet
facet normal -1.45716771982052e-015 1.0 1.67376274775329e-014
outer loop
vertex 29.0999999999999 3.99999999999997 9.20000000000089
vertex 2.29999999999993 3.99999999999994 8.58371685740856
vertex 3.40943239252827 3.99999999999994 9.04325880092987
endloop
endfacet
facet normal -1.45716771982052e-015 1.0 1.67376274775329e-014
outer loop
vertex 29.0999999999999 3.99999999999997 9.20000000000089
vertex 3.40943239252827 3.99999999999994 9.04325880092987
vertex 4.59999999999985 3.99999999999994 9.20000000000019
endloop
endfacet
facet normal -1.45716771982052e-015 1.0 1.67376274775329e-014
outer loop
vertex 5.03999237667432 4.00000000000004 2.95792609530881
vertex 27.4000000000001 4.00000000000005 2.90000000000087
vertex 4.60000000000007 4.00000000000004 2.9000000000002
endloop
endfacet
facet normal -1.45716771982052e-015 1.0 1.67376274775329e-014
outer loop
vertex 27.4000000000001 4.00000000000005 2.90000000000087
vertex 5.03999237667432 4.00000000000004 2.95792609530881
vertex 26.9600076233258 4.00000000000005 2.95792609530943
endloop
endfacet
facet normal -1.45716771982052e-015 1.0 1.67376274775329e-014
outer loop
vertex 26.9600076233258 4.00000000000005 2.95792609530943
vertex 5.03999237667432 4.00000000000004 2.95792609530881
vertex 5.45000000000005 4.00000000000004 3.12775681356668
endloop
endfacet
facet normal -1.45716771982052e-015 1.0 1.67376274775329e-014
outer loop
vertex 26.9600076233258 4.00000000000005 2.95792609530943
vertex 5.45000000000005 4.00000000000004 3.12775681356668
vertex 26.5500000000001 4.00000000000005 3.12775681356732
endloop
endfacet
facet normal -1.45716771982052e-015 1.0 1.67376274775329e-014
outer loop
vertex 26.5500000000001 4.00000000000005 3.12775681356732
vertex 5.45000000000005 4.00000000000004 3.12775681356668
vertex 5.80208152801715 4.00000000000004 3.39791847198309
endloop
endfacet
facet normal -1.45716771982052e-015 1.0 1.67376274775329e-014
outer loop
vertex 26.5500000000001 4.00000000000005 3.12775681356732
vertex 5.80208152801715 4.00000000000004 3.39791847198309
vertex 26.1979184719829 4.00000000000004 3.39791847198372
endloop
endfacet
facet normal -1.45716771982052e-015 1.0 1.67376274775329e-014
outer loop
vertex 26.1979184719829 4.00000000000004 3.39791847198372
vertex 5.80208152801715 4.00000000000004 3.39791847198309
vertex 6.07224318643361 4.00000000000003 3.75000000000025
endloop
endfacet
facet normal -1.45716771982052e-015 1.0 1.67376274775329e-014
outer loop
vertex 26.1979184719829 4.00000000000004 3.39791847198372
vertex 6.07224318643361 4.00000000000003 3.75000000000025
vertex 25.9277568135665 4.00000000000004 3.75000000000084
endloop
endfacet
facet normal -1.45716771982052e-015 1.0 1.67376274775329e-014
outer loop
vertex 25.9277568135665 4.00000000000004 3.75000000000084
vertex 6.07224318643361 4.00000000000003 3.75000000000025
vertex 6.24207390469144 4.00000000000003 4.16000762332598
endloop
endfacet
facet normal -1.45716771982052e-015 1.0 1.67376274775329e-014
outer loop
vertex 25.9277568135665 4.00000000000004 3.75000000000084
vertex 6.24207390469144 4.00000000000003 4.16000762332598
vertex 25.7579260953087 4.00000000000003 4.16000762332653
endloop
endfacet
facet normal -1.45716771982052e-015 1.0 1.67376274775329e-014
outer loop
vertex 25.7579260953087 4.00000000000003 4.16000762332653
vertex 6.24207390469144 4.00000000000003 4.16000762332598
vertex 6.29999999999998 4.00000000000002 4.60000000000025
endloop
endfacet
facet normal -1.45716771982052e-015 1.0 1.67376274775329e-014
outer loop
vertex 25.7579260953087 4.00000000000003 4.16000762332653
vertex 6.29999999999998 4.00000000000002 4.60000000000025
vertex 25.7 4.00000000000002 4.60000000000082
endloop
endfacet
facet normal -1.45716771982052e-015 1.0 1.67376274775329e-014
outer loop
vertex 25.7 4.00000000000002 4.60000000000082
vertex 6.29999999999998 4.00000000000002 4.60000000000025
vertex 6.24207390469137 4.0 5.03999237667453
endloop
endfacet
facet normal -1.45716771982052e-015 1.0 1.67376274775329e-014
outer loop
vertex 25.7 4.00000000000002 4.60000000000082
vertex 6.24207390469137 4.0 5.03999237667453
vertex 25.7579260953086 4.00000000000002 5.03999237667511
endloop
endfacet
facet normal -1.45716771982052e-015 1.0 1.67376274775329e-014
outer loop
vertex 25.7579260953086 4.00000000000002 5.03999237667511
vertex 6.24207390469137 4.0 5.03999237667453
vertex 6.07224318643352 4.0 5.45000000000025
endloop
endfacet
facet normal -1.45716771982052e-015 1.0 1.67376274775329e-014
outer loop
vertex 25.7579260953086 4.00000000000002 5.03999237667511
vertex 6.07224318643352 4.0 5.45000000000025
vertex 25.9277568135664 4.0 5.45000000000084
endloop
endfacet
facet normal -1.45716771982052e-015 1.0 1.67376274775329e-014
outer loop
vertex 25.9277568135664 4.0 5.45000000000084
vertex 6.07224318643352 4.0 5.45000000000025
vertex 5.80208152801709 3.99999999999999 5.80208152801737
endloop
endfacet
facet normal -1.45716771982052e-015 1.0 1.67376274775329e-014
outer loop
vertex 25.9277568135664 4.0 5.45000000000084
vertex 5.80208152801709 3.99999999999999 5.80208152801737
vertex 26.1979184719828 4.0 5.80208152801797
endloop
endfacet
facet normal -1.45716771982052e-015 1.0 1.67376274775329e-014
outer loop
vertex 26.1979184719828 4.0 5.80208152801797
vertex 5.80208152801709 3.99999999999999 5.80208152801737
vertex 5.44999999999999 3.99999999999999 6.07224318643376
endloop
endfacet
facet normal -1.45716771982052e-015 1.0 1.67376274775329e-014
outer loop
vertex 26.1979184719828 4.0 5.80208152801797
vertex 5.44999999999999 3.99999999999999 6.07224318643376
vertex 26.55 3.99999999999999 6.07224318643438
endloop
endfacet
facet normal -1.45716771982052e-015 1.0 1.67376274775329e-014
outer loop
vertex 26.55 3.99999999999999 6.07224318643438
vertex 5.44999999999999 3.99999999999999 6.07224318643376
vertex 5.03999237667425 3.99999999999998 6.24207390469163
endloop
endfacet
facet normal -1.45716771982052e-015 1.0 1.67376274775329e-014
outer loop
vertex 26.55 3.99999999999999 6.07224318643438
vertex 5.03999237667425 3.99999999999998 6.24207390469163
vertex 26.9600076233257 3.99999999999999 6.24207390469228
endloop
endfacet
facet normal -1.45716771982052e-015 1.0 1.67376274775329e-014
outer loop
vertex 26.9600076233257 3.99999999999999 6.24207390469228
vertex 5.03999237667425 3.99999999999998 6.24207390469163
vertex 4.59999999999997 3.99999999999998 6.3000000000002
endloop
endfacet
facet normal -1.45716771982052e-015 1.0 1.67376274775329e-014
outer loop
vertex 26.9600076233257 3.99999999999999 6.24207390469228
vertex 4.59999999999997 3.99999999999998 6.3000000000002
vertex 27.4 3.99999999999999 6.30000000000087
endloop
endfacet
facet normal -2.25524205690075e-014 5.82867087928208e-015 1.0
outer loop
vertex 33.3 4.51194637207664e-014 5.00000000000094
vertex 34.4701341835174 4.00000000000005 5.000000000001
vertex 33.3 4.00000000000005 5.00000000000101
endloop
endfacet
facet normal -2.25524205690075e-014 5.82867087928208e-015 1.0
outer loop
vertex 34.4701341835174 4.00000000000005 5.000000000001
vertex 33.3 4.51194637207664e-014 5.00000000000094
vertex 38.5747183158437 4.51194637207664e-014 5.00000000000114
endloop
endfacet
facet normal -2.25524205690075e-014 5.82867087928208e-015 1.0
outer loop
vertex 34.4701341835174 4.00000000000005 5.000000000001
vertex 38.5747183158437 4.51194637207664e-014 5.00000000000114
vertex 36.9984066314085 13.4356412309054 5.000000000001
endloop
endfacet
facet normal -2.25524205690075e-014 5.82867087928208e-015 1.0
outer loop
vertex 36.9984066314085 13.4356412309054 5.000000000001
vertex 38.5747183158437 4.51194637207664e-014 5.00000000000114
vertex 41.8280357628537 12.1415460053928 5.0000000000011
endloop
endfacet
facet normal 1.45716771982052e-015 -1.0 -1.67376274775329e-014
outer loop
vertex 38.5747183158438 1.35358391162299e-013 1.10366438210718e-012
vertex 3.40943239252851 7.89590615113411e-014 0.156741199070413
vertex 4.60000000000014 7.89590615113411e-014 1.39235845075802e-013
endloop
endfacet
facet normal 1.45716771982052e-015 -1.0 -1.67376274775329e-014
outer loop
vertex 3.40943239252851 7.89590615113411e-014 0.156741199070413
vertex 38.5747183158438 1.35358391162299e-013 1.10366438210718e-012
vertex 27.4000000000001 4.51194637207664e-014 2.9000000000008
endloop
endfacet
facet normal 1.45716771982052e-015 -1.0 -1.67376274775329e-014
outer loop
vertex 27.4000000000001 4.51194637207664e-014 2.9000000000008
vertex 38.5747183158438 1.35358391162299e-013 1.10366438210718e-012
vertex 27.8399923766744 4.51194637207664e-014 2.95792609530939
endloop
endfacet
facet normal 1.45716771982052e-015 -1.0 -1.67376274775329e-014
outer loop
vertex 27.8399923766744 4.51194637207664e-014 2.95792609530939
vertex 38.5747183158438 1.35358391162299e-013 1.10366438210718e-012
vertex 38.5747183158437 4.51194637207664e-014 5.00000000000114
endloop
endfacet
facet normal 1.45716771982052e-015 -1.0 -1.67376274775329e-014
outer loop
vertex 3.40943239252851 7.89590615113411e-014 0.156741199070413
vertex 27.4000000000001 4.51194637207664e-014 2.9000000000008
vertex 2.30000000000014 6.76791955811495e-014 0.61628314259168
endloop
endfacet
facet normal 1.45716771982052e-015 -1.0 -1.67376274775329e-014
outer loop
vertex 2.30000000000014 6.76791955811495e-014 0.61628314259168
vertex 27.4000000000001 4.51194637207664e-014 2.9000000000008
vertex 1.34730880654202 5.6399329650958e-014 1.34730880654192
endloop
endfacet
facet normal 1.45716771982052e-015 -1.0 -1.67376274775329e-014
outer loop
vertex 1.34730880654202 5.6399329650958e-014 1.34730880654192
vertex 27.4000000000001 4.51194637207664e-014 2.9000000000008
vertex 0.616283142591671 4.51194637207664e-014 2.30000000000005
endloop
endfacet
facet normal 1.45716771982052e-015 -1.0 -1.67376274775329e-014
outer loop
vertex 0.616283142591671 4.51194637207664e-014 2.30000000000005
vertex 27.4000000000001 4.51194637207664e-014 2.9000000000008
vertex 4.60000000000007 3.38395977905748e-014 2.90000000000013
endloop
endfacet
facet normal 1.45716771982052e-015 -1.0 -1.67376274775329e-014
outer loop
vertex 27.8399923766744 4.51194637207664e-014 2.95792609530939
vertex 38.5747183158437 4.51194637207664e-014 5.00000000000114
vertex 28.2500000000001 4.51194637207664e-014 3.12775681356728
endloop
endfacet
facet normal 1.45716771982052e-015 -1.0 -1.67376274775329e-014
outer loop
vertex 28.2500000000001 4.51194637207664e-014 3.12775681356728
vertex 38.5747183158437 4.51194637207664e-014 5.00000000000114
vertex 28.6020815280172 4.51194637207664e-014 3.39791847198372
endloop
endfacet
facet normal 1.45716771982052e-015 -1.0 -1.67376274775329e-014
outer loop
vertex 28.6020815280172 4.51194637207664e-014 3.39791847198372
vertex 38.5747183158437 4.51194637207664e-014 5.00000000000114
vertex 28.8722431864336 3.38395977905748e-014 3.75000000000086
endloop
endfacet
facet normal 1.45716771982052e-015 -1.0 -1.67376274775329e-014
outer loop
vertex 28.8722431864336 3.38395977905748e-014 3.75000000000086
vertex 38.5747183158437 4.51194637207664e-014 5.00000000000114
vertex 29.0420739046915 2.25597318603832e-014 4.16000762332656
endloop
endfacet
facet normal 1.45716771982052e-015 -1.0 -1.67376274775329e-014
outer loop
vertex 29.0420739046915 2.25597318603832e-014 4.16000762332656
vertex 38.5747183158437 4.51194637207664e-014 5.00000000000114
vertex 29.1 2.25597318603832e-014 4.60000000000085
endloop
endfacet
facet normal 1.45716771982052e-015 -1.0 -1.67376274775329e-014
outer loop
vertex 29.1 2.25597318603832e-014 4.60000000000085
vertex 38.5747183158437 4.51194637207664e-014 5.00000000000114
vertex 33.3 4.51194637207664e-014 5.00000000000094
endloop
endfacet
facet normal 1.45716771982052e-015 -1.0 -1.67376274775329e-014
outer loop
vertex 27.4000000000001 4.51194637207664e-014 2.9000000000008
vertex 5.03999237667432 3.38395977905748e-014 2.95792609530874
vertex 4.60000000000007 3.38395977905748e-014 2.90000000000013
endloop
endfacet
facet normal 1.45716771982052e-015 -1.0 -1.67376274775329e-014
outer loop
vertex 5.03999237667432 3.38395977905748e-014 2.95792609530874
vertex 27.4000000000001 4.51194637207664e-014 2.9000000000008
vertex 26.9600076233258 4.51194637207664e-014 2.95792609530936
endloop
endfacet
facet normal 1.45716771982052e-015 -1.0 -1.67376274775329e-014
outer loop
vertex 5.03999237667432 3.38395977905748e-014 2.95792609530874
vertex 26.9600076233258 4.51194637207664e-014 2.95792609530936
vertex 5.45000000000005 3.38395977905748e-014 3.12775681356661
endloop
endfacet
facet normal 1.45716771982052e-015 -1.0 -1.67376274775329e-014
outer loop
vertex 5.45000000000005 3.38395977905748e-014 3.12775681356661
vertex 26.9600076233258 4.51194637207664e-014 2.95792609530936
vertex 26.5500000000001 4.51194637207664e-014 3.12775681356726
endloop
endfacet
facet normal 1.45716771982052e-015 -1.0 -1.67376274775329e-014
outer loop
vertex 5.45000000000005 3.38395977905748e-014 3.12775681356661
vertex 26.5500000000001 4.51194637207664e-014 3.12775681356726
vertex 5.80208152801715 3.38395977905748e-014 3.39791847198303
endloop
endfacet
facet normal 1.45716771982052e-015 -1.0 -1.67376274775329e-014
outer loop
vertex 5.80208152801715 3.38395977905748e-014 3.39791847198303
vertex 26.5500000000001 4.51194637207664e-014 3.12775681356726
vertex 26.1979184719829 3.38395977905748e-014 3.39791847198365
endloop
endfacet
facet normal 1.45716771982052e-015 -1.0 -1.67376274775329e-014
outer loop
vertex 5.80208152801715 3.38395977905748e-014 3.39791847198303
vertex 26.1979184719829 3.38395977905748e-014 3.39791847198365
vertex 6.07224318643361 2.25597318603832e-014 3.75000000000019
endloop
endfacet
facet normal 1.45716771982052e-015 -1.0 -1.67376274775329e-014
outer loop
vertex 6.07224318643361 2.25597318603832e-014 3.75000000000019
vertex 26.1979184719829 3.38395977905748e-014 3.39791847198365
vertex 25.9277568135665 3.38395977905748e-014 3.75000000000077
endloop
endfacet
facet normal 1.45716771982052e-015 -1.0 -1.67376274775329e-014
outer loop
vertex 6.07224318643361 2.25597318603832e-014 3.75000000000019
vertex 25.9277568135665 3.38395977905748e-014 3.75000000000077
vertex 6.24207390469145 2.25597318603832e-014 4.16000762332591
endloop
endfacet
facet normal 1.45716771982052e-015 -1.0 -1.67376274775329e-014
outer loop
vertex 6.24207390469145 2.25597318603832e-014 4.16000762332591
vertex 25.9277568135665 3.38395977905748e-014 3.75000000000077
vertex 25.7579260953087 2.25597318603832e-014 4.16000762332646
endloop
endfacet
facet normal 1.45716771982052e-015 -1.0 -1.67376274775329e-014
outer loop
vertex 6.24207390469145 2.25597318603832e-014 4.16000762332591
vertex 25.7579260953087 2.25597318603832e-014 4.16000762332646
vertex 6.29999999999999 1.12798659301916e-014 4.60000000000018
endloop
endfacet
facet normal 1.45716771982052e-015 -1.0 -1.67376274775329e-014
outer loop
vertex 6.29999999999999 1.12798659301916e-014 4.60000000000018
vertex 25.7579260953087 2.25597318603832e-014 4.16000762332646
vertex 25.7 1.12798659301916e-014 4.60000000000075
endloop
endfacet
facet normal 1.45716771982052e-015 -1.0 -1.67376274775329e-014
outer loop
vertex 6.29999999999999 1.12798659301916e-014 4.60000000000018
vertex 25.7 1.12798659301916e-014 4.60000000000075
vertex 6.24207390469138 0.0 5.03999237667446
endloop
endfacet
facet normal 1.45716771982052e-015 -1.0 -1.67376274775329e-014
outer loop
vertex 6.24207390469138 0.0 5.03999237667446
vertex 25.7 1.12798659301916e-014 4.60000000000075
vertex 25.7579260953087 1.12798659301916e-014 5.03999237667504
endloop
endfacet
facet normal 1.45716771982052e-015 -1.0 -1.67376274775329e-014
outer loop
vertex 6.24207390469138 0.0 5.03999237667446
vertex 25.7579260953087 1.12798659301916e-014 5.03999237667504
vertex 6.07224318643353 0.0 5.45000000000018
endloop
endfacet
facet normal 1.45716771982052e-015 -1.0 -1.67376274775329e-014
outer loop
vertex 6.07224318643353 0.0 5.45000000000018
vertex 25.7579260953087 1.12798659301916e-014 5.03999237667504
vertex 25.9277568135665 0.0 5.45000000000077
endloop
endfacet
facet normal 1.45716771982052e-015 -1.0 -1.67376274775329e-014
outer loop
vertex 6.07224318643353 0.0 5.45000000000018
vertex 25.9277568135665 0.0 5.45000000000077
vertex 5.80208152801709 -1.12798659301916e-014 5.8020815280173
endloop
endfacet
facet normal 1.45716771982052e-015 -1.0 -1.67376274775329e-014
outer loop
vertex 5.80208152801709 -1.12798659301916e-014 5.8020815280173
vertex 25.9277568135665 0.0 5.45000000000077
vertex 26.1979184719828 0.0 5.8020815280179
endloop
endfacet
facet normal 1.45716771982052e-015 -1.0 -1.67376274775329e-014
outer loop
vertex 5.80208152801709 -1.12798659301916e-014 5.8020815280173
vertex 26.1979184719828 0.0 5.8020815280179
vertex 5.44999999999999 -1.12798659301916e-014 6.0722431864337
endloop
endfacet
facet normal 1.45716771982052e-015 -1.0 -1.67376274775329e-014
outer loop
vertex 5.44999999999999 -1.12798659301916e-014 6.0722431864337
vertex 26.1979184719828 0.0 5.8020815280179
vertex 26.55 -1.12798659301916e-014 6.07224318643432
endloop
endfacet
facet normal 1.45716771982052e-015 -1.0 -1.67376274775329e-014
outer loop
vertex 5.44999999999999 -1.12798659301916e-014 6.0722431864337
vertex 26.55 -1.12798659301916e-014 6.07224318643432
vertex 5.03999237667425 -2.25597318603832e-014 6.24207390469157
endloop
endfacet
facet normal 1.45716771982052e-015 -1.0 -1.67376274775329e-014
outer loop
vertex 5.03999237667425 -2.25597318603832e-014 6.24207390469157
vertex 26.55 -1.12798659301916e-014 6.07224318643432
vertex 26.9600076233257 -1.12798659301916e-014 6.24207390469221
endloop
endfacet
facet normal 1.45716771982052e-015 -1.0 -1.67376274775329e-014
outer loop
vertex 5.03999237667425 -2.25597318603832e-014 6.24207390469157
vertex 26.9600076233257 -1.12798659301916e-014 6.24207390469221
vertex 4.59999999999998 -2.25597318603832e-014 6.30000000000013
endloop
endfacet
facet normal 1.45716771982052e-015 -1.0 -1.67376274775329e-014
outer loop
vertex 4.59999999999998 -2.25597318603832e-014 6.30000000000013
vertex 26.9600076233257 -1.12798659301916e-014 6.24207390469221
vertex 27.4 -1.12798659301916e-014 6.3000000000008
endloop
endfacet
facet normal 1.45716771982052e-015 -1.0 -1.67376274775329e-014
outer loop
vertex 33.3 4.51194637207664e-014 5.00000000000094
vertex 29.0420739046914 1.12798659301916e-014 5.03999237667513
vertex 29.1 2.25597318603832e-014 4.60000000000085
endloop
endfacet
facet normal 1.45716771982052e-015 -1.0 -1.67376274775329e-014
outer loop
vertex 29.0420739046914 1.12798659301916e-014 5.03999237667513
vertex 33.3 4.51194637207664e-014 5.00000000000094
vertex 29.0999999999999 -3.38395977905748e-014 9.20000000000082
endloop
endfacet
facet normal 1.45716771982052e-015 -1.0 -1.67376274775329e-014
outer loop
vertex 29.0420739046914 1.12798659301916e-014 5.03999237667513
vertex 29.0999999999999 -3.38395977905748e-014 9.20000000000082
vertex 28.8722431864336 1.12798659301916e-014 5.45000000000085
endloop
endfacet
facet normal 1.45716771982052e-015 -1.0 -1.67376274775329e-014
outer loop
vertex 28.8722431864336 1.12798659301916e-014 5.45000000000085
vertex 29.0999999999999 -3.38395977905748e-014 9.20000000000082
vertex 28.6020815280172 0.0 5.80208152801797
endloop
endfacet
facet normal 1.45716771982052e-015 -1.0 -1.67376274775329e-014
outer loop
vertex 28.6020815280172 0.0 5.80208152801797
vertex 29.0999999999999 -3.38395977905748e-014 9.20000000000082
vertex 28.25 0.0 6.07224318643439
endloop
endfacet
facet normal 1.45716771982052e-015 -1.0 -1.67376274775329e-014
outer loop
vertex 28.25 0.0 6.07224318643439
vertex 29.0999999999999 -3.38395977905748e-014 9.20000000000082
vertex 27.8399923766743 -1.12798659301916e-014 6.24207390469224
endloop
endfacet
facet normal 1.45716771982052e-015 -1.0 -1.67376274775329e-014
outer loop
vertex 27.8399923766743 -1.12798659301916e-014 6.24207390469224
vertex 29.0999999999999 -3.38395977905748e-014 9.20000000000082
vertex 27.4 -1.12798659301916e-014 6.3000000000008
endloop
endfacet
facet normal 1.45716771982052e-015 -1.0 -1.67376274775329e-014
outer loop
vertex 27.4 -1.12798659301916e-014 6.3000000000008
vertex 29.0999999999999 -3.38395977905748e-014 9.20000000000082
vertex 0.616283142591551 -3.38395977905748e-014 6.90000000000004
endloop
endfacet
facet normal 1.45716771982052e-015 -1.0 -1.67376274775329e-014
outer loop
vertex 0.616283142591551 -3.38395977905748e-014 6.90000000000004
vertex 29.0999999999999 -3.38395977905748e-014 9.20000000000082
vertex 1.34730880654176 -5.6399329650958e-014 7.85269119345816
endloop
endfacet
facet normal 1.45716771982052e-015 -1.0 -1.67376274775329e-014
outer loop
vertex 1.34730880654176 -5.6399329650958e-014 7.85269119345816
vertex 29.0999999999999 -3.38395977905748e-014 9.20000000000082
vertex 2.29999999999994 -6.76791955811495e-014 8.5837168574085
endloop
endfacet
facet normal 1.45716771982052e-015 -1.0 -1.67376274775329e-014
outer loop
vertex 2.29999999999994 -6.76791955811495e-014 8.5837168574085
vertex 29.0999999999999 -3.38395977905748e-014 9.20000000000082
vertex 3.40943239252828 -6.76791955811495e-014 9.0432588009298
endloop
endfacet
facet normal 1.45716771982052e-015 -1.0 -1.67376274775329e-014
outer loop
vertex 3.40943239252828 -6.76791955811495e-014 9.0432588009298
vertex 29.0999999999999 -3.38395977905748e-014 9.20000000000082
vertex 4.59999999999986 -6.76791955811495e-014 9.20000000000012
endloop
endfacet
facet normal 1.45716771982052e-015 -1.0 -1.67376274775329e-014
outer loop
vertex 4.60000000000007 3.38395977905748e-014 2.90000000000013
vertex 0.156741199070318 2.25597318603832e-014 3.40943239252842
vertex 0.616283142591671 4.51194637207664e-014 2.30000000000005
endloop
endfacet
facet normal 1.45716771982052e-015 -1.0 -1.67376274775329e-014
outer loop
vertex 0.156741199070318 2.25597318603832e-014 3.40943239252842
vertex 4.60000000000007 3.38395977905748e-014 2.90000000000013
vertex 4.16000762332575 3.38395977905748e-014 2.95792609530872
endloop
endfacet
facet normal 1.45716771982052e-015 -1.0 -1.67376274775329e-014
outer loop
vertex 0.156741199070318 2.25597318603832e-014 3.40943239252842
vertex 4.16000762332575 3.38395977905748e-014 2.95792609530872
vertex 3.75000000000002 3.38395977905748e-014 3.12775681356659
endloop
endfacet
facet normal 1.45716771982052e-015 -1.0 -1.67376274775329e-014
outer loop
vertex 0.156741199070318 2.25597318603832e-014 3.40943239252842
vertex 3.75000000000002 3.38395977905748e-014 3.12775681356659
vertex 3.39791847198293 2.25597318603832e-014 3.39791847198298
endloop
endfacet
facet normal 1.45716771982052e-015 -1.0 -1.67376274775329e-014
outer loop
vertex 0.156741199070318 2.25597318603832e-014 3.40943239252842
vertex 3.39791847198293 2.25597318603832e-014 3.39791847198298
vertex 3.1277568135665 2.25597318603832e-014 3.7500000000001
endloop
endfacet
facet normal 1.45716771982052e-015 -1.0 -1.67376274775329e-014
outer loop
vertex 0.156741199070318 2.25597318603832e-014 3.40943239252842
vertex 3.1277568135665 2.25597318603832e-014 3.7500000000001
vertex -1.01571822839779e-015 0.0 4.6
endloop
endfacet
facet normal 1.45716771982052e-015 -1.0 -1.67376274775329e-014
outer loop
vertex -1.01571822839779e-015 0.0 4.6
vertex 3.1277568135665 2.25597318603832e-014 3.7500000000001
vertex 2.95792609530858 1.12798659301916e-014 4.1600076233258
endloop
endfacet
facet normal 1.45716771982052e-015 -1.0 -1.67376274775329e-014
outer loop
vertex -1.01571822839779e-015 0.0 4.6
vertex 2.95792609530858 1.12798659301916e-014 4.1600076233258
vertex 2.89999999999999 0.0 4.60000000000008
endloop
endfacet
facet normal 1.45716771982052e-015 -1.0 -1.67376274775329e-014
outer loop
vertex -1.01571822839779e-015 0.0 4.6
vertex 2.89999999999999 0.0 4.60000000000008
vertex 0.15674119907025 -2.25597318603832e-014 5.79056760747159
endloop
endfacet
facet normal 1.45716771982052e-015 -1.0 -1.67376274775329e-014
outer loop
vertex 0.15674119907025 -2.25597318603832e-014 5.79056760747159
vertex 2.89999999999999 0.0 4.60000000000008
vertex 2.95792609530855 0.0 5.03999237667439
endloop
endfacet
facet normal 1.45716771982052e-015 -1.0 -1.67376274775329e-014
outer loop
vertex 0.15674119907025 -2.25597318603832e-014 5.79056760747159
vertex 2.95792609530855 0.0 5.03999237667439
vertex 3.12775681356643 -1.12798659301916e-014 5.4500000000001
endloop
endfacet
facet normal 1.45716771982052e-015 -1.0 -1.67376274775329e-014
outer loop
vertex 0.15674119907025 -2.25597318603832e-014 5.79056760747159
vertex 3.12775681356643 -1.12798659301916e-014 5.4500000000001
vertex 3.39791847198284 -1.12798659301916e-014 5.80208152801723
endloop
endfacet
facet normal 1.45716771982052e-015 -1.0 -1.67376274775329e-014
outer loop
vertex 0.15674119907025 -2.25597318603832e-014 5.79056760747159
vertex 3.39791847198284 -1.12798659301916e-014 5.80208152801723
vertex 0.616283142591551 -3.38395977905748e-014 6.90000000000004
endloop
endfacet
facet normal 1.45716771982052e-015 -1.0 -1.67376274775329e-014
outer loop
vertex 0.616283142591551 -3.38395977905748e-014 6.90000000000004
vertex 3.39791847198284 -1.12798659301916e-014 5.80208152801723
vertex 3.75 -2.25597318603832e-014 6.07224318643365
endloop
endfacet
facet normal 1.45716771982052e-015 -1.0 -1.67376274775329e-014
outer loop
vertex 0.616283142591551 -3.38395977905748e-014 6.90000000000004
vertex 3.75 -2.25597318603832e-014 6.07224318643365
vertex 4.16000762332566 -2.25597318603832e-014 6.24207390469152
endloop
endfacet
facet normal 1.45716771982052e-015 -1.0 -1.67376274775329e-014
outer loop
vertex 0.616283142591551 -3.38395977905748e-014 6.90000000000004
vertex 4.16000762332566 -2.25597318603832e-014 6.24207390469152
vertex 4.59999999999998 -2.25597318603832e-014 6.30000000000013
endloop
endfacet
facet normal 1.45716771982052e-015 -1.0 -1.67376274775329e-014
outer loop
vertex 0.616283142591551 -3.38395977905748e-014 6.90000000000004
vertex 4.59999999999998 -2.25597318603832e-014 6.30000000000013
vertex 27.4 -1.12798659301916e-014 6.3000000000008
endloop
endfacet
facet normal 0.975038301919579 -0.222036730722158 2.25962599220419e-014
outer loop
vertex 41.8280357628539 12.1415460053929 1.30916943952286e-012
vertex 53.3268520087114 62.6367331304267 3.03788746965447
vertex 41.8280357628537 12.1415460053928 5.0000000000011
endloop
endfacet
facet normal 0.975038301919579 -0.222036730722158 2.25962599220419e-014
outer loop
vertex 53.3268520087114 62.6367331304267 3.03788746965447
vertex 41.8280357628539 12.1415460053929 1.30916943952286e-012
vertex 53.3268520087113 62.6367331304268 2.76814959843108e-012
endloop
endfacet
facet normal -0.965925826289069 0.258819045102518 -1.6198629694482e-014
outer loop
vertex 36.9984066314085 13.4356412309054 5.000000000001
vertex 34.4701341835176 4.00000000000013 9.97563143201319e-013
vertex 34.4701341835174 4.00000000000005 5.000000000001
endloop
endfacet
facet normal -0.965925826289069 0.258819045102518 -1.6198629694482e-014
outer loop
vertex 34.4701341835176 4.00000000000013 9.97563143201319e-013
vertex 36.9984066314085 13.4356412309054 5.000000000001
vertex 50.3924780444147 63.422996264451 2.51188514432954e-012
endloop
endfacet
facet normal -0.965925826289069 0.258819045102518 -1.6198629694482e-014
outer loop
vertex 50.3924780444147 63.422996264451 2.51188514432954e-012
vertex 36.9984066314085 13.4356412309054 5.000000000001
vertex 50.3922922154637 63.4223027413648 3.03791469194564
endloop
endfacet
facet normal 0.965925826289073 -0.258819045102504 2.48028581353273e-014
outer loop
vertex 38.5747183158438 1.35358391162299e-013 1.10366438210718e-012
vertex 41.8280357628537 12.1415460053928 5.0000000000011
vertex 38.5747183158437 4.51194637207664e-014 5.00000000000114
endloop
endfacet
facet normal 0.965925826289073 -0.258819045102504 2.48028581353273e-014
outer loop
vertex 41.8280357628537 12.1415460053928 5.0000000000011
vertex 38.5747183158438 1.35358391162299e-013 1.10366438210718e-012
vertex 41.8280357628539 12.1415460053929 1.30916943952286e-012
endloop
endfacet
facet normal -2.83810914482895e-014 -1.6737627477533e-014 1.0
outer loop
vertex 4.59999999999986 -6.76791955811495e-014 9.20000000000012
vertex 29.0999999999999 3.99999999999997 9.20000000000089
vertex 4.59999999999985 3.99999999999994 9.20000000000019
endloop
endfacet
facet normal -2.83810914482895e-014 -1.6737627477533e-014 1.0
outer loop
vertex 29.0999999999999 3.99999999999997 9.20000000000089
vertex 4.59999999999986 -6.76791955811495e-014 9.20000000000012
vertex 29.0999999999999 -3.38395977905748e-014 9.20000000000082
endloop
endfacet
facet normal -0.707106781186568 -1.28656630663487e-014 0.707106781186527
outer loop
vertex 1.34730880654176 -5.6399329650958e-014 7.85269119345816
vertex 2.29999999999993 3.99999999999994 8.58371685740856
vertex 1.34730880654175 3.99999999999995 7.85269119345822
endloop
endfacet
facet normal -0.500000000000025 -1.5223794454534e-014 0.866025403784424
outer loop
vertex 2.29999999999993 3.99999999999994 8.58371685740856
vertex 1.34730880654176 -5.6399329650958e-014 7.85269119345816
vertex 2.29999999999994 -6.76791955811495e-014 8.5837168574085
endloop
endfacet
facet normal -0.707106781186568 -1.28656630663487e-014 0.707106781186527
outer loop
vertex 1.34730880654175 3.99999999999995 7.85269119345822
vertex 0.616283142591551 -3.38395977905748e-014 6.90000000000004
vertex 1.34730880654176 -5.6399329650958e-014 7.85269119345816
endloop
endfacet
facet normal -0.866025403784453 -9.63075800170529e-015 0.499999999999975
outer loop
vertex 0.616283142591551 -3.38395977905748e-014 6.90000000000004
vertex 1.34730880654175 3.99999999999995 7.85269119345822
vertex 0.616283142591545 3.99999999999997 6.9000000000001
endloop
endfacet
facet normal -0.866025403784453 -9.63075800170529e-015 0.499999999999975
outer loop
vertex 0.616283142591545 3.99999999999997 6.9000000000001
vertex 0.15674119907025 -2.25597318603832e-014 5.79056760747159
vertex 0.616283142591551 -3.38395977905748e-014 6.90000000000004
endloop
endfacet
facet normal -0.965925826289076 -5.73953269482574e-015 0.258819045102494
outer loop
vertex 0.15674119907025 -2.25597318603832e-014 5.79056760747159
vertex 0.616283142591545 3.99999999999997 6.9000000000001
vertex 0.156741199070244 3.99999999999998 5.79056760747166
endloop
endfacet
facet normal -0.965925826289076 -5.73953269482574e-015 0.258819045102494
outer loop
vertex 0.156741199070244 3.99999999999998 5.79056760747166
vertex -1.01571822839779e-015 0.0 4.6
vertex 0.15674119907025 -2.25597318603832e-014 5.79056760747159
endloop
endfacet
facet normal -1.0 -1.45716771982006e-015 -2.75798851270272e-014
outer loop
vertex -1.01571822839779e-015 0.0 4.6
vertex 0.156741199070244 3.99999999999998 5.79056760747166
vertex -6.84438910767987e-015 4.0 4.60000000000007
endloop
endfacet
facet normal -0.499999999999973 1.3766626734714e-014 -0.866025403784454
outer loop
vertex 2.30000000000014 4.00000000000007 0.616283142591747
vertex 1.34730880654202 5.6399329650958e-014 1.34730880654192
vertex 1.34730880654202 4.00000000000006 1.34730880654199
endloop
endfacet
facet normal -0.707106781186527 1.0804916714327e-014 -0.707106781186568
outer loop
vertex 1.34730880654202 5.6399329650958e-014 1.34730880654192
vertex 2.30000000000014 4.00000000000007 0.616283142591747
vertex 2.30000000000014 6.76791955811495e-014 0.61628314259168
endloop
endfacet
facet normal -0.866025403784426 7.10686947582767e-015 -0.500000000000023
outer loop
vertex 0.616283142591665 4.00000000000005 2.30000000000011
vertex 1.34730880654202 5.6399329650958e-014 1.34730880654192
vertex 0.616283142591671 4.51194637207664e-014 2.30000000000005
endloop
endfacet
facet normal -0.707106781186527 1.0804916714327e-014 -0.707106781186568
outer loop
vertex 1.34730880654202 5.6399329650958e-014 1.34730880654192
vertex 0.616283142591665 4.00000000000005 2.30000000000011
vertex 1.34730880654202 4.00000000000006 1.34730880654199
endloop
endfacet
facet normal -0.965925826289061 2.9245008272079e-015 -0.25881904510255
outer loop
vertex 0.156741199070312 4.00000000000003 3.40943239252848
vertex 0.616283142591671 4.51194637207664e-014 2.30000000000005
vertex 0.156741199070318 2.25597318603832e-014 3.40943239252842
endloop
endfacet
facet normal -0.866025403784425 7.10686947582767e-015 -0.500000000000023
outer loop
vertex 0.616283142591671 4.51194637207664e-014 2.30000000000005
vertex 0.156741199070312 4.00000000000003 3.40943239252848
vertex 0.616283142591665 4.00000000000005 2.30000000000011
endloop
endfacet
facet normal -0.130526192220023 1.64042362002951e-014 -0.991444861373814
outer loop
vertex 4.60000000000014 4.00000000000008 2.06210049036315e-013
vertex 3.40943239252851 7.89590615113411e-014 0.156741199070413
vertex 3.4094323925285 4.00000000000008 0.15674119907048
endloop
endfacet
facet normal -0.258819045102494 1.57901638935566e-014 -0.965925826289076
outer loop
vertex 3.40943239252851 7.89590615113411e-014 0.156741199070413
vertex 4.60000000000014 4.00000000000008 2.06210049036315e-013
vertex 4.60000000000014 7.89590615113411e-014 1.39235845075802e-013
endloop
endfacet
facet normal -1.0 -1.45716771982005e-015 -2.79095961931661e-014
outer loop
vertex -6.84438910767987e-015 4.0 4.60000000000007
vertex 0.156741199070318 2.25597318603832e-014 3.40943239252842
vertex -1.01571822839779e-015 0.0 4.6
endloop
endfacet
facet normal -0.965925826289061 2.92450082720789e-015 -0.25881904510255
outer loop
vertex 0.156741199070318 2.25597318603832e-014 3.40943239252842
vertex -6.84438910767987e-015 4.0 4.60000000000007
vertex 0.156741199070312 4.00000000000003 3.40943239252848
endloop
endfacet
facet normal -0.258819045102494 1.57901638935566e-014 -0.965925826289076
outer loop
vertex 3.4094323925285 4.00000000000008 0.15674119907048
vertex 2.30000000000014 6.76791955811495e-014 0.61628314259168
vertex 2.30000000000014 4.00000000000007 0.616283142591747
endloop
endfacet
facet normal -0.499999999999973 1.3766626734714e-014 -0.866025403784455
outer loop
vertex 2.30000000000014 6.76791955811495e-014 0.61628314259168
vertex 3.4094323925285 4.00000000000008 0.15674119907048
vertex 3.40943239252851 7.89590615113411e-014 0.156741199070413
endloop
endfacet
facet normal -0.500000000000025 -1.5223794454534e-014 0.866025403784424
outer loop
vertex 2.29999999999994 -6.76791955811495e-014 8.5837168574085
vertex 3.40943239252827 3.99999999999994 9.04325880092987
vertex 2.29999999999993 3.99999999999994 8.58371685740856
endloop
endfacet
facet normal -0.258819045102549 -1.65444494091527e-014 0.965925826289061
outer loop
vertex 3.40943239252827 3.99999999999994 9.04325880092987
vertex 2.29999999999994 -6.76791955811495e-014 8.5837168574085
vertex 3.40943239252828 -6.76791955811495e-014 9.0432588009298
endloop
endfacet
facet normal -0.258819045102549 -1.65444494091527e-014 0.965925826289061
outer loop
vertex 3.40943239252828 -6.76791955811495e-014 9.0432588009298
vertex 4.59999999999985 3.99999999999994 9.20000000000019
vertex 3.40943239252827 3.99999999999994 9.04325880092987
endloop
endfacet
facet normal -0.13052619222008 -1.67846333080833e-014 0.991444861373807
outer loop
vertex 4.59999999999985 3.99999999999994 9.20000000000019
vertex 3.40943239252828 -6.76791955811495e-014 9.0432588009298
vertex 4.59999999999986 -6.76791955811495e-014 9.20000000000012
endloop
endfacet
facet normal -0.707106781186527 1.0804916714327e-014 -0.707106781186568
outer loop
vertex 5.80208152801709 3.99999999999999 5.80208152801737
vertex 5.44999999999999 -1.12798659301916e-014 6.0722431864337
vertex 5.44999999999999 3.99999999999999 6.07224318643376
endloop
endfacet
facet normal -0.499999999999977 1.3766626734714e-014 -0.866025403784452
outer loop
vertex 5.44999999999999 -1.12798659301916e-014 6.0722431864337
vertex 5.80208152801709 3.99999999999999 5.80208152801737
vertex 5.80208152801709 -1.12798659301916e-014 5.8020815280173
endloop
endfacet
facet normal -0.707106781186527 1.0804916714327e-014 -0.707106781186568
outer loop
vertex 5.80208152801709 3.99999999999999 5.80208152801737
vertex 6.07224318643353 0.0 5.45000000000018
vertex 5.80208152801709 -1.12798659301916e-014 5.8020815280173
endloop
endfacet
facet normal -0.866025403784423 7.10686947582772e-015 -0.500000000000027
outer loop
vertex 6.07224318643353 0.0 5.45000000000018
vertex 5.80208152801709 3.99999999999999 5.80208152801737
vertex 6.07224318643352 4.0 5.45000000000025
endloop
endfacet
facet normal -0.866025403784423 7.10686947582773e-015 -0.500000000000027
outer loop
vertex 6.07224318643352 4.0 5.45000000000025
vertex 6.24207390469138 0.0 5.03999237667446
vertex 6.07224318643353 0.0 5.45000000000018
endloop
endfacet
facet normal -0.965925826289061 2.92450082720789e-015 -0.25881904510255
outer loop
vertex 6.24207390469138 0.0 5.03999237667446
vertex 6.07224318643352 4.0 5.45000000000025
vertex 6.24207390469137 4.0 5.03999237667453
endloop
endfacet
facet normal -0.96592582628906 2.9245008272079e-015 -0.25881904510255
outer loop
vertex 6.24207390469137 4.0 5.03999237667453
vertex 6.29999999999999 1.12798659301916e-014 4.60000000000018
vertex 6.24207390469138 0.0 5.03999237667446
endloop
endfacet
facet normal -1.0 -1.45716771982003e-015 -2.9174973798348e-014
outer loop
vertex 6.29999999999999 1.12798659301916e-014 4.60000000000018
vertex 6.24207390469137 4.0 5.03999237667453
vertex 6.29999999999998 4.00000000000002 4.60000000000025
endloop
endfacet
facet normal -1.0 -1.45716771982005e-015 -2.77313739952532e-014
outer loop
vertex 6.29999999999998 4.00000000000002 4.60000000000025
vertex 6.24207390469145 2.25597318603832e-014 4.16000762332591
vertex 6.29999999999999 1.12798659301916e-014 4.60000000000018
endloop
endfacet
facet normal -0.965925826289075 -5.73953269482577e-015 0.258819045102495
outer loop
vertex 6.24207390469145 2.25597318603832e-014 4.16000762332591
vertex 6.29999999999998 4.00000000000002 4.60000000000025
vertex 6.24207390469144 4.00000000000003 4.16000762332598
endloop
endfacet
facet normal -0.965925826289075 -5.73953269482576e-015 0.258819045102495
outer loop
vertex 6.24207390469144 4.00000000000003 4.16000762332598
vertex 6.07224318643361 2.25597318603832e-014 3.75000000000019
vertex 6.24207390469145 2.25597318603832e-014 4.16000762332591
endloop
endfacet
facet normal -0.866025403784452 -9.63075800170533e-015 0.499999999999978
outer loop
vertex 6.07224318643361 2.25597318603832e-014 3.75000000000019
vertex 6.24207390469144 4.00000000000003 4.16000762332598
vertex 6.07224318643361 4.00000000000003 3.75000000000025
endloop
endfacet
facet normal -0.866025403784452 -9.63075800170533e-015 0.499999999999977
outer loop
vertex 6.07224318643361 4.00000000000003 3.75000000000025
vertex 5.80208152801715 3.38395977905748e-014 3.39791847198303
vertex 6.07224318643361 2.25597318603832e-014 3.75000000000019
endloop
endfacet
facet normal -0.707106781186568 -1.28656630663487e-014 0.707106781186527
outer loop
vertex 5.80208152801715 3.38395977905748e-014 3.39791847198303
vertex 6.07224318643361 4.00000000000003 3.75000000000025
vertex 5.80208152801715 4.00000000000004 3.39791847198309
endloop
endfacet
facet normal -0.500000000000026 -1.5223794454534e-014 0.866025403784424
outer loop
vertex 5.45000000000005 3.38395977905748e-014 3.12775681356661
vertex 5.80208152801715 4.00000000000004 3.39791847198309
vertex 5.45000000000005 4.00000000000004 3.12775681356668
endloop
endfacet
facet normal -0.707106781186567 -1.28656630663488e-014 0.707106781186528
outer loop
vertex 5.80208152801715 4.00000000000004 3.39791847198309
vertex 5.45000000000005 3.38395977905748e-014 3.12775681356661
vertex 5.80208152801715 3.38395977905748e-014 3.39791847198303
endloop
endfacet
facet normal -0.25881904510255 -1.65444494091527e-014 0.965925826289061
outer loop
vertex 5.03999237667432 3.38395977905748e-014 2.95792609530874
vertex 5.45000000000005 4.00000000000004 3.12775681356668
vertex 5.03999237667432 4.00000000000004 2.95792609530881
endloop
endfacet
facet normal -0.500000000000027 -1.5223794454534e-014 0.866025403784423
outer loop
vertex 5.45000000000005 4.00000000000004 3.12775681356668
vertex 5.03999237667432 3.38395977905748e-014 2.95792609530874
vertex 5.45000000000005 3.38395977905748e-014 3.12775681356661
endloop
endfacet
facet normal -2.86046627650266e-014 -1.6737627477533e-014 1.0
outer loop
vertex 4.60000000000007 3.38395977905748e-014 2.90000000000013
vertex 5.03999237667432 4.00000000000004 2.95792609530881
vertex 4.60000000000007 4.00000000000004 2.9000000000002
endloop
endfacet
facet normal -0.25881904510255 -1.65444494091527e-014 0.96592582628906
outer loop
vertex 5.03999237667432 4.00000000000004 2.95792609530881
vertex 4.60000000000007 3.38395977905748e-014 2.90000000000013
vertex 5.03999237667432 3.38395977905748e-014 2.95792609530874
endloop
endfacet
facet normal 0.258819045102495 -1.57901638935566e-014 0.965925826289075
outer loop
vertex 4.16000762332575 3.38395977905748e-014 2.95792609530872
vertex 4.60000000000007 4.00000000000004 2.9000000000002
vertex 4.16000762332575 4.00000000000004 2.95792609530878
endloop
endfacet
facet normal -2.83729739077397e-014 -1.6737627477533e-014 1.0
outer loop
vertex 4.60000000000007 4.00000000000004 2.9000000000002
vertex 4.16000762332575 3.38395977905748e-014 2.95792609530872
vertex 4.60000000000007 3.38395977905748e-014 2.90000000000013
endloop
endfacet
facet normal 0.499999999999978 -1.3766626734714e-014 0.866025403784451
outer loop
vertex 3.75000000000002 3.38395977905748e-014 3.12775681356659
vertex 4.16000762332575 4.00000000000004 2.95792609530878
vertex 3.75000000000002 4.00000000000004 3.12775681356666
endloop
endfacet
facet normal 0.258819045102496 -1.57901638935566e-014 0.965925826289075
outer loop
vertex 4.16000762332575 4.00000000000004 2.95792609530878
vertex 3.75000000000002 3.38395977905748e-014 3.12775681356659
vertex 4.16000762332575 3.38395977905748e-014 2.95792609530872
endloop
endfacet
facet normal 0.707106781186527 -1.0804916714327e-014 0.707106781186568
outer loop
vertex 3.39791847198293 2.25597318603832e-014 3.39791847198298
vertex 3.75000000000002 4.00000000000004 3.12775681356666
vertex 3.39791847198293 4.00000000000003 3.39791847198305
endloop
endfacet
facet normal 0.499999999999977 -1.3766626734714e-014 0.866025403784452
outer loop
vertex 3.75000000000002 4.00000000000004 3.12775681356666
vertex 3.39791847198293 2.25597318603832e-014 3.39791847198298
vertex 3.75000000000002 3.38395977905748e-014 3.12775681356659
endloop
endfacet
facet normal 0.707106781186528 -1.0804916714327e-014 0.707106781186568
outer loop
vertex 3.39791847198293 4.00000000000003 3.39791847198305
vertex 3.1277568135665 2.25597318603832e-014 3.7500000000001
vertex 3.39791847198293 2.25597318603832e-014 3.39791847198298
endloop
endfacet
facet normal 0.866025403784423 -7.10686947582773e-015 0.500000000000027
outer loop
vertex 3.1277568135665 2.25597318603832e-014 3.7500000000001
vertex 3.39791847198293 4.00000000000003 3.39791847198305
vertex 3.12775681356649 4.00000000000003 3.75000000000017
endloop
endfacet
facet normal 0.866025403784423 -7.10686947582773e-015 0.500000000000027
outer loop
vertex 3.1277568135665 2.25597318603832e-014 3.7500000000001
vertex 2.95792609530857 4.00000000000002 4.16000762332587
vertex 2.95792609530858 1.12798659301916e-014 4.1600076233258
endloop
endfacet
facet normal 0.96592582628906 -2.92450082720791e-015 0.258819045102551
outer loop
vertex 2.95792609530857 4.00000000000002 4.16000762332587
vertex 3.1277568135665 2.25597318603832e-014 3.7500000000001
vertex 3.12775681356649 4.00000000000003 3.75000000000017
endloop
endfacet
facet normal 0.965925826289061 -2.92450082720789e-015 0.258819045102549
outer loop
vertex 2.95792609530858 1.12798659301916e-014 4.1600076233258
vertex 2.89999999999999 4.0 4.60000000000015
vertex 2.89999999999999 0.0 4.60000000000008
endloop
endfacet
facet normal 1.0 1.45716771982005e-015 2.81145517207658e-014
outer loop
vertex 2.89999999999999 4.0 4.60000000000015
vertex 2.95792609530858 1.12798659301916e-014 4.1600076233258
vertex 2.95792609530857 4.00000000000002 4.16000762332587
endloop
endfacet
facet normal 1.0 1.45716771982005e-015 2.81145517207658e-014
outer loop
vertex 2.89999999999999 4.0 4.60000000000015
vertex 2.95792609530855 0.0 5.03999237667439
vertex 2.89999999999999 0.0 4.60000000000008
endloop
endfacet
facet normal 0.965925826289075 5.73953269482576e-015 -0.258819045102495
outer loop
vertex 2.95792609530855 0.0 5.03999237667439
vertex 2.89999999999999 4.0 4.60000000000015
vertex 2.95792609530855 4.0 5.03999237667446
endloop
endfacet
facet normal 0.965925826289075 5.73953269482576e-015 -0.258819045102495
outer loop
vertex 2.95792609530855 0.0 5.03999237667439
vertex 3.12775681356642 3.99999999999999 5.45000000000017
vertex 3.12775681356643 -1.12798659301916e-014 5.4500000000001
endloop
endfacet
facet normal 0.866025403784452 9.63075800170533e-015 -0.499999999999978
outer loop
vertex 3.12775681356642 3.99999999999999 5.45000000000017
vertex 2.95792609530855 0.0 5.03999237667439
vertex 2.95792609530855 4.0 5.03999237667446
endloop
endfacet
facet normal 0.866025403784452 9.63075800170533e-015 -0.499999999999978
outer loop
vertex 3.12775681356642 3.99999999999999 5.45000000000017
vertex 3.39791847198284 -1.12798659301916e-014 5.80208152801723
vertex 3.12775681356643 -1.12798659301916e-014 5.4500000000001
endloop
endfacet
facet normal 0.707106781186568 1.28656630663488e-014 -0.707106781186527
outer loop
vertex 3.39791847198284 -1.12798659301916e-014 5.80208152801723
vertex 3.12775681356642 3.99999999999999 5.45000000000017
vertex 3.39791847198283 3.99999999999999 5.8020815280173
endloop
endfacet
facet normal 0.500000000000027 1.5223794454534e-014 -0.866025403784423
outer loop
vertex 3.74999999999999 3.99999999999998 6.07224318643372
vertex 3.39791847198284 -1.12798659301916e-014 5.80208152801723
vertex 3.39791847198283 3.99999999999999 5.8020815280173
endloop
endfacet
facet normal 0.707106781186568 1.28656630663488e-014 -0.707106781186527
outer loop
vertex 3.39791847198284 -1.12798659301916e-014 5.80208152801723
vertex 3.74999999999999 3.99999999999998 6.07224318643372
vertex 3.75 -2.25597318603832e-014 6.07224318643365
endloop
endfacet
facet normal 0.25881904510255 1.65444494091527e-014 -0.965925826289061
outer loop
vertex 4.16000762332565 3.99999999999998 6.24207390469159
vertex 3.75 -2.25597318603832e-014 6.07224318643365
vertex 3.74999999999999 3.99999999999998 6.07224318643372
endloop
endfacet
facet normal 0.500000000000026 1.5223794454534e-014 -0.866025403784424
outer loop
vertex 3.75 -2.25597318603832e-014 6.07224318643365
vertex 4.16000762332565 3.99999999999998 6.24207390469159
vertex 4.16000762332566 -2.25597318603832e-014 6.24207390469152
endloop
endfacet
facet normal 2.86046627650266e-014 1.6737627477533e-014 -1.0
outer loop
vertex 4.59999999999997 3.99999999999998 6.3000000000002
vertex 4.16000762332566 -2.25597318603832e-014 6.24207390469152
vertex 4.16000762332565 3.99999999999998 6.24207390469159
endloop
endfacet
facet normal 0.25881904510255 1.65444494091527e-014 -0.96592582628906
outer loop
vertex 4.16000762332566 -2.25597318603832e-014 6.24207390469152
vertex 4.59999999999997 3.99999999999998 6.3000000000002
vertex 4.59999999999998 -2.25597318603832e-014 6.30000000000013
endloop
endfacet
facet normal -0.258819045102496 1.57901638935566e-014 -0.965925826289075
outer loop
vertex 5.03999237667425 3.99999999999998 6.24207390469163
vertex 4.59999999999998 -2.25597318603832e-014 6.30000000000013
vertex 4.59999999999997 3.99999999999998 6.3000000000002
endloop
endfacet
facet normal 2.83640627978441e-014 1.6737627477533e-014 -1.0
outer loop
vertex 4.59999999999998 -2.25597318603832e-014 6.30000000000013
vertex 5.03999237667425 3.99999999999998 6.24207390469163
vertex 5.03999237667425 -2.25597318603832e-014 6.24207390469157
endloop
endfacet
facet normal -0.499999999999978 1.3766626734714e-014 -0.866025403784451
outer loop
vertex 5.44999999999999 3.99999999999999 6.07224318643376
vertex 5.03999237667425 -2.25597318603832e-014 6.24207390469157
vertex 5.03999237667425 3.99999999999998 6.24207390469163
endloop
endfacet
facet normal -0.258819045102495 1.57901638935566e-014 -0.965925826289075
outer loop
vertex 5.03999237667425 -2.25597318603832e-014 6.24207390469157
vertex 5.44999999999999 3.99999999999999 6.07224318643376
vertex 5.44999999999999 -1.12798659301916e-014 6.0722431864337
endloop
endfacet
facet normal 0.866025403784423 -7.10686947582773e-015 0.500000000000027
outer loop
vertex 25.9277568135665 3.38395977905748e-014 3.75000000000077
vertex 25.7579260953087 4.00000000000003 4.16000762332653
vertex 25.7579260953087 2.25597318603832e-014 4.16000762332646
endloop
endfacet
facet normal 0.96592582628906 -2.92450082720791e-015 0.258819045102551
outer loop
vertex 25.7579260953087 4.00000000000003 4.16000762332653
vertex 25.9277568135665 3.38395977905748e-014 3.75000000000077
vertex 25.9277568135665 4.00000000000004 3.75000000000084
endloop
endfacet
facet normal 0.965925826289061 -2.92450082720789e-015 0.258819045102549
outer loop
vertex 25.7579260953087 2.25597318603832e-014 4.16000762332646
vertex 25.7 4.00000000000002 4.60000000000082
vertex 25.7 1.12798659301916e-014 4.60000000000075
endloop
endfacet
facet normal 1.0 1.45716771982005e-015 2.81145517207658e-014
outer loop
vertex 25.7 4.00000000000002 4.60000000000082
vertex 25.7579260953087 2.25597318603832e-014 4.16000762332646
vertex 25.7579260953087 4.00000000000003 4.16000762332653
endloop
endfacet
facet normal 1.0 1.45716771982005e-015 2.81145517207658e-014
outer loop
vertex 25.7 4.00000000000002 4.60000000000082
vertex 25.7579260953087 1.12798659301916e-014 5.03999237667504
vertex 25.7 1.12798659301916e-014 4.60000000000075
endloop
endfacet
facet normal 0.965925826289075 5.73953269482576e-015 -0.258819045102495
outer loop
vertex 25.7579260953087 1.12798659301916e-014 5.03999237667504
vertex 25.7 4.00000000000002 4.60000000000082
vertex 25.7579260953086 4.00000000000002 5.03999237667511
endloop
endfacet
facet normal 0.965925826289075 5.73953269482576e-015 -0.258819045102495
outer loop
vertex 25.7579260953087 1.12798659301916e-014 5.03999237667504
vertex 25.9277568135664 4.0 5.45000000000084
vertex 25.9277568135665 0.0 5.45000000000077
endloop
endfacet
facet normal 0.866025403784452 9.63075800170533e-015 -0.499999999999978
outer loop
vertex 25.9277568135664 4.0 5.45000000000084
vertex 25.7579260953087 1.12798659301916e-014 5.03999237667504
vertex 25.7579260953086 4.00000000000002 5.03999237667511
endloop
endfacet
facet normal 0.866025403784452 9.63075800170533e-015 -0.499999999999978
outer loop
vertex 25.9277568135664 4.0 5.45000000000084
vertex 26.1979184719828 0.0 5.8020815280179
vertex 25.9277568135665 0.0 5.45000000000077
endloop
endfacet
facet normal 0.707106781186568 1.28656630663488e-014 -0.707106781186527
outer loop
vertex 26.1979184719828 0.0 5.8020815280179
vertex 25.9277568135664 4.0 5.45000000000084
vertex 26.1979184719828 4.0 5.80208152801797
endloop
endfacet
facet normal 0.500000000000027 1.5223794454534e-014 -0.866025403784423
outer loop
vertex 26.55 3.99999999999999 6.07224318643438
vertex 26.1979184719828 0.0 5.8020815280179
vertex 26.1979184719828 4.0 5.80208152801797
endloop
endfacet
facet normal 0.707106781186568 1.28656630663488e-014 -0.707106781186527
outer loop
vertex 26.1979184719828 0.0 5.8020815280179
vertex 26.55 3.99999999999999 6.07224318643438
vertex 26.55 -1.12798659301916e-014 6.07224318643432
endloop
endfacet
facet normal 0.25881904510255 1.65444494091527e-014 -0.965925826289061
outer loop
vertex 26.9600076233257 3.99999999999999 6.24207390469228
vertex 26.55 -1.12798659301916e-014 6.07224318643432
vertex 26.55 3.99999999999999 6.07224318643438
endloop
endfacet
facet normal 0.500000000000026 1.5223794454534e-014 -0.866025403784424
outer loop
vertex 26.55 -1.12798659301916e-014 6.07224318643432
vertex 26.9600076233257 3.99999999999999 6.24207390469228
vertex 26.9600076233257 -1.12798659301916e-014 6.24207390469221
endloop
endfacet
facet normal 2.85779294353397e-014 1.6737627477533e-014 -1.0
outer loop
vertex 27.4 3.99999999999999 6.30000000000087
vertex 26.9600076233257 -1.12798659301916e-014 6.24207390469221
vertex 26.9600076233257 3.99999999999999 6.24207390469228
endloop
endfacet
facet normal 0.25881904510255 1.65444494091527e-014 -0.96592582628906
outer loop
vertex 26.9600076233257 -1.12798659301916e-014 6.24207390469221
vertex 27.4 3.99999999999999 6.30000000000087
vertex 27.4 -1.12798659301916e-014 6.3000000000008
endloop
endfacet
facet normal -0.258819045102496 1.57901638935566e-014 -0.965925826289075
outer loop
vertex 27.8399923766743 3.99999999999999 6.2420739046923
vertex 27.4 -1.12798659301916e-014 6.3000000000008
vertex 27.4 3.99999999999999 6.30000000000087
endloop
endfacet
facet normal 2.83284183582615e-014 1.6737627477533e-014 -1.0
outer loop
vertex 27.4 -1.12798659301916e-014 6.3000000000008
vertex 27.8399923766743 3.99999999999999 6.2420739046923
vertex 27.8399923766743 -1.12798659301916e-014 6.24207390469224
endloop
endfacet
facet normal -0.499999999999978 1.3766626734714e-014 -0.866025403784451
outer loop
vertex 28.25 4.0 6.07224318643446
vertex 27.8399923766743 -1.12798659301916e-014 6.24207390469224
vertex 27.8399923766743 3.99999999999999 6.2420739046923
endloop
endfacet
facet normal -0.258819045102495 1.57901638935566e-014 -0.965925826289075
outer loop
vertex 27.8399923766743 -1.12798659301916e-014 6.24207390469224
vertex 28.25 4.0 6.07224318643446
vertex 28.25 0.0 6.07224318643439
endloop
endfacet
facet normal -0.707106781186527 1.0804916714327e-014 -0.707106781186568
outer loop
vertex 28.6020815280172 4.0 5.80208152801804
vertex 28.25 0.0 6.07224318643439
vertex 28.25 4.0 6.07224318643446
endloop
endfacet
facet normal -0.499999999999977 1.3766626734714e-014 -0.866025403784452
outer loop
vertex 28.25 0.0 6.07224318643439
vertex 28.6020815280172 4.0 5.80208152801804
vertex 28.6020815280172 0.0 5.80208152801797
endloop
endfacet
facet normal -0.707106781186527 1.0804916714327e-014 -0.707106781186568
outer loop
vertex 28.6020815280172 4.0 5.80208152801804
vertex 28.8722431864336 1.12798659301916e-014 5.45000000000085
vertex 28.6020815280172 0.0 5.80208152801797
endloop
endfacet
facet normal -0.866025403784423 7.10686947582772e-015 -0.500000000000027
outer loop
vertex 28.8722431864336 1.12798659301916e-014 5.45000000000085
vertex 28.6020815280172 4.0 5.80208152801804
vertex 28.8722431864336 4.00000000000002 5.45000000000092
endloop
endfacet
facet normal -0.866025403784423 7.10686947582773e-015 -0.500000000000027
outer loop
vertex 28.8722431864336 4.00000000000002 5.45000000000092
vertex 29.0420739046914 1.12798659301916e-014 5.03999237667513
vertex 28.8722431864336 1.12798659301916e-014 5.45000000000085
endloop
endfacet
facet normal -0.965925826289061 2.92450082720789e-015 -0.25881904510255
outer loop
vertex 29.0420739046914 1.12798659301916e-014 5.03999237667513
vertex 28.8722431864336 4.00000000000002 5.45000000000092
vertex 29.0420739046914 4.00000000000002 5.0399923766752
endloop
endfacet
facet normal -0.96592582628906 2.9245008272079e-015 -0.25881904510255
outer loop
vertex 29.0420739046914 4.00000000000002 5.0399923766752
vertex 29.1 2.25597318603832e-014 4.60000000000085
vertex 29.0420739046914 1.12798659301916e-014 5.03999237667513
endloop
endfacet
facet normal -1.0 -1.45716771982005e-015 -2.81145517207658e-014
outer loop
vertex 29.1 2.25597318603832e-014 4.60000000000085
vertex 29.0420739046914 4.00000000000002 5.0399923766752
vertex 29.1 4.00000000000003 4.60000000000092
endloop
endfacet
facet normal -1.0 -1.45716771982004e-015 -2.87917960728354e-014
outer loop
vertex 29.1 4.00000000000003 4.60000000000092
vertex 29.0420739046915 2.25597318603832e-014 4.16000762332656
vertex 29.1 2.25597318603832e-014 4.60000000000085
endloop
endfacet
facet normal -0.965925826289075 -5.73953269482577e-015 0.258819045102495
outer loop
vertex 29.0420739046915 2.25597318603832e-014 4.16000762332656
vertex 29.1 4.00000000000003 4.60000000000092
vertex 29.0420739046915 4.00000000000003 4.16000762332663
endloop
endfacet
facet normal -0.965925826289075 -5.73953269482576e-015 0.258819045102495
outer loop
vertex 29.0420739046915 4.00000000000003 4.16000762332663
vertex 28.8722431864336 3.38395977905748e-014 3.75000000000086
vertex 29.0420739046915 2.25597318603832e-014 4.16000762332656
endloop
endfacet
facet normal -0.866025403784452 -9.63075800170531e-015 0.499999999999977
outer loop
vertex 28.8722431864336 3.38395977905748e-014 3.75000000000086
vertex 29.0420739046915 4.00000000000003 4.16000762332663
vertex 28.8722431864336 4.00000000000004 3.75000000000092
endloop
endfacet
facet normal -0.866025403784451 -9.63075800170534e-015 0.499999999999979
outer loop
vertex 28.8722431864336 4.00000000000004 3.75000000000092
vertex 28.6020815280172 4.51194637207664e-014 3.39791847198372
vertex 28.8722431864336 3.38395977905748e-014 3.75000000000086
endloop
endfacet
facet normal -0.707106781186568 -1.28656630663487e-014 0.707106781186527
outer loop
vertex 28.6020815280172 4.51194637207664e-014 3.39791847198372
vertex 28.8722431864336 4.00000000000004 3.75000000000092
vertex 28.6020815280172 4.00000000000005 3.39791847198379
endloop
endfacet
facet normal -0.500000000000026 -1.5223794454534e-014 0.866025403784424
outer loop
vertex 28.2500000000001 4.51194637207664e-014 3.12775681356728
vertex 28.6020815280172 4.00000000000005 3.39791847198379
vertex 28.2500000000001 4.00000000000005 3.12775681356735
endloop
endfacet
facet normal -0.707106781186568 -1.28656630663488e-014 0.707106781186528
outer loop
vertex 28.6020815280172 4.00000000000005 3.39791847198379
vertex 28.2500000000001 4.51194637207664e-014 3.12775681356728
vertex 28.6020815280172 4.51194637207664e-014 3.39791847198372
endloop
endfacet
facet normal -0.25881904510255 -1.65444494091527e-014 0.965925826289061
outer loop
vertex 27.8399923766744 4.51194637207664e-014 2.95792609530939
vertex 28.2500000000001 4.00000000000005 3.12775681356735
vertex 27.8399923766743 4.00000000000005 2.95792609530946
endloop
endfacet
facet normal -0.500000000000027 -1.5223794454534e-014 0.866025403784423
outer loop
vertex 28.2500000000001 4.00000000000005 3.12775681356735
vertex 27.8399923766744 4.51194637207664e-014 2.95792609530939
vertex 28.2500000000001 4.51194637207664e-014 3.12775681356728
endloop
endfacet
facet normal -2.85779294353397e-014 -1.6737627477533e-014 1.0
outer loop
vertex 27.4000000000001 4.51194637207664e-014 2.9000000000008
vertex 27.8399923766743 4.00000000000005 2.95792609530946
vertex 27.4000000000001 4.00000000000005 2.90000000000087
endloop
endfacet
facet normal -0.25881904510255 -1.65444494091527e-014 0.96592582628906
outer loop
vertex 27.8399923766743 4.00000000000005 2.95792609530946
vertex 27.4000000000001 4.51194637207664e-014 2.9000000000008
vertex 27.8399923766744 4.51194637207664e-014 2.95792609530939
endloop
endfacet
facet normal 0.258819045102495 -1.57901638935566e-014 0.965925826289075
outer loop
vertex 26.9600076233258 4.51194637207664e-014 2.95792609530936
vertex 27.4000000000001 4.00000000000005 2.90000000000087
vertex 26.9600076233258 4.00000000000005 2.95792609530943
endloop
endfacet
facet normal -2.83462405780528e-014 -1.6737627477533e-014 1.0
outer loop
vertex 27.4000000000001 4.00000000000005 2.90000000000087
vertex 26.9600076233258 4.51194637207664e-014 2.95792609530936
vertex 27.4000000000001 4.51194637207664e-014 2.9000000000008
endloop
endfacet
facet normal 0.499999999999978 -1.3766626734714e-014 0.866025403784451
outer loop
vertex 26.5500000000001 4.51194637207664e-014 3.12775681356726
vertex 26.9600076233258 4.00000000000005 2.95792609530943
vertex 26.5500000000001 4.00000000000005 3.12775681356732
endloop
endfacet
facet normal 0.258819045102496 -1.57901638935566e-014 0.965925826289075
outer loop
vertex 26.9600076233258 4.00000000000005 2.95792609530943
vertex 26.5500000000001 4.51194637207664e-014 3.12775681356726
vertex 26.9600076233258 4.51194637207664e-014 2.95792609530936
endloop
endfacet
facet normal 0.707106781186527 -1.0804916714327e-014 0.707106781186568
outer loop
vertex 26.1979184719829 3.38395977905748e-014 3.39791847198365
vertex 26.5500000000001 4.00000000000005 3.12775681356732
vertex 26.1979184719829 4.00000000000004 3.39791847198372
endloop
endfacet
facet normal 0.499999999999977 -1.3766626734714e-014 0.866025403784452
outer loop
vertex 26.5500000000001 4.00000000000005 3.12775681356732
vertex 26.1979184719829 3.38395977905748e-014 3.39791847198365
vertex 26.5500000000001 4.51194637207664e-014 3.12775681356726
endloop
endfacet
facet normal 0.707106781186528 -1.0804916714327e-014 0.707106781186568
outer loop
vertex 26.1979184719829 4.00000000000004 3.39791847198372
vertex 25.9277568135665 3.38395977905748e-014 3.75000000000077
vertex 26.1979184719829 3.38395977905748e-014 3.39791847198365
endloop
endfacet
facet normal 0.866025403784423 -7.10686947582773e-015 0.500000000000027
outer loop
vertex 25.9277568135665 3.38395977905748e-014 3.75000000000077
vertex 26.1979184719829 4.00000000000004 3.39791847198372
vertex 25.9277568135665 4.00000000000004 3.75000000000084
endloop
endfacet
endsolid LeftFrontLeg
