M48
;Layer_Color=15461320
;FILE_FORMAT=4:2
METRIC,LZ
;TYPE=PLATED
T1F00S00C0.40
T2F00S00C0.50
T3F00S00C0.65
T4F00S00C0.89
T5F00S00C0.90
T6F00S00C1.00
T7F00S00C2.60
%
T01
X002626Y000422
X002779Y000384
X002893Y000442
X002555Y000602
X002375Y001206
X002451Y001384
X002565Y001499
X002819Y001575
X002799Y001786
X003462Y001593
X003348Y001407
X003528Y001288
Y001146
X003691Y0008
T02
X000368Y001996
X002083Y001626
X00268Y001702
X002915Y00167
X00301Y001206
X002731Y001041
X002629Y000292
X003228Y000264
X003919Y000437
X003874Y000795
X004463
X00475Y000356
X003664Y001505
X003785Y002045
X003175Y00207
X001341Y000564
T03
X002438Y002375
X002565
X002692
X003378Y002273
X003505
X003632
X003907Y002271
X004034
X004161
T04
X002169Y000457
Y000965
T05
X000166Y000253
Y000507
X00042
X000674
Y000253
X00042
Y000825
X000166
X000317Y001127
Y001381
X000674Y000825
X000677Y002836
X000423
X000169
X001226Y001401
X001726
X004194Y001252
Y000998
X004448
Y001252
X004702
Y000998
X004394Y002736
X00414
X003721Y002731
X003467
T06
X001029Y002388
Y002692
X001283
Y002388
X001981Y002769
X002235
X002502
X002756
T07
X0006Y0025
X0044Y0005
M30
