%FSLAX42Y42*%
%MOMM*%
G71*
G01*
G75*
G04 Layer_Color=65535*
%ADD10R,1.40X0.90*%
%ADD11R,0.90X1.40*%
%ADD12R,0.50X1.55*%
%ADD13R,0.50X1.55*%
%ADD14R,1.55X0.50*%
%ADD15R,1.50X1.30*%
%ADD16C,0.80*%
%ADD17C,0.50*%
%ADD18C,1.00*%
%ADD19C,0.40*%
%ADD20C,0.13*%
%ADD21C,3.00*%
%ADD22C,1.90*%
%ADD23C,2.00*%
%ADD24O,1.00X2.00*%
%ADD25O,1.00X2.00*%
%ADD26R,2.00X2.00*%
%ADD27C,1.50*%
%ADD28R,1.50X1.50*%
%ADD29C,1.57*%
%ADD30R,1.90X1.90*%
%ADD31C,0.80*%
%ADD32C,1.00*%
%ADD33C,0.13*%
%ADD34C,0.25*%
%ADD35C,0.20*%
%ADD36C,0.25*%
%ADD37C,0.30*%
%ADD38C,0.15*%
%ADD39C,0.15*%
%ADD40C,0.15*%
%ADD41C,0.20*%
%ADD42R,1.80X0.53*%
D20*
X3653Y2605D02*
X3669D01*
X3661D01*
Y2555D01*
X3653D01*
X3669D01*
X3694D02*
Y2605D01*
X3719D01*
X3727Y2597D01*
Y2580D01*
X3719Y2572D01*
X3694D01*
X3711D02*
X3727Y2555D01*
X3744Y2589D02*
Y2555D01*
Y2572D01*
X3752Y2580D01*
X3761Y2589D01*
X3769D01*
X3794Y2555D02*
X3811D01*
X3802D01*
Y2589D01*
X3794D01*
X3852Y2539D02*
X3861D01*
X3869Y2547D01*
Y2589D01*
X3844D01*
X3836Y2580D01*
Y2564D01*
X3844Y2555D01*
X3869D01*
X3886Y2605D02*
Y2555D01*
Y2580D01*
X3894Y2589D01*
X3911D01*
X3919Y2580D01*
Y2555D01*
X3944Y2597D02*
Y2589D01*
X3936D01*
X3952D01*
X3944D01*
Y2564D01*
X3952Y2555D01*
X4077Y2608D02*
X4093D01*
X4085D01*
Y2558D01*
X4077D01*
X4093D01*
X4118D02*
Y2608D01*
X4143D01*
X4152Y2599D01*
Y2583D01*
X4143Y2574D01*
X4118D01*
X4135D02*
X4152Y2558D01*
X4168D02*
X4185D01*
X4177D01*
Y2608D01*
X4168D01*
X4235Y2558D02*
X4218D01*
X4210Y2566D01*
Y2583D01*
X4218Y2591D01*
X4235D01*
X4243Y2583D01*
Y2574D01*
X4210D01*
X4268Y2558D02*
Y2599D01*
Y2583D01*
X4260D01*
X4277D01*
X4268D01*
Y2599D01*
X4277Y2608D01*
X4310Y2599D02*
Y2591D01*
X4302D01*
X4318D01*
X4310D01*
Y2566D01*
X4318Y2558D01*
X3658Y91D02*
Y173D01*
X3699D01*
X3712Y160D01*
Y132D01*
X3699Y119D01*
X3658D01*
X3781Y91D02*
X3753D01*
X3740Y105D01*
Y132D01*
X3753Y146D01*
X3781D01*
X3794Y132D01*
Y119D01*
X3740D01*
X3822Y91D02*
Y146D01*
X3863D01*
X3876Y132D01*
Y91D01*
X3904D02*
Y146D01*
X3945D01*
X3958Y132D01*
Y91D01*
X3985Y146D02*
Y105D01*
X3999Y91D01*
X4040D01*
Y78D01*
X4026Y64D01*
X4013D01*
X4040Y91D02*
Y146D01*
X4149Y173D02*
Y91D01*
X4190D01*
X4204Y105D01*
Y119D01*
Y132D01*
X4190Y146D01*
X4149D01*
X4245Y91D02*
X4272D01*
X4286Y105D01*
Y132D01*
X4272Y146D01*
X4245D01*
X4231Y132D01*
Y105D01*
X4245Y91D01*
X4327Y146D02*
X4354D01*
X4368Y132D01*
Y91D01*
X4327D01*
X4313Y105D01*
X4327Y119D01*
X4368D01*
X4395Y146D02*
Y91D01*
Y119D01*
X4409Y132D01*
X4423Y146D01*
X4436D01*
X4532Y173D02*
Y91D01*
X4491D01*
X4477Y105D01*
Y132D01*
X4491Y146D01*
X4532D01*
X4641Y173D02*
Y119D01*
X4669Y91D01*
X4696Y119D01*
Y173D01*
X4723Y91D02*
X4751D01*
X4737D01*
Y173D01*
X4723Y160D01*
X4792Y91D02*
Y105D01*
X4805D01*
Y91D01*
X4792D01*
X4860Y160D02*
X4874Y173D01*
X4901D01*
X4915Y160D01*
Y105D01*
X4901Y91D01*
X4874D01*
X4860Y105D01*
Y160D01*
X3514Y2878D02*
X3506Y2870D01*
Y2853D01*
X3514Y2845D01*
X3548D01*
X3556Y2853D01*
Y2870D01*
X3548Y2878D01*
X3620D02*
Y2845D01*
X3670D01*
Y2878D01*
X3645Y2845D02*
Y2861D01*
X4187Y2883D02*
X4179Y2875D01*
Y2858D01*
X4187Y2850D01*
X4221D01*
X4229Y2858D01*
Y2875D01*
X4221Y2883D01*
X4293D02*
Y2850D01*
X4343D01*
Y2883D01*
X4318Y2850D02*
Y2867D01*
X2350Y2630D02*
Y2680D01*
Y2663D01*
X2316Y2630D01*
X2341Y2655D01*
X2316Y2680D01*
X1905D02*
Y2646D01*
X1888Y2630D01*
X1872Y2646D01*
Y2680D01*
Y2655D01*
X1905D01*
X2426Y2680D02*
Y2646D01*
X2409Y2630D01*
X2392Y2646D01*
Y2680D01*
Y2655D01*
X2426D01*
X2870Y2630D02*
Y2680D01*
Y2663D01*
X2837Y2630D01*
X2862Y2655D01*
X2837Y2680D01*
X4521Y1415D02*
Y1448D01*
X4538Y1465D01*
X4555Y1448D01*
Y1415D01*
Y1440D01*
X4521D01*
X4571Y1465D02*
Y1431D01*
X4588Y1415D01*
X4605Y1431D01*
Y1465D01*
X4621Y1415D02*
Y1465D01*
X4646D01*
X4654Y1456D01*
Y1440D01*
X4646Y1431D01*
X4621D01*
X4638D02*
X4654Y1415D01*
X4671Y1465D02*
X4688D01*
X4679D01*
Y1415D01*
X4671D01*
X4688D01*
X4746Y1456D02*
X4738Y1465D01*
X4721D01*
X4713Y1456D01*
Y1448D01*
X4721Y1440D01*
X4738D01*
X4746Y1431D01*
Y1423D01*
X4738Y1415D01*
X4721D01*
X4713Y1423D01*
X4763Y1415D02*
Y1465D01*
X4788D01*
X4796Y1456D01*
Y1440D01*
X4788Y1431D01*
X4763D01*
X483Y1163D02*
X449D01*
X433Y1180D01*
X449Y1197D01*
X483D01*
X458D01*
Y1163D01*
X433Y1313D02*
X483D01*
X466D01*
X433Y1347D01*
X458Y1322D01*
X483Y1347D01*
X826Y2222D02*
X859D01*
X842Y2239D02*
Y2205D01*
X959Y2230D02*
X934D01*
X925Y2222D01*
Y2205D01*
X934Y2197D01*
X959D01*
X975Y2247D02*
Y2197D01*
Y2222D01*
X984Y2230D01*
X1000D01*
X1009Y2222D01*
Y2197D01*
X1034Y2230D02*
X1050D01*
X1059Y2222D01*
Y2197D01*
X1034D01*
X1025Y2205D01*
X1034Y2214D01*
X1059D01*
X1075Y2230D02*
Y2197D01*
Y2214D01*
X1084Y2222D01*
X1092Y2230D01*
X1100D01*
X1142Y2180D02*
X1150D01*
X1159Y2189D01*
Y2230D01*
X1134D01*
X1125Y2222D01*
Y2205D01*
X1134Y2197D01*
X1159D01*
X1200D02*
X1184D01*
X1175Y2205D01*
Y2222D01*
X1184Y2230D01*
X1200D01*
X1209Y2222D01*
Y2214D01*
X1175D01*
X1225Y2230D02*
Y2197D01*
Y2214D01*
X1234Y2222D01*
X1242Y2230D01*
X1250D01*
X1325Y2197D02*
X1342D01*
X1334D01*
Y2230D01*
X1325D01*
X1367Y2197D02*
Y2230D01*
X1392D01*
X1400Y2222D01*
Y2197D01*
X1467Y2222D02*
X1500D01*
X902Y2870D02*
X935D01*
X918Y2886D02*
Y2853D01*
X1002Y2895D02*
Y2845D01*
X1027D01*
X1035Y2853D01*
Y2861D01*
X1027Y2870D01*
X1002D01*
X1027D01*
X1035Y2878D01*
Y2886D01*
X1027Y2895D01*
X1002D01*
X1060Y2878D02*
X1077D01*
X1085Y2870D01*
Y2845D01*
X1060D01*
X1052Y2853D01*
X1060Y2861D01*
X1085D01*
X1110Y2886D02*
Y2878D01*
X1102D01*
X1118D01*
X1110D01*
Y2853D01*
X1118Y2845D01*
X1152Y2886D02*
Y2878D01*
X1143D01*
X1160D01*
X1152D01*
Y2853D01*
X1160Y2845D01*
X1235D02*
X1252D01*
X1243D01*
Y2878D01*
X1235D01*
X1277Y2845D02*
Y2878D01*
X1302D01*
X1310Y2870D01*
Y2845D01*
X1377Y2870D02*
X1410D01*
X53Y2654D02*
Y2704D01*
X78D01*
X87Y2696D01*
Y2679D01*
X78Y2671D01*
X53D01*
X112Y2654D02*
X128D01*
X137Y2663D01*
Y2679D01*
X128Y2688D01*
X112D01*
X103Y2679D01*
Y2663D01*
X112Y2654D01*
X153Y2688D02*
Y2663D01*
X162Y2654D01*
X170Y2663D01*
X178Y2654D01*
X187Y2663D01*
Y2688D01*
X228Y2654D02*
X212D01*
X203Y2663D01*
Y2679D01*
X212Y2688D01*
X228D01*
X237Y2679D01*
Y2671D01*
X203D01*
X253Y2688D02*
Y2654D01*
Y2671D01*
X262Y2679D01*
X270Y2688D01*
X278D01*
X353Y2654D02*
X378D01*
X387Y2663D01*
X378Y2671D01*
X362D01*
X353Y2679D01*
X362Y2688D01*
X387D01*
X403D02*
Y2663D01*
X412Y2654D01*
X420Y2663D01*
X428Y2654D01*
X437Y2663D01*
Y2688D01*
X453Y2654D02*
X470D01*
X462D01*
Y2688D01*
X453D01*
X503Y2696D02*
Y2688D01*
X495D01*
X512D01*
X503D01*
Y2663D01*
X512Y2654D01*
X570Y2688D02*
X545D01*
X537Y2679D01*
Y2663D01*
X545Y2654D01*
X570D01*
X586Y2704D02*
Y2654D01*
Y2679D01*
X595Y2688D01*
X611D01*
X620Y2679D01*
Y2654D01*
X541Y1025D02*
X533Y1033D01*
X516D01*
X508Y1025D01*
Y1016D01*
X516Y1008D01*
X533D01*
X541Y1000D01*
Y991D01*
X533Y983D01*
X516D01*
X508Y991D01*
X583Y983D02*
X566D01*
X558Y991D01*
Y1008D01*
X566Y1016D01*
X583D01*
X591Y1008D01*
Y1000D01*
X558D01*
X608Y1016D02*
Y983D01*
Y1000D01*
X616Y1008D01*
X625Y1016D01*
X633D01*
X658D02*
X675Y983D01*
X691Y1016D01*
X716Y983D02*
X733D01*
X741Y991D01*
Y1008D01*
X733Y1016D01*
X716D01*
X708Y1008D01*
Y991D01*
X716Y983D01*
X791Y1025D02*
X783Y1033D01*
X766D01*
X758Y1025D01*
Y991D01*
X766Y983D01*
X783D01*
X791Y991D01*
X833Y983D02*
X816D01*
X808Y991D01*
Y1008D01*
X816Y1016D01*
X833D01*
X841Y1008D01*
Y1000D01*
X808D01*
X858Y983D02*
Y1016D01*
X883D01*
X891Y1008D01*
Y983D01*
X916Y1025D02*
Y1016D01*
X908D01*
X925D01*
X916D01*
Y991D01*
X925Y983D01*
X975D02*
X958D01*
X950Y991D01*
Y1008D01*
X958Y1016D01*
X975D01*
X983Y1008D01*
Y1000D01*
X950D01*
X1000Y1016D02*
Y983D01*
Y1000D01*
X1008Y1008D01*
X1016Y1016D01*
X1024D01*
X859Y194D02*
X850Y202D01*
X834D01*
X826Y194D01*
Y186D01*
X834Y177D01*
X850D01*
X859Y169D01*
Y161D01*
X850Y152D01*
X834D01*
X826Y161D01*
X900Y152D02*
X884D01*
X875Y161D01*
Y177D01*
X884Y186D01*
X900D01*
X909Y177D01*
Y169D01*
X875D01*
X925Y186D02*
Y152D01*
Y169D01*
X934Y177D01*
X942Y186D01*
X950D01*
X975D02*
X992Y152D01*
X1009Y186D01*
X1034Y152D02*
X1050D01*
X1059Y161D01*
Y177D01*
X1050Y186D01*
X1034D01*
X1025Y177D01*
Y161D01*
X1034Y152D01*
X1075D02*
Y202D01*
X1100D01*
X1109Y194D01*
Y177D01*
X1100Y169D01*
X1075D01*
X1092D02*
X1109Y152D01*
X872Y499D02*
X863Y507D01*
X847D01*
X838Y499D01*
Y491D01*
X847Y482D01*
X863D01*
X872Y474D01*
Y466D01*
X863Y457D01*
X847D01*
X838Y466D01*
X913Y457D02*
X897D01*
X888Y466D01*
Y482D01*
X897Y491D01*
X913D01*
X922Y482D01*
Y474D01*
X888D01*
X938Y491D02*
Y457D01*
Y474D01*
X946Y482D01*
X955Y491D01*
X963D01*
X988D02*
X1005Y457D01*
X1021Y491D01*
X1046Y457D02*
X1063D01*
X1071Y466D01*
Y482D01*
X1063Y491D01*
X1046D01*
X1038Y482D01*
Y466D01*
X1046Y457D01*
X1088Y507D02*
Y457D01*
X1121D01*
D33*
X3796Y2723D02*
G03*
X3396Y2728I-200J0D01*
G01*
X4469Y2728D02*
G03*
X4069Y2733I-200J0D01*
G01*
X325Y1457D02*
G03*
X320Y1057I0J-200D01*
G01*
X3396Y2624D02*
X3792D01*
X3396Y2626D02*
Y2736D01*
X3795Y2621D02*
X3797Y2720D01*
X4069Y2629D02*
X4465D01*
X4069Y2631D02*
Y2741D01*
X4468Y2626D02*
X4470Y2725D01*
X424Y1057D02*
Y1453D01*
X312Y1057D02*
X422D01*
X328Y1458D02*
X427Y1455D01*
D34*
X2175Y2910D02*
G03*
X2041Y2910I-67J-27D01*
G01*
X2696D02*
G03*
X2562Y2910I-67J-27D01*
G01*
X2286Y2629D02*
Y2756D01*
X1930Y2629D02*
X2286D01*
X1930D02*
Y2756D01*
X2451Y2629D02*
Y2756D01*
Y2629D02*
X2807D01*
Y2756D01*
X0Y0D02*
X5000D01*
X0D02*
Y3000D01*
X5000D01*
Y0D02*
Y3000D01*
D35*
X3307Y2423D02*
G03*
X3703Y2423I198J-150D01*
G01*
X4232Y2121D02*
G03*
X3836Y2121I-198J150D01*
G01*
X2763Y2225D02*
G03*
X2367Y2225I-198J150D01*
G01*
X4689Y2491D02*
X4799D01*
Y2851D01*
X4579D02*
X4799D01*
X4579Y2491D02*
X4689D01*
X4579D02*
Y2851D01*
X2291Y1815D02*
Y1925D01*
Y1815D02*
X2651D01*
Y2035D01*
X2291Y1925D02*
Y2035D01*
X2651D01*
X3148Y2443D02*
X3258D01*
Y2803D01*
X3038D02*
X3258D01*
X3038Y2443D02*
X3148D01*
X3038D02*
Y2803D01*
X2066Y2424D02*
Y2534D01*
X1706D02*
X2066D01*
X1706Y2314D02*
Y2534D01*
X2066Y2314D02*
Y2424D01*
X1706Y2314D02*
X2066D01*
X3307Y2423D02*
X3703D01*
X3836Y2121D02*
X4232D01*
X2367Y2225D02*
X2763D01*
X3798Y1862D02*
Y1972D01*
X3438D02*
X3798D01*
X3438Y1752D02*
Y1972D01*
X3798Y1752D02*
Y1862D01*
X3438Y1752D02*
X3798D01*
X902Y2515D02*
X1410D01*
X902Y2261D02*
Y2515D01*
Y2261D02*
X1410D01*
Y2515D01*
X2246Y1351D02*
X2356D01*
Y1711D01*
X2136D02*
X2356D01*
X2136Y1351D02*
X2246D01*
X2136D02*
Y1711D01*
X3231Y718D02*
Y1288D01*
X2661Y718D02*
Y1288D01*
X3231D01*
X2661Y718D02*
X3231D01*
X3599Y1077D02*
X3959D01*
X3599Y967D02*
Y1077D01*
X3959Y857D02*
Y1077D01*
X3599Y857D02*
X3959D01*
X3599D02*
Y967D01*
X4067Y1379D02*
X4554D01*
X4067D02*
X4829D01*
X4067Y871D02*
X4829D01*
Y1379D01*
X4067Y871D02*
Y1379D01*
X1410Y2565D02*
Y2819D01*
X902Y2565D02*
X1410D01*
X902D02*
Y2819D01*
X1410D01*
X4638Y459D02*
Y819D01*
Y459D02*
X4748D01*
X4638Y819D02*
X4858D01*
Y459D02*
Y819D01*
X4748Y459D02*
X4858D01*
X1646Y288D02*
Y448D01*
Y528D02*
Y688D01*
X1876Y288D02*
Y448D01*
Y528D02*
Y688D01*
X1646Y288D02*
X1876D01*
X1646Y688D02*
X1876D01*
X1257Y485D02*
X1617D01*
X1257Y375D02*
Y485D01*
X1617Y265D02*
Y485D01*
X1257Y265D02*
X1617D01*
X1257D02*
Y375D01*
Y828D02*
X1617D01*
X1257Y718D02*
Y828D01*
X1617Y608D02*
Y828D01*
X1257Y608D02*
X1617D01*
X1257D02*
Y718D01*
X2887Y1966D02*
X3247D01*
X2887Y1856D02*
Y1966D01*
X3247Y1746D02*
Y1966D01*
X2887Y1746D02*
X3247D01*
X2887D02*
Y1856D01*
X2860Y1998D02*
Y2358D01*
Y1998D02*
X2970D01*
X2860Y2358D02*
X3080D01*
Y1998D02*
Y2358D01*
X2970Y1998D02*
X3080D01*
X39Y380D02*
X801D01*
Y634D01*
X39D02*
X801D01*
X39Y380D02*
Y634D01*
Y126D02*
X801D01*
Y380D01*
X39D02*
X801D01*
X39Y126D02*
Y380D01*
Y698D02*
X801D01*
Y952D01*
X39D02*
X801D01*
X39Y698D02*
Y952D01*
X502Y1885D02*
X862D01*
Y1995D01*
X502Y1885D02*
Y2105D01*
X862D01*
Y1995D02*
Y2105D01*
X42Y2709D02*
X804D01*
Y2963D01*
X42D02*
X804D01*
X42Y2709D02*
Y2963D01*
D36*
X2559Y1363D02*
G03*
X2559Y1363I-12J0D01*
G01*
X2001Y1401D02*
G03*
X2001Y1401I-525J0D01*
G01*
D37*
X1940Y457D02*
G03*
X2398Y457I229J0D01*
G01*
Y965D02*
G03*
X1940Y965I-229J0D01*
G01*
X1940Y457D02*
Y965D01*
X2398Y457D02*
Y965D01*
D38*
X2109Y1948D02*
Y2029D01*
X2149D01*
X2163Y2016D01*
Y1989D01*
X2149Y1975D01*
X2109D01*
X2136D02*
X2163Y1948D01*
X2190Y2029D02*
X2244D01*
Y2016D01*
X2190Y1962D01*
Y1948D01*
X4577Y2893D02*
Y2974D01*
X4618D01*
X4631Y2961D01*
Y2934D01*
X4618Y2920D01*
X4577D01*
X4604D02*
X4631Y2893D01*
X4699D02*
Y2974D01*
X4658Y2934D01*
X4712D01*
X3838Y1763D02*
Y1844D01*
X3878D01*
X3892Y1830D01*
Y1803D01*
X3878Y1790D01*
X3838D01*
X3865D02*
X3892Y1763D01*
X3919Y1830D02*
X3932Y1844D01*
X3959D01*
X3973Y1830D01*
Y1817D01*
X3959Y1803D01*
X3973Y1790D01*
Y1776D01*
X3959Y1763D01*
X3932D01*
X3919Y1776D01*
Y1790D01*
X3932Y1803D01*
X3919Y1817D01*
Y1830D01*
X3932Y1803D02*
X3959D01*
X1842Y2184D02*
Y2265D01*
X1882D01*
X1895Y2252D01*
Y2225D01*
X1882Y2211D01*
X1842D01*
X1868D02*
X1895Y2184D01*
X1976Y2265D02*
X1949Y2252D01*
X1922Y2225D01*
Y2198D01*
X1936Y2184D01*
X1963D01*
X1976Y2198D01*
Y2211D01*
X1963Y2225D01*
X1922D01*
X3086Y2362D02*
Y2443D01*
X3127D01*
X3140Y2430D01*
Y2403D01*
X3127Y2389D01*
X3086D01*
X3113D02*
X3140Y2362D01*
X3221Y2443D02*
X3167D01*
Y2403D01*
X3194Y2416D01*
X3208D01*
X3221Y2403D01*
Y2376D01*
X3208Y2362D01*
X3181D01*
X3167Y2376D01*
X2848Y2490D02*
Y2544D01*
X2834Y2557D01*
X2807D01*
X2794Y2544D01*
Y2490D01*
X2807Y2476D01*
X2834D01*
X2821Y2503D02*
X2848Y2476D01*
X2834D02*
X2848Y2490D01*
X2929Y2557D02*
X2875D01*
Y2517D01*
X2902Y2530D01*
X2915D01*
X2929Y2517D01*
Y2490D01*
X2915Y2476D01*
X2888D01*
X2875Y2490D01*
X3643Y2452D02*
Y2506D01*
X3630Y2519D01*
X3603D01*
X3589Y2506D01*
Y2452D01*
X3603Y2438D01*
X3630D01*
X3616Y2465D02*
X3643Y2438D01*
X3630D02*
X3643Y2452D01*
X3710Y2438D02*
Y2519D01*
X3670Y2479D01*
X3724D01*
X4311Y2051D02*
Y2105D01*
X4298Y2118D01*
X4271D01*
X4257Y2105D01*
Y2051D01*
X4271Y2037D01*
X4298D01*
X4284Y2064D02*
X4311Y2037D01*
X4298D02*
X4311Y2051D01*
X4338Y2105D02*
X4352Y2118D01*
X4379D01*
X4392Y2105D01*
Y2091D01*
X4379Y2078D01*
X4365D01*
X4379D01*
X4392Y2064D01*
Y2051D01*
X4379Y2037D01*
X4352D01*
X4338Y2051D01*
X3343Y2871D02*
Y2925D01*
X3330Y2938D01*
X3303D01*
X3289Y2925D01*
Y2871D01*
X3303Y2858D01*
X3330D01*
X3316Y2884D02*
X3343Y2858D01*
X3330D02*
X3343Y2871D01*
X3424Y2858D02*
X3370D01*
X3424Y2911D01*
Y2925D01*
X3411Y2938D01*
X3384D01*
X3370Y2925D01*
X4042Y2863D02*
Y2917D01*
X4028Y2931D01*
X4001D01*
X3988Y2917D01*
Y2863D01*
X4001Y2850D01*
X4028D01*
X4015Y2877D02*
X4042Y2850D01*
X4028D02*
X4042Y2863D01*
X4069Y2850D02*
X4096D01*
X4082D01*
Y2931D01*
X4069Y2917D01*
X2807Y2951D02*
Y2870D01*
X2847D01*
X2861Y2884D01*
Y2938D01*
X2847Y2951D01*
X2807D01*
X2942Y2938D02*
X2928Y2951D01*
X2901D01*
X2888Y2938D01*
Y2924D01*
X2901Y2911D01*
X2928D01*
X2942Y2897D01*
Y2884D01*
X2928Y2870D01*
X2901D01*
X2888Y2884D01*
X2969Y2938D02*
X2982Y2951D01*
X3009D01*
X3023Y2938D01*
Y2924D01*
X3009Y2911D01*
X2996D01*
X3009D01*
X3023Y2897D01*
Y2884D01*
X3009Y2870D01*
X2982D01*
X2969Y2884D01*
X1765Y2951D02*
Y2870D01*
X1806D01*
X1819Y2884D01*
Y2938D01*
X1806Y2951D01*
X1765D01*
X1900Y2938D02*
X1887Y2951D01*
X1860D01*
X1846Y2938D01*
Y2924D01*
X1860Y2911D01*
X1887D01*
X1900Y2897D01*
Y2884D01*
X1887Y2870D01*
X1860D01*
X1846Y2884D01*
X1981Y2870D02*
X1927D01*
X1981Y2924D01*
Y2938D01*
X1968Y2951D01*
X1941D01*
X1927Y2938D01*
X729Y2363D02*
X702D01*
X716D01*
Y2297D01*
X702Y2283D01*
X689D01*
X676Y2297D01*
X756Y2283D02*
Y2363D01*
X796D01*
X809Y2350D01*
Y2323D01*
X796Y2310D01*
X756D01*
X889Y2283D02*
X836D01*
X889Y2337D01*
Y2350D01*
X876Y2363D01*
X849D01*
X836Y2350D01*
X2441Y1667D02*
X2428Y1680D01*
X2401D01*
X2388Y1667D01*
Y1614D01*
X2401Y1600D01*
X2428D01*
X2441Y1614D01*
X2521Y1680D02*
X2494Y1667D01*
X2468Y1640D01*
Y1614D01*
X2481Y1600D01*
X2508D01*
X2521Y1614D01*
Y1627D01*
X2508Y1640D01*
X2468D01*
X832Y1435D02*
X818Y1448D01*
X791D01*
X777Y1435D01*
Y1380D01*
X791Y1367D01*
X818D01*
X832Y1380D01*
X859Y1448D02*
X914D01*
Y1435D01*
X859Y1380D01*
Y1367D01*
D39*
X3343Y658D02*
X3370D01*
X3356D01*
Y577D01*
X3343D01*
X3370D01*
X3465Y644D02*
X3451Y658D01*
X3424D01*
X3410Y644D01*
Y590D01*
X3424Y577D01*
X3451D01*
X3465Y590D01*
X3492Y577D02*
X3519D01*
X3505D01*
Y658D01*
X3492Y644D01*
X3686Y1198D02*
X3673Y1212D01*
X3646D01*
X3632Y1198D01*
Y1144D01*
X3646Y1130D01*
X3673D01*
X3686Y1144D01*
X3768Y1130D02*
X3713D01*
X3768Y1184D01*
Y1198D01*
X3754Y1212D01*
X3727D01*
X3713Y1198D01*
X4138Y1470D02*
X4125Y1483D01*
X4098D01*
X4084Y1470D01*
Y1416D01*
X4098Y1402D01*
X4125D01*
X4138Y1416D01*
X4179Y1402D02*
X4206D01*
X4220Y1416D01*
Y1443D01*
X4206Y1456D01*
X4179D01*
X4166Y1443D01*
Y1416D01*
X4179Y1402D01*
X4247D02*
Y1456D01*
X4287D01*
X4301Y1443D01*
Y1402D01*
X4328D02*
Y1456D01*
X4369D01*
X4382Y1443D01*
Y1402D01*
X4409D02*
X4436D01*
X4423D01*
Y1483D01*
X4409Y1470D01*
X743Y2692D02*
X715D01*
X729D01*
Y2625D01*
X715Y2611D01*
X702D01*
X688Y2625D01*
X770Y2611D02*
Y2692D01*
X810D01*
X824Y2679D01*
Y2652D01*
X810Y2638D01*
X770D01*
X851Y2611D02*
X878D01*
X864D01*
Y2692D01*
X851Y2679D01*
X4926Y715D02*
X4912Y729D01*
X4885D01*
X4872Y715D01*
Y661D01*
X4885Y648D01*
X4912D01*
X4926Y661D01*
X4953Y648D02*
X4980D01*
X4967D01*
Y729D01*
X4953Y715D01*
X1709Y729D02*
Y810D01*
X1750D01*
X1764Y797D01*
Y770D01*
X1750Y756D01*
X1709D01*
X1737D02*
X1764Y729D01*
X1791D02*
X1818D01*
X1804D01*
Y810D01*
X1791Y797D01*
X2410Y396D02*
X2465Y315D01*
Y396D02*
X2410Y315D01*
X2492D02*
X2519D01*
X2505D01*
Y396D01*
X2492Y383D01*
X2797Y1909D02*
X2784Y1923D01*
X2757D01*
X2743Y1909D01*
Y1855D01*
X2757Y1842D01*
X2784D01*
X2797Y1855D01*
X2824Y1909D02*
X2838Y1923D01*
X2865D01*
X2879Y1909D01*
Y1896D01*
X2865Y1882D01*
X2852D01*
X2865D01*
X2879Y1869D01*
Y1855D01*
X2865Y1842D01*
X2838D01*
X2824Y1855D01*
X1141Y820D02*
X1128Y833D01*
X1101D01*
X1087Y820D01*
Y765D01*
X1101Y752D01*
X1128D01*
X1141Y765D01*
X1209Y752D02*
Y833D01*
X1168Y792D01*
X1223D01*
X1507Y233D02*
X1494Y246D01*
X1466D01*
X1453Y233D01*
Y179D01*
X1466Y165D01*
X1494D01*
X1507Y179D01*
X1588Y246D02*
X1534D01*
Y206D01*
X1561Y219D01*
X1575D01*
X1588Y206D01*
Y179D01*
X1575Y165D01*
X1548D01*
X1534Y179D01*
X3086Y2210D02*
Y2291D01*
X3127D01*
X3140Y2278D01*
Y2250D01*
X3127Y2237D01*
X3086D01*
X3113D02*
X3140Y2210D01*
X3222D02*
X3167D01*
X3222Y2264D01*
Y2278D01*
X3208Y2291D01*
X3181D01*
X3167Y2278D01*
X892Y601D02*
X879Y615D01*
X852D01*
X838Y601D01*
Y547D01*
X852Y533D01*
X879D01*
X892Y547D01*
X933Y533D02*
X960D01*
X974Y547D01*
Y574D01*
X960Y588D01*
X933D01*
X919Y574D01*
Y547D01*
X933Y533D01*
X1001D02*
Y588D01*
X1041D01*
X1055Y574D01*
Y533D01*
X1082D02*
X1109D01*
X1096D01*
Y615D01*
X1082Y601D01*
X880Y309D02*
X866Y323D01*
X839D01*
X826Y309D01*
Y255D01*
X839Y241D01*
X866D01*
X880Y255D01*
X920Y241D02*
X947D01*
X961Y255D01*
Y282D01*
X947Y295D01*
X920D01*
X907Y282D01*
Y255D01*
X920Y241D01*
X988D02*
Y295D01*
X1029D01*
X1042Y282D01*
Y241D01*
X1123D02*
X1069D01*
X1123Y295D01*
Y309D01*
X1110Y323D01*
X1083D01*
X1069Y309D01*
X560Y1132D02*
X546Y1146D01*
X519D01*
X505Y1132D01*
Y1078D01*
X519Y1064D01*
X546D01*
X560Y1078D01*
X600Y1064D02*
X627D01*
X641Y1078D01*
Y1105D01*
X627Y1118D01*
X600D01*
X587Y1105D01*
Y1078D01*
X600Y1064D01*
X668D02*
Y1118D01*
X709D01*
X722Y1105D01*
Y1064D01*
X749Y1132D02*
X763Y1146D01*
X790D01*
X803Y1132D01*
Y1118D01*
X790Y1105D01*
X776D01*
X790D01*
X803Y1091D01*
Y1078D01*
X790Y1064D01*
X763D01*
X749Y1078D01*
X110Y2620D02*
X97Y2634D01*
X69D01*
X56Y2620D01*
Y2566D01*
X69Y2553D01*
X97D01*
X110Y2566D01*
X151Y2553D02*
X178D01*
X191Y2566D01*
Y2593D01*
X178Y2607D01*
X151D01*
X137Y2593D01*
Y2566D01*
X151Y2553D01*
X218D02*
Y2607D01*
X259D01*
X273Y2593D01*
Y2553D01*
X340D02*
Y2634D01*
X300Y2593D01*
X354D01*
X348Y1585D02*
Y1504D01*
X389D01*
X402Y1517D01*
Y1571D01*
X389Y1585D01*
X348D01*
X483Y1571D02*
X470Y1585D01*
X443D01*
X429Y1571D01*
Y1558D01*
X443Y1544D01*
X470D01*
X483Y1531D01*
Y1517D01*
X470Y1504D01*
X443D01*
X429Y1517D01*
X510Y1504D02*
X538D01*
X524D01*
Y1585D01*
X510Y1571D01*
X892Y1869D02*
Y1951D01*
X932D01*
X946Y1937D01*
Y1910D01*
X932Y1897D01*
X892D01*
X919D02*
X946Y1869D01*
X973Y1937D02*
X986Y1951D01*
X1013D01*
X1027Y1937D01*
Y1924D01*
X1013Y1910D01*
X1000D01*
X1013D01*
X1027Y1897D01*
Y1883D01*
X1013Y1869D01*
X986D01*
X973Y1883D01*
D40*
X3695Y2539D02*
Y2589D01*
Y2564D01*
X3545D01*
X3570Y2539D01*
X3329Y2516D02*
X3304Y2541D01*
Y2591D01*
X3329Y2616D01*
X3354D01*
X3379Y2591D01*
Y2566D01*
Y2591D01*
X3404Y2616D01*
X3429D01*
X3454Y2591D01*
Y2541D01*
X3429Y2516D01*
X3844Y2005D02*
Y1955D01*
Y1980D01*
X3993D01*
X3968Y2005D01*
X4209Y2028D02*
X4234Y2003D01*
Y1953D01*
X4209Y1928D01*
X4184D01*
X4159Y1953D01*
Y1978D01*
Y1953D01*
X4135Y1928D01*
X4110D01*
X4085Y1953D01*
Y2003D01*
X4110Y2028D01*
X2375Y2109D02*
Y2059D01*
Y2084D01*
X2525D01*
X2500Y2109D01*
X2741Y2132D02*
X2766Y2107D01*
Y2057D01*
X2741Y2032D01*
X2716D01*
X2691Y2057D01*
Y2082D01*
Y2057D01*
X2666Y2032D01*
X2641D01*
X2616Y2057D01*
Y2107D01*
X2641Y2132D01*
D41*
X4906Y1303D02*
X4863D01*
X4884D01*
Y1176D01*
X4906Y1197D01*
X4872Y1049D02*
X4956D01*
X4872Y964D01*
Y943D01*
X4893Y922D01*
X4935D01*
X4956Y943D01*
X3957Y1176D02*
X4042D01*
Y1240D01*
X4000Y1218D01*
X3979D01*
X3957Y1240D01*
Y1282D01*
X3979Y1303D01*
X4021D01*
X4042Y1282D01*
X3957Y922D02*
X4000Y943D01*
X4042Y986D01*
Y1028D01*
X4021Y1049D01*
X3979D01*
X3957Y1028D01*
Y1007D01*
X3979Y986D01*
X4042D01*
D42*
X4449Y1352D02*
D03*
M02*
