%FSLAX42Y42*%
%MOMM*%
G71*
G01*
G75*
G04 Layer_Physical_Order=1*
G04 Layer_Color=255*
%ADD10R,1.40X0.90*%
%ADD11R,0.90X1.40*%
%ADD12R,0.50X1.55*%
%ADD13R,0.50X1.55*%
%ADD14R,1.55X0.50*%
%ADD15R,1.50X1.30*%
%ADD16C,0.80*%
%ADD17C,0.50*%
%ADD18C,1.00*%
%ADD19C,0.40*%
%ADD20C,0.13*%
%ADD21C,3.00*%
%ADD22C,1.90*%
%ADD23C,2.00*%
%ADD24O,1.00X2.00*%
%ADD25O,1.00X2.00*%
%ADD26R,2.00X2.00*%
%ADD27C,1.50*%
%ADD28R,1.50X1.50*%
%ADD29C,1.57*%
%ADD30R,1.90X1.90*%
%ADD31C,0.80*%
%ADD32C,1.00*%
D10*
X4689Y2576D02*
D03*
Y2766D02*
D03*
X3148Y2528D02*
D03*
Y2718D02*
D03*
X2246Y1436D02*
D03*
Y1626D02*
D03*
X4748Y734D02*
D03*
Y544D02*
D03*
X2970Y2273D02*
D03*
Y2083D02*
D03*
D11*
X2376Y1925D02*
D03*
X2566D02*
D03*
X1981Y2424D02*
D03*
X1791D02*
D03*
X3713Y1862D02*
D03*
X3523D02*
D03*
X3874Y967D02*
D03*
X3684D02*
D03*
X1532Y375D02*
D03*
X1342D02*
D03*
X1532Y718D02*
D03*
X1342D02*
D03*
X3162Y1856D02*
D03*
X2972D02*
D03*
X587Y1995D02*
D03*
X777D02*
D03*
D12*
X3226Y1406D02*
D03*
X3146D02*
D03*
X3066D02*
D03*
X2986D02*
D03*
X2906D02*
D03*
X2826D02*
D03*
X2746D02*
D03*
X3226Y601D02*
D03*
X3146D02*
D03*
X3066D02*
D03*
X2986D02*
D03*
X2906D02*
D03*
X2826D02*
D03*
X2746D02*
D03*
X2666D02*
D03*
D13*
Y1406D02*
D03*
D14*
X3349Y723D02*
D03*
Y803D02*
D03*
Y883D02*
D03*
Y963D02*
D03*
Y1043D02*
D03*
Y1123D02*
D03*
Y1203D02*
D03*
Y1283D02*
D03*
X2544Y723D02*
D03*
Y803D02*
D03*
Y883D02*
D03*
Y963D02*
D03*
Y1043D02*
D03*
Y1123D02*
D03*
Y1203D02*
D03*
Y1283D02*
D03*
D15*
X1761Y393D02*
D03*
Y583D02*
D03*
D16*
X4844Y2367D02*
Y2720D01*
X4689Y2766D02*
X4798D01*
X4844Y2720D01*
X3632Y2126D02*
Y2273D01*
X2375Y1833D02*
Y1892D01*
Y1833D02*
X2507Y1702D01*
X2680D01*
X3505Y2516D02*
X3721Y2731D01*
X3505Y2273D02*
Y2516D01*
X3148Y2528D02*
X3301D01*
X3378Y2451D01*
Y2273D02*
Y2451D01*
X3162Y1856D02*
Y2057D01*
X3175Y2070D01*
X3785Y2045D02*
X3785Y2044D01*
X1761Y1436D02*
X2246D01*
X1726Y1401D02*
X1761Y1436D01*
X1726Y1401D02*
Y2035D01*
X1791Y2101D01*
Y2424D01*
X3523Y1862D02*
Y2017D01*
X3632Y2126D01*
Y2273D02*
X3904D01*
X3907Y2271D01*
X4737Y2261D02*
X4844Y2367D01*
X4737Y1636D02*
Y2261D01*
Y1636D02*
X4867Y1506D01*
Y1163D02*
Y1506D01*
X4702Y998D02*
X4867Y1163D01*
X4702Y906D02*
Y998D01*
Y906D02*
X4748Y860D01*
Y734D02*
Y860D01*
Y357D02*
Y544D01*
X3874Y795D02*
Y967D01*
X3874Y795D02*
X3874Y795D01*
X3713Y1862D02*
Y1973D01*
X3785Y2045D01*
X4526Y2271D02*
X4689Y2434D01*
Y2576D01*
X4161Y2271D02*
X4526D01*
X4034D02*
Y2376D01*
X4134Y2476D01*
X4326D02*
X4394Y2545D01*
Y2736D01*
X4134Y2476D02*
X4326D01*
X2972Y1856D02*
Y2081D01*
X2565Y2009D02*
X2565Y2008D01*
X2565Y2009D02*
Y2375D01*
X2060Y855D02*
X2169Y965D01*
X1761Y583D02*
X1899D01*
X1551D02*
X1761D01*
X1532Y602D02*
X1551Y583D01*
X1532Y602D02*
Y718D01*
X1899Y583D02*
X2060Y744D01*
Y855D01*
X1342Y564D02*
Y718D01*
X1341Y376D02*
Y564D01*
X1532Y375D02*
X1743D01*
X1761Y393D01*
X2105D01*
X2169Y457D01*
X777Y1995D02*
X1098D01*
X1283Y2179D01*
Y2388D01*
X1981Y2424D02*
Y2768D01*
D17*
X4161Y2085D02*
Y2271D01*
X3378Y1875D02*
Y2273D01*
X2718Y1003D02*
Y1085D01*
X2906Y1661D02*
X2972Y1727D01*
X2736Y1416D02*
X2746Y1406D01*
X2826D02*
X2832Y1411D01*
X2986Y1406D02*
Y1602D01*
X2330Y803D02*
X2544D01*
X2610Y1406D02*
X2666D01*
X3066Y1406D02*
Y1530D01*
X2544Y883D02*
X2927D01*
X2406D02*
X2544D01*
X3007Y803D02*
X3349D01*
X2428Y1043D02*
X2544D01*
X3346Y1206D02*
X3349Y1203D01*
X3146Y1406D02*
Y1493D01*
X3349Y723D02*
X3513D01*
X3226Y1406D02*
X3346D01*
X3349Y1283D02*
X3524D01*
X2378Y1203D02*
X2544D01*
X3349Y1123D02*
X3506D01*
X3349Y963D02*
X3680D01*
X2906Y1406D02*
Y1661D01*
X2544Y1283D02*
Y1335D01*
Y963D02*
X2678D01*
X2544Y1123D02*
X2680D01*
X3349Y1043D02*
X3571D01*
X2362Y723D02*
X2544D01*
X3349Y883D02*
X3589D01*
X3917Y264D02*
X4140Y488D01*
X3228Y264D02*
X3917D01*
X3146Y346D02*
X3228Y264D01*
X3439Y437D02*
X3919D01*
X3302Y574D02*
X3439Y437D01*
X3253Y574D02*
X3302D01*
X3226Y601D02*
X3253Y574D01*
X3467Y2914D02*
X4140D01*
X4689Y2766D02*
Y2859D01*
X4636Y2913D02*
X4689Y2859D01*
X4140Y2913D02*
X4636D01*
X4140D02*
X4140Y2914D01*
X4140Y2736D02*
Y2913D01*
X1898Y2914D02*
X2970D01*
X1791Y2807D02*
X1898Y2914D01*
X3010Y1206D02*
X3346D01*
X2375Y991D02*
X2428Y1043D01*
X2375Y914D02*
Y991D01*
Y914D02*
X2406Y883D01*
X2134Y1626D02*
X2134Y1626D01*
X2678Y963D02*
X2718Y1003D01*
X2731Y1041D02*
Y1073D01*
X2718Y1085D02*
X2731Y1073D01*
X2680Y1123D02*
X2718Y1085D01*
X3680Y963D02*
X3684Y967D01*
X3571Y1043D02*
X3619Y1092D01*
X3835D01*
X3874Y967D02*
Y1054D01*
X3835Y1092D02*
X3874Y1054D01*
X3146Y346D02*
Y601D01*
X674Y253D02*
X838Y89D01*
X3066Y257D02*
Y601D01*
X674Y812D02*
Y825D01*
X2927Y883D02*
X3007Y803D01*
X2970Y2083D02*
X2972Y2081D01*
Y1727D02*
Y1856D01*
X2986Y1602D02*
X3073Y1689D01*
X3066Y1530D02*
X3137Y1600D01*
X1341Y376D02*
X1342Y375D01*
X2134Y1626D02*
X2246D01*
X2297D01*
X2246Y1119D02*
X2375Y991D01*
X2246Y1119D02*
Y1436D01*
X2970Y2914D02*
X3148D01*
X3467D01*
X2970Y2273D02*
Y2914D01*
X3148Y2718D02*
Y2914D01*
X3467Y2731D02*
Y2914D01*
X2819Y1549D02*
Y1575D01*
Y1549D02*
X2832Y1537D01*
Y1411D02*
Y1537D01*
X838Y89D02*
X2898D01*
X3066Y257D01*
X2842Y165D02*
X2986Y309D01*
Y601D01*
X2799Y1675D02*
Y1786D01*
X2734Y1610D02*
X2799Y1675D01*
X2734Y1504D02*
Y1610D01*
Y1504D02*
X2736Y1502D01*
Y1416D02*
Y1502D01*
X2565Y1450D02*
Y1499D01*
Y1450D02*
X2610Y1406D01*
X2451Y1384D02*
X2494D01*
X2544Y1335D01*
X2375Y1206D02*
X2378Y1203D01*
X3146Y1493D02*
X3182Y1528D01*
X3073Y1689D02*
X3193D01*
X3378Y1875D01*
X3137Y1600D02*
X3231D01*
X3320Y1689D01*
X3398Y1528D02*
X3462Y1593D01*
X3182Y1528D02*
X3398D01*
X3346Y1406D02*
X3348Y1407D01*
X3524Y1283D02*
X3528Y1288D01*
X3506Y1123D02*
X3528Y1146D01*
X3589Y883D02*
X3672Y800D01*
X3691D01*
X2893Y442D02*
X2906Y455D01*
Y600D01*
X2906Y601D01*
X2826Y507D02*
Y601D01*
X2779Y460D02*
X2826Y507D01*
X2779Y384D02*
Y460D01*
X2555Y602D02*
X2665D01*
X2666Y601D01*
X674Y507D02*
X715D01*
X1057Y165D01*
X2842D01*
X2169Y965D02*
X2330Y803D01*
X2169Y457D02*
X2207D01*
X2286Y536D01*
Y648D01*
X2362Y723D01*
X881Y503D02*
X1138Y246D01*
X2583D01*
X2629Y292D01*
X881Y503D02*
Y605D01*
X674Y812D02*
X881Y605D01*
X1791Y2424D02*
Y2596D01*
X1791Y2596D01*
Y2543D02*
Y2596D01*
Y2807D01*
X1981Y2768D02*
X1981Y2769D01*
X3320Y1689D02*
X3764D01*
X4161Y2085D01*
X3942Y1505D02*
X4194Y1252D01*
X3664Y1505D02*
X3942D01*
X4140Y488D02*
Y587D01*
X4348Y795D02*
Y898D01*
X4448Y998D01*
X4140Y587D02*
X4348Y795D01*
X4463D02*
X4580Y912D01*
Y1130D01*
X4702Y1252D01*
X4748Y357D02*
X4750Y356D01*
X4448Y1252D02*
X4448D01*
X4315Y1120D02*
X4448Y1252D01*
X4100Y1120D02*
X4315D01*
X4031Y1052D02*
X4100Y1120D01*
X4031Y749D02*
Y1052D01*
X3962Y681D02*
X4031Y749D01*
X3556Y681D02*
X3962D01*
X3513Y723D02*
X3556Y681D01*
X1341Y564D02*
X1342Y564D01*
D18*
X1029Y2388D02*
Y2692D01*
X335Y2721D02*
X423Y2808D01*
X335Y2311D02*
Y2721D01*
Y2311D02*
X455Y2192D01*
X833D01*
X1029Y2388D01*
X423Y2808D02*
Y2836D01*
X169D02*
X179Y2826D01*
X2692Y2375D02*
Y2731D01*
X420Y253D02*
Y507D01*
Y825D01*
X2235Y2769D02*
X2476D01*
X2235Y2794D02*
X2502D01*
X2476Y2769D02*
X2502Y2794D01*
X2692Y2731D02*
X2756Y2794D01*
X420Y825D02*
Y1024D01*
X317Y1127D02*
X420Y1024D01*
X369Y1995D02*
X587D01*
X368Y1994D02*
X369Y1995D01*
X169Y2734D02*
Y2836D01*
X107Y2672D02*
X169Y2734D01*
X107Y1337D02*
Y2672D01*
Y1337D02*
X317Y1127D01*
X114Y1767D02*
X1232D01*
X1599Y1401D01*
X1726D01*
D19*
X2626Y422D02*
X2646D01*
X2746Y522D01*
Y601D01*
D20*
X4830Y1824D02*
Y1878D01*
Y1851D01*
X4912D01*
Y1919D02*
Y1947D01*
X4899Y1960D01*
X4871D01*
X4858Y1947D01*
Y1919D01*
X4871Y1906D01*
X4899D01*
X4912Y1919D01*
X4940Y1988D02*
X4858D01*
Y2029D01*
X4871Y2042D01*
X4899D01*
X4912Y2029D01*
Y1988D01*
D21*
X4400Y500D02*
D03*
X600Y2500D02*
D03*
D22*
X3467Y2731D02*
D03*
X3721D02*
D03*
X4140Y2736D02*
D03*
X4394D02*
D03*
X420Y507D02*
D03*
X674D02*
D03*
X420Y253D02*
D03*
X674D02*
D03*
X420Y825D02*
D03*
X674D02*
D03*
X317Y1127D02*
D03*
Y1381D02*
D03*
X423Y2836D02*
D03*
X677D02*
D03*
D23*
X2235Y2769D02*
D03*
X1981D02*
D03*
X2502D02*
D03*
X2756D02*
D03*
X1283Y2388D02*
D03*
Y2692D02*
D03*
D24*
X3378Y2273D02*
D03*
X3632D02*
D03*
X4161Y2271D02*
D03*
X3907D02*
D03*
X2692Y2375D02*
D03*
X2438D02*
D03*
D25*
X3505Y2273D02*
D03*
X4034Y2271D02*
D03*
X2565Y2375D02*
D03*
D26*
X1029Y2388D02*
D03*
Y2692D02*
D03*
D27*
X4194Y998D02*
D03*
Y1252D02*
D03*
X4448Y998D02*
D03*
Y1252D02*
D03*
X4702Y998D02*
D03*
X1726Y1401D02*
D03*
X1226D02*
D03*
D28*
X4702Y1252D02*
D03*
D29*
X2169Y457D02*
D03*
Y965D02*
D03*
D30*
X166Y507D02*
D03*
Y253D02*
D03*
Y825D02*
D03*
X169Y2836D02*
D03*
D31*
X2819Y1575D02*
D03*
X2779Y384D02*
D03*
X2626Y422D02*
D03*
X2555Y602D02*
D03*
X2375Y1206D02*
D03*
X2451Y1384D02*
D03*
X2565Y1499D02*
D03*
X2799Y1786D02*
D03*
X3528Y1146D02*
D03*
X3691Y800D02*
D03*
X3462Y1593D02*
D03*
X3348Y1407D02*
D03*
X3528Y1288D02*
D03*
X2893Y442D02*
D03*
D32*
X4463Y795D02*
D03*
X3228Y264D02*
D03*
X3010Y1206D02*
D03*
X2680Y1702D02*
D03*
X2083Y1626D02*
D03*
X2731Y1041D02*
D03*
X3919Y437D02*
D03*
X3874Y795D02*
D03*
X2629Y292D02*
D03*
X3175Y2070D02*
D03*
X3785Y2045D02*
D03*
X3664Y1505D02*
D03*
X2915Y1670D02*
D03*
X368Y1996D02*
D03*
X4750Y356D02*
D03*
X1341Y564D02*
D03*
M02*
