%FSLAX42Y42*%
%MOMM*%
G71*
G01*
G75*
G04 Layer_Physical_Order=2*
G04 Layer_Color=16711680*
%ADD10R,1.40X0.90*%
%ADD11R,0.90X1.40*%
%ADD12R,0.50X1.55*%
%ADD13R,0.50X1.55*%
%ADD14R,1.55X0.50*%
%ADD15R,1.50X1.30*%
%ADD16C,0.80*%
%ADD17C,0.50*%
%ADD18C,1.00*%
%ADD19C,0.40*%
%ADD20C,0.13*%
%ADD21C,3.00*%
%ADD22C,1.90*%
%ADD23C,2.00*%
%ADD24O,1.00X2.00*%
%ADD25O,1.00X2.00*%
%ADD26R,2.00X2.00*%
%ADD27C,1.50*%
%ADD28R,1.50X1.50*%
%ADD29C,1.57*%
%ADD30R,1.90X1.90*%
%ADD31C,0.80*%
%ADD32C,1.00*%
G36*
X4953Y2281D02*
X4813D01*
Y1778D01*
X4953D01*
Y63D01*
X63D01*
Y138D01*
X116D01*
Y253D01*
Y368D01*
X63D01*
Y392D01*
X116D01*
Y507D01*
Y622D01*
X63D01*
Y710D01*
X116D01*
Y825D01*
Y940D01*
X63D01*
Y2721D01*
X284D01*
Y2921D01*
X329D01*
X334Y2910D01*
X322Y2894D01*
X311Y2866D01*
X307Y2836D01*
X311Y2806D01*
X322Y2778D01*
X341Y2754D01*
X365Y2736D01*
X393Y2724D01*
X423Y2720D01*
X453Y2724D01*
X481Y2736D01*
X505Y2754D01*
X523Y2778D01*
X535Y2806D01*
X539Y2836D01*
X535Y2866D01*
X523Y2894D01*
X505Y2918D01*
X506Y2921D01*
X583D01*
X588Y2910D01*
X576Y2894D01*
X565Y2866D01*
X561Y2836D01*
X565Y2806D01*
X576Y2778D01*
X595Y2754D01*
X619Y2736D01*
X647Y2724D01*
X677Y2720D01*
X707Y2724D01*
X735Y2736D01*
X759Y2754D01*
X777Y2778D01*
X789Y2806D01*
X793Y2836D01*
X789Y2866D01*
X777Y2894D01*
X759Y2918D01*
X760Y2921D01*
X4953D01*
Y2281D01*
D02*
G37*
%LPC*%
G36*
X4144Y948D02*
X4113D01*
X4127Y931D01*
X4144Y917D01*
Y948D01*
D02*
G37*
G36*
X4702Y1094D02*
X4678Y1091D01*
X4655Y1081D01*
X4635Y1066D01*
X4619Y1046D01*
X4610Y1023D01*
X4607Y998D01*
X4610Y974D01*
X4619Y950D01*
X4635Y931D01*
X4655Y915D01*
X4678Y906D01*
X4702Y903D01*
X4727Y906D01*
X4750Y915D01*
X4770Y931D01*
X4785Y950D01*
X4795Y974D01*
X4798Y998D01*
X4795Y1023D01*
X4785Y1046D01*
X4770Y1066D01*
X4750Y1081D01*
X4727Y1091D01*
X4702Y1094D01*
D02*
G37*
G36*
X317Y1243D02*
X287Y1239D01*
X259Y1228D01*
X235Y1209D01*
X216Y1185D01*
X205Y1157D01*
X201Y1127D01*
X205Y1097D01*
X216Y1069D01*
X235Y1045D01*
X259Y1027D01*
X287Y1015D01*
X317Y1011D01*
X347Y1015D01*
X375Y1027D01*
X399Y1045D01*
X417Y1069D01*
X429Y1097D01*
X433Y1127D01*
X429Y1157D01*
X417Y1185D01*
X399Y1209D01*
X375Y1228D01*
X347Y1239D01*
X317Y1243D01*
D02*
G37*
G36*
X4276Y948D02*
X4244D01*
Y917D01*
X4262Y931D01*
X4276Y948D01*
D02*
G37*
G36*
X281Y940D02*
X216D01*
Y875D01*
X281D01*
Y940D01*
D02*
G37*
G36*
X2169Y1064D02*
X2143Y1061D01*
X2119Y1051D01*
X2099Y1035D01*
X2083Y1014D01*
X2073Y990D01*
X2069Y965D01*
X2073Y939D01*
X2083Y915D01*
X2099Y894D01*
X2119Y878D01*
X2143Y868D01*
X2169Y865D01*
X2195Y868D01*
X2219Y878D01*
X2239Y894D01*
X2255Y915D01*
X2265Y939D01*
X2269Y965D01*
X2265Y990D01*
X2255Y1014D01*
X2239Y1035D01*
X2219Y1051D01*
X2195Y1061D01*
X2169Y1064D01*
D02*
G37*
G36*
X3691Y861D02*
X3667Y857D01*
X3647Y843D01*
X3634Y824D01*
X3629Y800D01*
X3634Y777D01*
X3647Y757D01*
X3667Y744D01*
X3691Y739D01*
X3714Y744D01*
X3734Y757D01*
X3747Y777D01*
X3752Y800D01*
X3747Y824D01*
X3734Y843D01*
X3714Y857D01*
X3691Y861D01*
D02*
G37*
G36*
X4448Y1094D02*
X4424Y1091D01*
X4401Y1081D01*
X4381Y1066D01*
X4365Y1046D01*
X4356Y1023D01*
X4353Y998D01*
X4356Y974D01*
X4365Y950D01*
X4381Y931D01*
X4401Y915D01*
X4424Y906D01*
X4448Y903D01*
X4473Y906D01*
X4496Y915D01*
X4516Y931D01*
X4531Y950D01*
X4541Y974D01*
X4544Y998D01*
X4541Y1023D01*
X4531Y1046D01*
X4516Y1066D01*
X4496Y1081D01*
X4473Y1091D01*
X4448Y1094D01*
D02*
G37*
G36*
Y1348D02*
X4424Y1345D01*
X4401Y1335D01*
X4381Y1320D01*
X4365Y1300D01*
X4356Y1277D01*
X4353Y1252D01*
X4356Y1228D01*
X4365Y1204D01*
X4381Y1185D01*
X4401Y1169D01*
X4424Y1160D01*
X4448Y1157D01*
X4473Y1160D01*
X4496Y1169D01*
X4516Y1185D01*
X4531Y1204D01*
X4541Y1228D01*
X4544Y1252D01*
X4541Y1277D01*
X4531Y1300D01*
X4516Y1320D01*
X4496Y1335D01*
X4473Y1345D01*
X4448Y1348D01*
D02*
G37*
G36*
X4194D02*
X4170Y1345D01*
X4147Y1335D01*
X4127Y1320D01*
X4111Y1300D01*
X4102Y1277D01*
X4099Y1252D01*
X4102Y1228D01*
X4111Y1204D01*
X4127Y1185D01*
X4147Y1169D01*
X4170Y1160D01*
X4194Y1157D01*
X4219Y1160D01*
X4242Y1169D01*
X4262Y1185D01*
X4277Y1204D01*
X4287Y1228D01*
X4290Y1252D01*
X4287Y1277D01*
X4277Y1300D01*
X4262Y1320D01*
X4242Y1335D01*
X4219Y1345D01*
X4194Y1348D01*
D02*
G37*
G36*
X3528Y1349D02*
X3505Y1344D01*
X3485Y1331D01*
X3472Y1311D01*
X3467Y1288D01*
X3472Y1264D01*
X3485Y1245D01*
X3505Y1231D01*
X3528Y1227D01*
X3551Y1231D01*
X3571Y1245D01*
X3585Y1264D01*
X3589Y1288D01*
X3585Y1311D01*
X3571Y1331D01*
X3551Y1344D01*
X3528Y1349D01*
D02*
G37*
G36*
X4797Y1347D02*
X4607D01*
Y1157D01*
X4797D01*
Y1347D01*
D02*
G37*
G36*
X4244Y1080D02*
Y1048D01*
X4276D01*
X4262Y1066D01*
X4244Y1080D01*
D02*
G37*
G36*
X4144D02*
X4127Y1066D01*
X4113Y1048D01*
X4144D01*
Y1080D01*
D02*
G37*
G36*
X2375Y1268D02*
X2351Y1263D01*
X2332Y1250D01*
X2318Y1230D01*
X2314Y1206D01*
X2318Y1183D01*
X2332Y1163D01*
X2351Y1150D01*
X2375Y1145D01*
X2398Y1150D01*
X2418Y1163D01*
X2431Y1183D01*
X2436Y1206D01*
X2431Y1230D01*
X2418Y1250D01*
X2398Y1263D01*
X2375Y1268D01*
D02*
G37*
G36*
X3528Y1207D02*
X3505Y1202D01*
X3485Y1189D01*
X3472Y1169D01*
X3467Y1146D01*
X3472Y1122D01*
X3485Y1102D01*
X3505Y1089D01*
X3528Y1084D01*
X3551Y1089D01*
X3571Y1102D01*
X3585Y1122D01*
X3589Y1146D01*
X3585Y1169D01*
X3571Y1189D01*
X3551Y1202D01*
X3528Y1207D01*
D02*
G37*
G36*
X2169Y556D02*
X2143Y553D01*
X2119Y543D01*
X2099Y527D01*
X2083Y506D01*
X2073Y482D01*
X2069Y457D01*
X2073Y431D01*
X2083Y407D01*
X2099Y386D01*
X2119Y370D01*
X2143Y360D01*
X2169Y357D01*
X2195Y360D01*
X2219Y370D01*
X2239Y386D01*
X2255Y407D01*
X2265Y431D01*
X2269Y457D01*
X2265Y482D01*
X2255Y506D01*
X2239Y527D01*
X2219Y543D01*
X2195Y553D01*
X2169Y556D01*
D02*
G37*
G36*
X4400Y671D02*
X4367Y668D01*
X4335Y658D01*
X4305Y642D01*
X4279Y621D01*
X4258Y595D01*
X4242Y565D01*
X4232Y533D01*
X4229Y500D01*
X4232Y467D01*
X4242Y435D01*
X4258Y405D01*
X4279Y379D01*
X4305Y358D01*
X4335Y342D01*
X4367Y332D01*
X4400Y329D01*
X4433Y332D01*
X4465Y342D01*
X4495Y358D01*
X4521Y379D01*
X4542Y405D01*
X4558Y435D01*
X4568Y467D01*
X4571Y500D01*
X4568Y533D01*
X4558Y565D01*
X4542Y595D01*
X4521Y621D01*
X4495Y642D01*
X4465Y658D01*
X4433Y668D01*
X4400Y671D01*
D02*
G37*
G36*
X674Y623D02*
X644Y619D01*
X616Y607D01*
X592Y589D01*
X574Y565D01*
X562Y537D01*
X558Y507D01*
X562Y477D01*
X574Y449D01*
X592Y425D01*
X616Y407D01*
X644Y395D01*
X674Y391D01*
X704Y395D01*
X732Y407D01*
X756Y425D01*
X775Y449D01*
X786Y477D01*
X790Y507D01*
X786Y537D01*
X775Y565D01*
X756Y589D01*
X732Y607D01*
X704Y619D01*
X674Y623D01*
D02*
G37*
G36*
X420D02*
X390Y619D01*
X362Y607D01*
X338Y589D01*
X320Y565D01*
X308Y537D01*
X304Y507D01*
X308Y477D01*
X320Y449D01*
X338Y425D01*
X362Y407D01*
X390Y395D01*
X420Y391D01*
X450Y395D01*
X478Y407D01*
X502Y425D01*
X521Y449D01*
X532Y477D01*
X536Y507D01*
X532Y537D01*
X521Y565D01*
X502Y589D01*
X478Y607D01*
X450Y619D01*
X420Y623D01*
D02*
G37*
G36*
X674Y369D02*
X644Y365D01*
X616Y353D01*
X592Y335D01*
X574Y311D01*
X562Y283D01*
X558Y253D01*
X562Y223D01*
X574Y195D01*
X592Y171D01*
X616Y153D01*
X644Y141D01*
X674Y137D01*
X704Y141D01*
X732Y153D01*
X756Y171D01*
X775Y195D01*
X786Y223D01*
X790Y253D01*
X786Y283D01*
X775Y311D01*
X756Y335D01*
X732Y353D01*
X704Y365D01*
X674Y369D01*
D02*
G37*
G36*
X420D02*
X390Y365D01*
X362Y353D01*
X338Y335D01*
X320Y311D01*
X308Y283D01*
X304Y253D01*
X308Y223D01*
X320Y195D01*
X338Y171D01*
X362Y153D01*
X390Y141D01*
X420Y137D01*
X450Y141D01*
X478Y153D01*
X502Y171D01*
X521Y195D01*
X532Y223D01*
X536Y253D01*
X532Y283D01*
X521Y311D01*
X502Y335D01*
X478Y353D01*
X450Y365D01*
X420Y369D01*
D02*
G37*
G36*
X281Y368D02*
X216D01*
Y303D01*
X281D01*
Y368D01*
D02*
G37*
G36*
Y203D02*
X216D01*
Y138D01*
X281D01*
Y203D01*
D02*
G37*
G36*
X674Y941D02*
X644Y937D01*
X616Y925D01*
X592Y907D01*
X574Y883D01*
X562Y855D01*
X558Y825D01*
X562Y795D01*
X574Y767D01*
X592Y743D01*
X616Y724D01*
X644Y712D01*
X674Y709D01*
X704Y712D01*
X732Y724D01*
X756Y743D01*
X775Y767D01*
X786Y795D01*
X790Y825D01*
X786Y855D01*
X775Y883D01*
X756Y907D01*
X732Y925D01*
X704Y937D01*
X674Y941D01*
D02*
G37*
G36*
X420D02*
X390Y937D01*
X362Y925D01*
X338Y907D01*
X320Y883D01*
X308Y855D01*
X304Y825D01*
X308Y795D01*
X320Y767D01*
X338Y743D01*
X362Y724D01*
X390Y712D01*
X420Y709D01*
X450Y712D01*
X478Y724D01*
X502Y743D01*
X521Y767D01*
X532Y795D01*
X536Y825D01*
X532Y855D01*
X521Y883D01*
X502Y907D01*
X478Y925D01*
X450Y937D01*
X420Y941D01*
D02*
G37*
G36*
X4463Y866D02*
X4445Y863D01*
X4428Y856D01*
X4277D01*
X4254Y852D01*
X4234Y838D01*
X3901Y505D01*
X3884Y498D01*
X3869Y487D01*
X3858Y472D01*
X3851Y455D01*
X3849Y437D01*
X3851Y419D01*
X3858Y402D01*
X3869Y387D01*
X3884Y376D01*
X3901Y369D01*
X3919Y366D01*
X3937Y369D01*
X3955Y376D01*
X3969Y387D01*
X3980Y402D01*
X3987Y419D01*
X4303Y734D01*
X4428D01*
X4445Y727D01*
X4463Y724D01*
X4481Y727D01*
X4498Y734D01*
X4513Y745D01*
X4524Y760D01*
X4531Y777D01*
X4533Y795D01*
X4531Y813D01*
X4524Y830D01*
X4513Y845D01*
X4498Y856D01*
X4481Y863D01*
X4463Y866D01*
D02*
G37*
G36*
X281Y775D02*
X216D01*
Y710D01*
X281D01*
Y775D01*
D02*
G37*
G36*
X2893Y503D02*
X2870Y498D01*
X2850Y485D01*
X2837Y465D01*
X2832Y442D01*
X2834Y431D01*
X2822Y426D01*
X2822Y427D01*
X2802Y440D01*
X2779Y445D01*
X2755Y440D01*
X2736Y427D01*
X2722Y407D01*
X2718Y384D01*
X2722Y360D01*
X2736Y340D01*
X2755Y327D01*
X2777Y323D01*
X2777D01*
X2776Y310D01*
X2697D01*
X2697Y310D01*
X2690Y327D01*
X2679Y342D01*
X2664Y353D01*
X2647Y360D01*
X2647Y365D01*
X2650Y365D01*
X2670Y378D01*
X2683Y398D01*
X2688Y422D01*
X2683Y445D01*
X2670Y465D01*
X2650Y478D01*
X2626Y483D01*
X2603Y478D01*
X2583Y465D01*
X2570Y445D01*
X2565Y422D01*
X2570Y398D01*
X2583Y378D01*
X2599Y368D01*
X2598Y355D01*
X2594Y353D01*
X2579Y342D01*
X2568Y327D01*
X2561Y310D01*
X2558Y292D01*
X2561Y274D01*
X2568Y257D01*
X2579Y242D01*
X2594Y231D01*
X2611Y224D01*
X2629Y221D01*
X2638Y223D01*
X2639Y222D01*
X2657Y218D01*
X3175D01*
X3178Y214D01*
X3193Y203D01*
X3210Y196D01*
X3228Y194D01*
X3247Y196D01*
X3264Y203D01*
X3278Y214D01*
X3289Y229D01*
X3297Y246D01*
X3299Y264D01*
X3297Y282D01*
X3289Y299D01*
X3278Y314D01*
X3264Y325D01*
X3247Y332D01*
X3228Y335D01*
X3210Y332D01*
X3193Y325D01*
X3178Y314D01*
X3175Y310D01*
X2782D01*
X2780Y323D01*
X2802Y327D01*
X2822Y340D01*
X2835Y360D01*
X2840Y384D01*
X2838Y394D01*
X2850Y399D01*
X2850Y399D01*
X2870Y385D01*
X2893Y381D01*
X2916Y385D01*
X2936Y399D01*
X2950Y419D01*
X2954Y442D01*
X2950Y465D01*
X2936Y485D01*
X2916Y498D01*
X2893Y503D01*
D02*
G37*
G36*
X281Y457D02*
X216D01*
Y392D01*
X281D01*
Y457D01*
D02*
G37*
G36*
Y622D02*
X216D01*
Y557D01*
X281D01*
Y622D01*
D02*
G37*
G36*
X2555Y663D02*
X2532Y658D01*
X2512Y645D01*
X2499Y625D01*
X2494Y602D01*
X2499Y579D01*
X2512Y559D01*
X2532Y545D01*
X2555Y541D01*
X2579Y545D01*
X2598Y559D01*
X2612Y579D01*
X2616Y602D01*
X2612Y625D01*
X2598Y645D01*
X2579Y658D01*
X2555Y663D01*
D02*
G37*
G36*
X1149Y2812D02*
X909D01*
Y2572D01*
X1149D01*
Y2812D01*
D02*
G37*
G36*
X2692Y2496D02*
X2674Y2493D01*
X2657Y2486D01*
X2642Y2475D01*
X2635Y2465D01*
X2623D01*
X2615Y2475D01*
X2601Y2486D01*
X2584Y2493D01*
X2565Y2496D01*
X2547Y2493D01*
X2530Y2486D01*
X2515Y2475D01*
X2508Y2465D01*
X2496D01*
X2488Y2475D01*
Y2375D01*
Y2275D01*
X2496Y2284D01*
X2508D01*
X2515Y2275D01*
X2530Y2264D01*
X2547Y2257D01*
X2565Y2254D01*
X2584Y2257D01*
X2601Y2264D01*
X2615Y2275D01*
X2623Y2284D01*
X2635D01*
X2642Y2275D01*
X2657Y2264D01*
X2674Y2257D01*
X2692Y2254D01*
X2711Y2257D01*
X2728Y2264D01*
X2742Y2275D01*
X2754Y2290D01*
X2761Y2307D01*
X2763Y2325D01*
Y2425D01*
X2761Y2443D01*
X2754Y2460D01*
X2742Y2475D01*
X2728Y2486D01*
X2711Y2493D01*
X2692Y2496D01*
D02*
G37*
G36*
X1392Y2642D02*
X1333D01*
Y2583D01*
X1343Y2588D01*
X1368Y2607D01*
X1388Y2632D01*
X1392Y2642D01*
D02*
G37*
G36*
X1233D02*
X1174D01*
X1178Y2632D01*
X1197Y2607D01*
X1222Y2588D01*
X1233Y2583D01*
Y2642D01*
D02*
G37*
G36*
X2388Y2475D02*
X2377Y2460D01*
X2370Y2443D01*
X2368Y2425D01*
Y2425D01*
X2388D01*
Y2475D01*
D02*
G37*
G36*
X3632Y2394D02*
X3614Y2391D01*
X3597Y2384D01*
X3582Y2373D01*
X3575Y2364D01*
X3562D01*
X3555Y2373D01*
X3541Y2384D01*
X3523Y2391D01*
X3505Y2394D01*
X3487Y2391D01*
X3470Y2384D01*
X3455Y2373D01*
X3448Y2364D01*
X3435D01*
X3428Y2373D01*
X3414Y2384D01*
X3396Y2391D01*
X3378Y2394D01*
X3360Y2391D01*
X3343Y2384D01*
X3328Y2373D01*
X3317Y2359D01*
X3310Y2342D01*
X3308Y2323D01*
Y2223D01*
X3310Y2205D01*
X3317Y2188D01*
X3328Y2173D01*
X3343Y2162D01*
X3360Y2155D01*
X3378Y2153D01*
X3396Y2155D01*
X3414Y2162D01*
X3428Y2173D01*
X3435Y2183D01*
X3448D01*
X3455Y2173D01*
X3470Y2162D01*
X3487Y2155D01*
X3505Y2153D01*
X3523Y2155D01*
X3541Y2162D01*
X3555Y2173D01*
X3562Y2183D01*
X3575D01*
X3582Y2173D01*
X3597Y2162D01*
X3614Y2155D01*
X3632Y2153D01*
X3650Y2155D01*
X3668Y2162D01*
X3682Y2173D01*
X3693Y2188D01*
X3700Y2205D01*
X3703Y2223D01*
Y2323D01*
X3700Y2342D01*
X3693Y2359D01*
X3682Y2373D01*
X3668Y2384D01*
X3650Y2391D01*
X3632Y2394D01*
D02*
G37*
G36*
X1333Y2497D02*
Y2438D01*
X1392D01*
X1388Y2448D01*
X1368Y2473D01*
X1343Y2492D01*
X1333Y2497D01*
D02*
G37*
G36*
X1233D02*
X1222Y2492D01*
X1197Y2473D01*
X1178Y2448D01*
X1174Y2438D01*
X1233D01*
Y2497D01*
D02*
G37*
G36*
X1333Y2802D02*
Y2742D01*
X1392D01*
X1388Y2753D01*
X1368Y2778D01*
X1343Y2797D01*
X1333Y2802D01*
D02*
G37*
G36*
X1233D02*
X1222Y2797D01*
X1197Y2778D01*
X1178Y2753D01*
X1174Y2742D01*
X1233D01*
Y2802D01*
D02*
G37*
G36*
X2756Y2890D02*
X2725Y2886D01*
X2695Y2873D01*
X2670Y2854D01*
X2651Y2829D01*
X2639Y2800D01*
X2635Y2772D01*
X2635D01*
X2625D01*
X2622Y2774D01*
X2619Y2800D01*
X2607Y2829D01*
X2587Y2854D01*
X2562Y2873D01*
X2533Y2886D01*
X2502Y2890D01*
X2471Y2886D01*
X2441Y2873D01*
X2416Y2854D01*
X2397Y2829D01*
X2385Y2800D01*
X2381Y2769D01*
X2385Y2737D01*
X2397Y2708D01*
X2416Y2683D01*
X2441Y2664D01*
X2471Y2652D01*
X2502Y2648D01*
X2533Y2652D01*
X2562Y2664D01*
X2587Y2683D01*
X2607Y2708D01*
X2619Y2737D01*
X2623Y2766D01*
X2633D01*
X2636Y2763D01*
X2639Y2737D01*
X2651Y2708D01*
X2670Y2683D01*
X2695Y2664D01*
X2725Y2652D01*
X2756Y2648D01*
X2787Y2652D01*
X2816Y2664D01*
X2841Y2683D01*
X2861Y2708D01*
X2873Y2737D01*
X2877Y2769D01*
X2873Y2800D01*
X2861Y2829D01*
X2841Y2854D01*
X2816Y2873D01*
X2787Y2886D01*
X2756Y2890D01*
D02*
G37*
G36*
X2235D02*
X2204Y2886D01*
X2175Y2873D01*
X2150Y2854D01*
X2130Y2829D01*
X2118Y2800D01*
X2115Y2772D01*
X2115D01*
X2104D01*
X2102Y2774D01*
X2098Y2800D01*
X2086Y2829D01*
X2067Y2854D01*
X2042Y2873D01*
X2013Y2886D01*
X1981Y2890D01*
X1950Y2886D01*
X1921Y2873D01*
X1896Y2854D01*
X1876Y2829D01*
X1864Y2800D01*
X1860Y2769D01*
X1864Y2737D01*
X1876Y2708D01*
X1896Y2683D01*
X1921Y2664D01*
X1950Y2652D01*
X1981Y2648D01*
X2013Y2652D01*
X2042Y2664D01*
X2067Y2683D01*
X2086Y2708D01*
X2098Y2737D01*
X2102Y2766D01*
X2112D01*
X2115Y2763D01*
X2118Y2737D01*
X2130Y2708D01*
X2150Y2683D01*
X2175Y2664D01*
X2204Y2652D01*
X2235Y2648D01*
X2267Y2652D01*
X2296Y2664D01*
X2321Y2683D01*
X2340Y2708D01*
X2352Y2737D01*
X2356Y2769D01*
X2352Y2800D01*
X2340Y2829D01*
X2321Y2854D01*
X2296Y2873D01*
X2267Y2886D01*
X2235Y2890D01*
D02*
G37*
G36*
X3721Y2847D02*
X3691Y2843D01*
X3663Y2832D01*
X3639Y2813D01*
X3620Y2789D01*
X3609Y2761D01*
X3605Y2731D01*
X3609Y2701D01*
X3620Y2673D01*
X3639Y2649D01*
X3663Y2631D01*
X3691Y2619D01*
X3721Y2615D01*
X3751Y2619D01*
X3779Y2631D01*
X3803Y2649D01*
X3821Y2673D01*
X3833Y2701D01*
X3837Y2731D01*
X3833Y2761D01*
X3821Y2789D01*
X3803Y2813D01*
X3779Y2832D01*
X3751Y2843D01*
X3721Y2847D01*
D02*
G37*
G36*
X3467D02*
X3437Y2843D01*
X3409Y2832D01*
X3385Y2813D01*
X3366Y2789D01*
X3355Y2761D01*
X3351Y2731D01*
X3355Y2701D01*
X3366Y2673D01*
X3385Y2649D01*
X3409Y2631D01*
X3437Y2619D01*
X3467Y2615D01*
X3497Y2619D01*
X3525Y2631D01*
X3549Y2649D01*
X3567Y2673D01*
X3579Y2701D01*
X3583Y2731D01*
X3579Y2761D01*
X3567Y2789D01*
X3549Y2813D01*
X3525Y2832D01*
X3497Y2843D01*
X3467Y2847D01*
D02*
G37*
G36*
X4394Y2852D02*
X4364Y2848D01*
X4336Y2837D01*
X4312Y2818D01*
X4293Y2794D01*
X4282Y2766D01*
X4278Y2736D01*
X4282Y2706D01*
X4293Y2678D01*
X4312Y2654D01*
X4336Y2636D01*
X4364Y2624D01*
X4394Y2620D01*
X4424Y2624D01*
X4452Y2636D01*
X4476Y2654D01*
X4494Y2678D01*
X4506Y2706D01*
X4510Y2736D01*
X4506Y2766D01*
X4494Y2794D01*
X4476Y2818D01*
X4452Y2837D01*
X4424Y2848D01*
X4394Y2852D01*
D02*
G37*
G36*
X4140D02*
X4110Y2848D01*
X4082Y2837D01*
X4058Y2818D01*
X4039Y2794D01*
X4028Y2766D01*
X4024Y2736D01*
X4028Y2706D01*
X4039Y2678D01*
X4058Y2654D01*
X4082Y2636D01*
X4110Y2624D01*
X4140Y2620D01*
X4170Y2624D01*
X4198Y2636D01*
X4222Y2654D01*
X4240Y2678D01*
X4252Y2706D01*
X4256Y2736D01*
X4252Y2766D01*
X4240Y2794D01*
X4222Y2818D01*
X4198Y2837D01*
X4170Y2848D01*
X4140Y2852D01*
D02*
G37*
G36*
X1176Y1482D02*
X1158Y1468D01*
X1144Y1451D01*
X1176D01*
Y1482D01*
D02*
G37*
G36*
X2451Y1445D02*
X2428Y1441D01*
X2408Y1428D01*
X2395Y1408D01*
X2390Y1384D01*
X2395Y1361D01*
X2408Y1341D01*
X2428Y1328D01*
X2451Y1323D01*
X2475Y1328D01*
X2494Y1341D01*
X2508Y1361D01*
X2512Y1384D01*
X2508Y1408D01*
X2494Y1428D01*
X2475Y1441D01*
X2451Y1445D01*
D02*
G37*
G36*
X2680Y1772D02*
X2661Y1770D01*
X2644Y1763D01*
X2630Y1752D01*
X2619Y1737D01*
X2612Y1720D01*
X2609Y1702D01*
X2612Y1684D01*
X2619Y1666D01*
X2630Y1652D01*
X2634Y1649D01*
Y1526D01*
X2622Y1522D01*
X2609Y1542D01*
X2589Y1555D01*
X2565Y1560D01*
X2542Y1555D01*
X2522Y1542D01*
X2509Y1522D01*
X2504Y1499D01*
X2509Y1475D01*
X2522Y1455D01*
X2542Y1442D01*
X2565Y1437D01*
X2589Y1442D01*
X2609Y1455D01*
X2622Y1475D01*
X2634Y1471D01*
Y1435D01*
X2634Y1435D01*
X2634D01*
X2637Y1418D01*
X2647Y1403D01*
X2876Y1174D01*
X2891Y1164D01*
X2908Y1161D01*
X2957D01*
X2960Y1157D01*
X2975Y1145D01*
X2992Y1138D01*
X3010Y1136D01*
X3028Y1138D01*
X3045Y1145D01*
X3060Y1157D01*
X3071Y1171D01*
X3078Y1188D01*
X3081Y1206D01*
X3078Y1225D01*
X3071Y1242D01*
X3060Y1256D01*
X3045Y1268D01*
X3028Y1275D01*
X3010Y1277D01*
X2992Y1275D01*
X2975Y1268D01*
X2960Y1256D01*
X2957Y1252D01*
X2927D01*
X2726Y1454D01*
Y1649D01*
X2730Y1652D01*
X2741Y1666D01*
X2748Y1684D01*
X2750Y1702D01*
X2748Y1720D01*
X2741Y1737D01*
X2730Y1752D01*
X2715Y1763D01*
X2698Y1770D01*
X2680Y1772D01*
D02*
G37*
G36*
X1276Y1482D02*
Y1451D01*
X1307D01*
X1293Y1468D01*
X1276Y1482D01*
D02*
G37*
G36*
X1726Y1496D02*
X1701Y1493D01*
X1678Y1483D01*
X1658Y1468D01*
X1643Y1448D01*
X1633Y1425D01*
X1630Y1401D01*
X1633Y1376D01*
X1643Y1353D01*
X1658Y1333D01*
X1678Y1318D01*
X1701Y1308D01*
X1726Y1305D01*
X1750Y1308D01*
X1774Y1318D01*
X1793Y1333D01*
X1809Y1353D01*
X1818Y1376D01*
X1821Y1401D01*
X1818Y1425D01*
X1809Y1448D01*
X1793Y1468D01*
X1774Y1483D01*
X1750Y1493D01*
X1726Y1496D01*
D02*
G37*
G36*
X368Y2067D02*
X340D01*
X322Y2065D01*
X305Y2058D01*
X290Y2046D01*
X189Y1945D01*
X178Y1930D01*
X171Y1913D01*
X168Y1895D01*
Y1459D01*
X171Y1441D01*
X178Y1424D01*
X189Y1409D01*
X203Y1396D01*
X201Y1381D01*
X205Y1351D01*
X216Y1323D01*
X235Y1299D01*
X259Y1281D01*
X287Y1269D01*
X317Y1265D01*
X347Y1269D01*
X375Y1281D01*
X399Y1299D01*
X417Y1323D01*
X429Y1351D01*
X433Y1381D01*
X429Y1411D01*
X417Y1439D01*
X399Y1463D01*
X375Y1482D01*
X347Y1493D01*
X317Y1497D01*
X309Y1504D01*
Y1866D01*
X370Y1926D01*
X387Y1928D01*
X404Y1935D01*
X418Y1947D01*
X429Y1961D01*
X436Y1978D01*
X439Y1996D01*
X436Y2015D01*
X429Y2032D01*
X418Y2046D01*
X404Y2058D01*
X387Y2065D01*
X368Y2067D01*
D02*
G37*
G36*
X1307Y1351D02*
X1276D01*
Y1319D01*
X1293Y1333D01*
X1307Y1351D01*
D02*
G37*
G36*
X1176D02*
X1144D01*
X1158Y1333D01*
X1176Y1319D01*
Y1351D01*
D02*
G37*
G36*
X1392Y2338D02*
X1333D01*
Y2278D01*
X1343Y2283D01*
X1368Y2302D01*
X1388Y2327D01*
X1392Y2338D01*
D02*
G37*
G36*
X1233D02*
X1174D01*
X1178Y2327D01*
X1197Y2302D01*
X1222Y2283D01*
X1233Y2278D01*
Y2338D01*
D02*
G37*
G36*
X4161Y2391D02*
X4142Y2389D01*
X4125Y2382D01*
X4111Y2371D01*
X4103Y2361D01*
X4091D01*
X4083Y2371D01*
X4069Y2382D01*
X4052Y2389D01*
X4034Y2391D01*
X4015Y2389D01*
X3998Y2382D01*
X3984Y2371D01*
X3976Y2361D01*
X3964D01*
X3956Y2371D01*
X3942Y2382D01*
X3925Y2389D01*
X3907Y2391D01*
X3888Y2389D01*
X3871Y2382D01*
X3857Y2371D01*
X3845Y2356D01*
X3838Y2339D01*
X3836Y2321D01*
Y2221D01*
X3838Y2202D01*
X3845Y2185D01*
X3857Y2171D01*
X3871Y2160D01*
X3888Y2153D01*
X3907Y2150D01*
X3925Y2153D01*
X3942Y2160D01*
X3956Y2171D01*
X3964Y2180D01*
X3976D01*
X3984Y2171D01*
X3998Y2160D01*
X4015Y2153D01*
X4034Y2150D01*
X4052Y2153D01*
X4069Y2160D01*
X4083Y2171D01*
X4091Y2180D01*
X4103D01*
X4111Y2171D01*
X4125Y2160D01*
X4142Y2153D01*
X4161Y2150D01*
X4179Y2153D01*
X4196Y2160D01*
X4210Y2171D01*
X4222Y2185D01*
X4229Y2202D01*
X4231Y2221D01*
Y2321D01*
X4229Y2339D01*
X4222Y2356D01*
X4210Y2371D01*
X4196Y2382D01*
X4179Y2389D01*
X4161Y2391D01*
D02*
G37*
G36*
X600Y2671D02*
X567Y2668D01*
X535Y2658D01*
X505Y2642D01*
X479Y2621D01*
X458Y2595D01*
X442Y2565D01*
X432Y2533D01*
X429Y2500D01*
X432Y2467D01*
X442Y2435D01*
X458Y2405D01*
X479Y2379D01*
X505Y2358D01*
X535Y2342D01*
X567Y2332D01*
X600Y2329D01*
X633Y2332D01*
X665Y2342D01*
X695Y2358D01*
X721Y2379D01*
X742Y2405D01*
X758Y2435D01*
X768Y2467D01*
X771Y2500D01*
X768Y2533D01*
X758Y2565D01*
X742Y2595D01*
X721Y2621D01*
X695Y2642D01*
X665Y2658D01*
X633Y2668D01*
X600Y2671D01*
D02*
G37*
G36*
X2799Y1847D02*
X2776Y1842D01*
X2756Y1829D01*
X2743Y1809D01*
X2738Y1786D01*
X2743Y1762D01*
X2756Y1742D01*
X2776Y1729D01*
X2799Y1724D01*
X2822Y1729D01*
X2842Y1742D01*
X2856Y1762D01*
X2860Y1786D01*
X2856Y1809D01*
X2842Y1829D01*
X2822Y1842D01*
X2799Y1847D01*
D02*
G37*
G36*
X2915Y1741D02*
X2896Y1738D01*
X2879Y1731D01*
X2865Y1720D01*
X2854Y1705D01*
X2846Y1688D01*
X2844Y1670D01*
X2846Y1652D01*
X2850Y1643D01*
X2843Y1631D01*
X2843Y1631D01*
D01*
X2843Y1631D01*
X2819Y1636D01*
X2796Y1631D01*
X2776Y1618D01*
X2763Y1598D01*
X2758Y1575D01*
X2763Y1551D01*
X2776Y1532D01*
X2796Y1518D01*
X2819Y1514D01*
X2843Y1518D01*
X2863Y1532D01*
X2876Y1551D01*
X2881Y1575D01*
X2876Y1598D01*
X2876Y1598D01*
D01*
X2876Y1598D01*
X2887Y1606D01*
X2896Y1602D01*
X2907Y1601D01*
X3035Y1473D01*
X3049Y1463D01*
X3067Y1459D01*
X3297D01*
X3303Y1448D01*
X3291Y1431D01*
X3287Y1407D01*
X3291Y1384D01*
X3304Y1364D01*
X3324Y1351D01*
X3348Y1346D01*
X3371Y1351D01*
X3391Y1364D01*
X3404Y1384D01*
X3409Y1407D01*
X3404Y1431D01*
X3391Y1450D01*
X3394Y1459D01*
X3611D01*
X3614Y1455D01*
X3629Y1444D01*
X3646Y1437D01*
X3664Y1434D01*
X3682Y1437D01*
X3699Y1444D01*
X3714Y1455D01*
X3725Y1470D01*
X3732Y1487D01*
X3735Y1505D01*
X3732Y1523D01*
X3725Y1540D01*
X3714Y1555D01*
X3699Y1566D01*
X3682Y1573D01*
X3664Y1576D01*
X3646Y1573D01*
X3629Y1566D01*
X3614Y1555D01*
X3611Y1551D01*
X3520D01*
X3514Y1562D01*
X3519Y1569D01*
X3523Y1593D01*
X3519Y1616D01*
X3505Y1636D01*
X3485Y1649D01*
X3462Y1654D01*
X3439Y1649D01*
X3419Y1636D01*
X3406Y1616D01*
X3401Y1593D01*
X3406Y1569D01*
X3410Y1562D01*
X3404Y1551D01*
X3086D01*
X2983Y1654D01*
X2985Y1670D01*
X2983Y1688D01*
X2976Y1705D01*
X2965Y1720D01*
X2950Y1731D01*
X2933Y1738D01*
X2915Y1741D01*
D02*
G37*
G36*
X2388Y2325D02*
X2368D01*
Y2325D01*
X2370Y2307D01*
X2377Y2290D01*
X2388Y2275D01*
Y2325D01*
D02*
G37*
G36*
X1149Y2508D02*
X909D01*
Y2268D01*
X1149D01*
Y2508D01*
D02*
G37*
%LPD*%
D16*
X4277Y795D02*
X4463D01*
X3919Y437D02*
X4277Y795D01*
D17*
X2908Y1664D02*
X3067Y1505D01*
X2657Y264D02*
X3228D01*
X2629Y292D02*
X2657Y264D01*
X2908Y1206D02*
X3010D01*
X2680Y1435D02*
X2908Y1206D01*
X2680Y1435D02*
Y1702D01*
X3067Y1505D02*
X3664D01*
D18*
X340Y1996D02*
X368D01*
X239Y1895D02*
X340Y1996D01*
X239Y1459D02*
Y1895D01*
Y1459D02*
X317Y1381D01*
D20*
X4846Y2248D02*
X4928D01*
Y2207D01*
X4914Y2193D01*
X4900D01*
X4887Y2207D01*
Y2248D01*
Y2207D01*
X4873Y2193D01*
X4859D01*
X4846Y2207D01*
Y2248D01*
X4928Y2152D02*
Y2125D01*
X4914Y2111D01*
X4887D01*
X4873Y2125D01*
Y2152D01*
X4887Y2166D01*
X4914D01*
X4928Y2152D01*
X4859Y2070D02*
X4873D01*
Y2084D01*
Y2057D01*
Y2070D01*
X4914D01*
X4928Y2057D01*
X4859Y2002D02*
X4873D01*
Y2016D01*
Y1988D01*
Y2002D01*
X4914D01*
X4928Y1988D01*
Y1934D02*
Y1906D01*
X4914Y1893D01*
X4887D01*
X4873Y1906D01*
Y1934D01*
X4887Y1947D01*
X4914D01*
X4928Y1934D01*
Y1865D02*
X4873D01*
Y1852D01*
X4887Y1838D01*
X4928D01*
X4887D01*
X4873Y1824D01*
X4887Y1811D01*
X4928D01*
D21*
X4400Y500D02*
D03*
X600Y2500D02*
D03*
D22*
X3467Y2731D02*
D03*
X3721D02*
D03*
X4140Y2736D02*
D03*
X4394D02*
D03*
X420Y507D02*
D03*
X674D02*
D03*
X420Y253D02*
D03*
X674D02*
D03*
X420Y825D02*
D03*
X674D02*
D03*
X317Y1127D02*
D03*
Y1381D02*
D03*
X423Y2836D02*
D03*
X677D02*
D03*
D23*
X2235Y2769D02*
D03*
X1981D02*
D03*
X2502D02*
D03*
X2756D02*
D03*
X1283Y2388D02*
D03*
Y2692D02*
D03*
D24*
X3378Y2273D02*
D03*
X3632D02*
D03*
X4161Y2271D02*
D03*
X3907D02*
D03*
X2692Y2375D02*
D03*
X2438D02*
D03*
D25*
X3505Y2273D02*
D03*
X4034Y2271D02*
D03*
X2565Y2375D02*
D03*
D26*
X1029Y2388D02*
D03*
Y2692D02*
D03*
D27*
X4194Y998D02*
D03*
Y1252D02*
D03*
X4448Y998D02*
D03*
Y1252D02*
D03*
X4702Y998D02*
D03*
X1726Y1401D02*
D03*
X1226D02*
D03*
D28*
X4702Y1252D02*
D03*
D29*
X2169Y457D02*
D03*
Y965D02*
D03*
D30*
X166Y507D02*
D03*
Y253D02*
D03*
Y825D02*
D03*
X169Y2836D02*
D03*
D31*
X2819Y1575D02*
D03*
X2779Y384D02*
D03*
X2626Y422D02*
D03*
X2555Y602D02*
D03*
X2375Y1206D02*
D03*
X2451Y1384D02*
D03*
X2565Y1499D02*
D03*
X2799Y1786D02*
D03*
X3528Y1146D02*
D03*
X3691Y800D02*
D03*
X3462Y1593D02*
D03*
X3348Y1407D02*
D03*
X3528Y1288D02*
D03*
X2893Y442D02*
D03*
D32*
X4463Y795D02*
D03*
X3228Y264D02*
D03*
X3010Y1206D02*
D03*
X2680Y1702D02*
D03*
X2083Y1626D02*
D03*
X2731Y1041D02*
D03*
X3919Y437D02*
D03*
X3874Y795D02*
D03*
X2629Y292D02*
D03*
X3175Y2070D02*
D03*
X3785Y2045D02*
D03*
X3664Y1505D02*
D03*
X2915Y1670D02*
D03*
X368Y1996D02*
D03*
X4750Y356D02*
D03*
X1341Y564D02*
D03*
M02*
